AstaSans.glyphspackage
{
color = 0;
glyphname = exclam;
layers = (
{
layerId = m003;
shapes = (
{
closed = 1;
nodes = (
(95,488,l),
(102,178,l),
(148,178,l),
(155,488,l),
(159,707,l),
(91,707,l)
);
},
{
closed = 1;
nodes = (
(80,0,l),
(169,0,l),
(169,93,l),
(80,93,l)
);
}
);
userData = {
com.hugojourdan.ColorFlow = {
"0" = 0;
"1" = 0;
"10" = 0;
"11" = 0;
"2" = 0;
"3" = 0;
"4" = 0;
"5" = 0;
"6" = 0;
"7" = 0;
"8" = 0;
"9" = 0;
};
};
width = 249;
},
{
layerId = m01;
shapes = (
{
closed = 1;
nodes = (
(81,498,l),
(93,188,l),
(159,188,l),
(171,498,l),
(175,707,l),
(77,707,l)
);
},
{
closed = 1;
nodes = (
(72,0,l),
(180,0,l),
(180,110,l),
(72,110,l)
);
}
);
userData = {
com.hugojourdan.ColorFlow = {
"0" = 0;
"1" = 0;
"10" = 0;
"11" = 0;
"2" = 0;
"3" = 0;
"4" = 0;
"5" = 0;
"6" = 0;
"7" = 0;
"8" = 0;
"9" = 0;
};
};
width = 252;
},
{
layerId = "54FF0D0B-6EB9-4889-908D-B8898FFCE7DE";
shapes = (
{
closed = 1;
nodes = (
(75,504,l),
(90,193,l),
(167,193,l),
(182,504,l),
(186,707,l),
(71,707,l)
);
},
{
closed = 1;
nodes = (
(69,0,l),
(188,0,l),
(188,119,l),
(69,119,l)
);
}
);
userData = {
com.hugojourdan.ColorFlow = {
"0" = 0;
"1" = 0;
"10" = 0;
"11" = 0;
"2" = 0;
"3" = 0;
"4" = 0;
"5" = 0;
"6" = 0;
"7" = 0;
"8" = 0;
"9" = 0;
};
};
width = 257;
},
{
layerId = "E7059794-B319-4C6D-9648-9B840A1B2BBD";
shapes = (
{
closed = 1;
nodes = (
(68,514,l),
(88,202,l),
(185,202,l),
(205,514,l),
(209,707,l),
(64,707,l)
);
},
{
closed = 1;
nodes = (
(68,0,l),
(205,0,l),
(205,135,l),
(68,135,l)
);
}
);
userData = {
com.hugojourdan.ColorFlow = {
"0" = 0;
"1" = 0;
"10" = 0;
"11" = 0;
"2" = 0;
"3" = 0;
"4" = 0;
"5" = 0;
"6" = 0;
"7" = 0;
"8" = 0;
"9" = 0;
};
};
width = 273;
},
{
layerId = m005;
shapes = (
{
closed = 1;
nodes = (
(67,518,l),
(89,206,l),
(195,206,l),
(217,518,l),
(221,707,l),
(63,707,l)
);
},
{
closed = 1;
nodes = (
(69,0,l),
(215,0,l),
(215,142,l),
(69,142,l)
);
}
);
userData = {
com.hugojourdan.ColorFlow = {
"0" = 0;
"1" = 0;
"10" = 0;
"11" = 0;
"2" = 0;
"3" = 0;
"4" = 0;
"5" = 0;
"6" = 0;
"7" = 0;
"8" = 0;
"9" = 0;
};
};
width = 284;
},
{
layerId = "1E3F0FE2-7EB2-4B39-B562-A9E797F546FD";
shapes = (
{
closed = 1;
nodes = (
(72,509,l),
(89,198,l),
(176,198,l),
(194,509,l),
(198,707,l),
(68,707,l)
);
},
{
closed = 1;
nodes = (
(69,0,l),
(197,0,l),
(197,127,l),
(69,127,l)
);
}
);
width = 265;
}
);
unicode = 33;
}
{
color = 0;
glyphname = quotedbl;
layers = (
{
associatedMasterId = m003;
layerId = "3F965BED-384C-4B37-AEC7-EF39CED99695";
name = "24년 9월 19일 11:39";
shapes = (
{
closed = 1;
nodes = (
(150,712,l),
(90,712,l),
(95,481,l),
(145,481,l)
);
},
{
closed = 1;
nodes = (
(244,481,l),
(294,481,l),
(299,712,l),
(239,712,l)
);
}
);
width = 389;
},
{
layerId = m003;
name = Light;
shapes = (
{
closed = 1;
nodes = (
(167,757,l),
(102,757,l),
(46,510,l),
(102,510,l)
);
},
{
closed = 1;
nodes = (
(315,757,l),
(250,757,l),
(194,510,l),
(250,510,l)
);
}
);
userData = {
com.hugojourdan.ColorFlow = {
"0" = 0;
"1" = 0;
"10" = 0;
"11" = 0;
"2" = 0;
"3" = 0;
"4" = 0;
"5" = 0;
"6" = 0;
"7" = 0;
"8" = 0;
"9" = 0;
};
};
visible = 1;
width = 361;
},
{
associatedMasterId = m01;
layerId = "B670F0E8-B459-4FFC-9E71-229D105C23DD";
name = "24년 9월 19일 11:39";
shapes = (
{
closed = 1;
nodes = (
(169,712,l),
(85,712,l),
(90,476,l),
(164,476,l)
);
},
{
closed = 1;
nodes = (
(255,476,l),
(329,476,l),
(334,712,l),
(250,712,l)
);
}
);
width = 419;
},
{
layerId = m01;
name = Regular;
shapes = (
{
closed = 1;
nodes = (
(182,757,l),
(101,757,l),
(47,492,l),
(117,492,l)
);
},
{
closed = 1;
nodes = (
(357,757,l),
(276,757,l),
(222,492,l),
(292,492,l)
);
}
);
userData = {
com.hugojourdan.ColorFlow = {
"0" = 0;
"1" = 0;
"10" = 0;
"11" = 0;
"2" = 0;
"3" = 0;
"4" = 0;
"5" = 0;
"6" = 0;
"7" = 0;
"8" = 0;
"9" = 0;
};
};
visible = 1;
width = 404;
},
{
associatedMasterId = "54FF0D0B-6EB9-4889-908D-B8898FFCE7DE";
layerId = "1497975E-41EE-412E-83AD-815303B3A281";
name = "24년 9월 19일 11:41";
shapes = (
{
closed = 1;
nodes = (
(178,712,l),
(82,712,l),
(87,474,l),
(173,474,l)
);
},
{
closed = 1;
nodes = (
(258,474,l),
(344,474,l),
(349,712,l),
(253,712,l)
);
}
);
width = 430;
},
{
layerId = "54FF0D0B-6EB9-4889-908D-B8898FFCE7DE";
name = Medium;
shapes = (
{
closed = 1;
nodes = (
(192,757,l),
(98,757,l),
(45,483,l),
(131,483,l)
);
},
{
closed = 1;
nodes = (
(381,757,l),
(288,757,l),
(235,483,l),
(321,483,l)
);
}
);
userData = {
com.hugojourdan.ColorFlow = {
"0" = 0;
"1" = 0;
"10" = 0;
"11" = 0;
"2" = 0;
"3" = 0;
"4" = 0;
"5" = 0;
"6" = 0;
"7" = 0;
"8" = 0;
"9" = 0;
};
};
visible = 1;
width = 426;
},
{
associatedMasterId = "E7059794-B319-4C6D-9648-9B840A1B2BBD";
layerId = "7C73B028-14B0-4C50-BA1A-AB0E69A7A8D7";
name = "24년 9월 19일 11:41";
shapes = (
{
closed = 1;
nodes = (
(194,712,l),
(76,712,l),
(82,471,l),
(188,471,l)
);
},
{
closed = 1;
nodes = (
(261,471,l),
(367,471,l),
(373,712,l),
(255,712,l)
);
}
);
width = 448;
},
{
layerId = "E7059794-B319-4C6D-9648-9B840A1B2BBD";
name = SemiBold;
shapes = (
{
closed = 1;
nodes = (
(208,757,l),
(102,757,l),
(51,474,l),
(145,474,l)
);
},
{
closed = 1;
nodes = (
(417,757,l),
(311,757,l),
(260,474,l),
(354,474,l)
);
}
);
userData = {
com.hugojourdan.ColorFlow = {
"0" = 0;
"1" = 0;
"10" = 0;
"11" = 0;
"2" = 0;
"3" = 0;
"4" = 0;
"5" = 0;
"6" = 0;
"7" = 0;
"8" = 0;
"9" = 0;
};
};
visible = 1;
width = 468;
},
{
associatedMasterId = m005;
layerId = "030C821F-19D5-4D67-B608-E7146B6A06CC";
name = "24년 9월 19일 11:41";
shapes = (
{
closed = 1;
nodes = (
(201,712,l),
(73,712,l),
(80,471,l),
(194,471,l)
);
},
{
closed = 1;
nodes = (
(261,471,l),
(375,471,l),
(382,712,l),
(254,712,l)
);
}
);
width = 455;
},
{
layerId = m005;
name = Bold;
shapes = (
{
closed = 1;
nodes = (
(217,757,l),
(105,757,l),
(57,465,l),
(154,465,l)
);
},
{
closed = 1;
nodes = (
(432,757,l),
(320,757,l),
(272,465,l),
(369,465,l)
);
}
);
userData = {
com.hugojourdan.ColorFlow = {
"0" = 0;
"1" = 0;
"10" = 0;
"11" = 0;
"2" = 0;
"3" = 0;
"4" = 0;
"5" = 0;
"6" = 0;
"7" = 0;
"8" = 0;
"9" = 0;
};
};
width = 489;
},
{
associatedMasterId = "E7059794-B319-4C6D-9648-9B840A1B2BBD";
layerId = "826FB179-8139-417A-B3AB-61999FBEBC98";
name = "24년 10월 21일 13:42";
shapes = (
{
closed = 1;
nodes = (
(209,757,l),
(93,757,l),
(44,474,l),
(148,474,l)
);
},
{
closed = 1;
nodes = (
(426,757,l),
(310,757,l),
(261,474,l),
(365,474,l)
);
}
);
width = 468;
},
{
layerId = "1E3F0FE2-7EB2-4B39-B562-A9E797F546FD";
name = Medium;
shapes = (
{
closed = 1;
nodes = (
(200,757,l),
(100,757,l),
(48,479,l),
(138,479,l)
);
},
{
closed = 1;
nodes = (
(399,757,l),
(300,757,l),
(248,479,l),
(338,479,l)
);
}
);
width = 447;
}
);
unicode = 34;
}
{
color = 0;
glyphname = numbersign;
layers = (
{
layerId = m003;
shapes = (
{
closed = 1;
nodes = (
(65,210,l),
(597,210,l),
(606,262,l),
(74,262,l)
);
},
{
closed = 1;
nodes = (
(106,450,l),
(638,450,l),
(647,502,l),
(115,502,l)
);
},
{
closed = 1;
nodes = (
(151,0,l),
(202,0,l),
(318,712,l),
(267,712,l)
);
},
{
closed = 1;
nodes = (
(394,0,l),
(445,0,l),
(562,712,l),
(511,712,l)
);
}
);
userData = {
com.hugojourdan.ColorFlow = {
"0" = 0;
"1" = 0;
"10" = 0;
"11" = 0;
"2" = 0;
"3" = 0;
"4" = 0;
"5" = 0;
"6" = 0;
"7" = 0;
"8" = 0;
"9" = 0;
};
};
width = 712;
},
{
layerId = m01;
shapes = (
{
closed = 1;
nodes = (
(60,200,l),
(603,200,l),
(615,265,l),
(72,265,l)
);
},
{
closed = 1;
nodes = (
(104,448,l),
(647,448,l),
(659,513,l),
(116,513,l)
);
},
{
closed = 1;
nodes = (
(138,0,l),
(211,0,l),
(330,712,l),
(257,712,l)
);
},
{
closed = 1;
nodes = (
(389,0,l),
(462,0,l),
(581,712,l),
(508,712,l)
);
}
);
userData = {
com.hugojourdan.ColorFlow = {
"0" = 0;
"1" = 0;
"10" = 0;
"11" = 0;
"2" = 0;
"3" = 0;
"4" = 0;
"5" = 0;
"6" = 0;
"7" = 0;
"8" = 0;
"9" = 0;
};
};
width = 719;
},
{
layerId = "54FF0D0B-6EB9-4889-908D-B8898FFCE7DE";
shapes = (
{
closed = 1;
nodes = (
(50,195,l),
(599,195,l),
(613,270,l),
(65,270,l)
);
},
{
closed = 1;
nodes = (
(94,443,l),
(643,443,l),
(657,518,l),
(109,518,l)
);
},
{
closed = 1;
nodes = (
(122,0,l),
(209,0,l),
(330,712,l),
(242,712,l)
);
},
{
closed = 1;
nodes = (
(380,0,l),
(467,0,l),
(588,712,l),
(500,712,l)
);
}
);
userData = {
com.hugojourdan.ColorFlow = {
"0" = 0;
"1" = 0;
"10" = 0;
"11" = 0;
"2" = 0;
"3" = 0;
"4" = 0;
"5" = 0;
"6" = 0;
"7" = 0;
"8" = 0;
"9" = 0;
};
};
width = 707;
},
{
layerId = "E7059794-B319-4C6D-9648-9B840A1B2BBD";
shapes = (
{
closed = 1;
nodes = (
(33,184,l),
(587,184,l),
(605,280,l),
(51,280,l)
);
},
{
closed = 1;
nodes = (
(77,433,l),
(631,433,l),
(649,528,l),
(95,528,l)
);
},
{
closed = 1;
nodes = (
(97,0,l),
(204,0,l),
(326,712,l),
(219,712,l)
);
},
{
closed = 1;
nodes = (
(360,0,l),
(467,0,l),
(589,712,l),
(482,712,l)
);
}
);
userData = {
com.hugojourdan.ColorFlow = {
"0" = 0;
"1" = 0;
"10" = 0;
"11" = 0;
"2" = 0;
"3" = 0;
"4" = 0;
"5" = 0;
"6" = 0;
"7" = 0;
"8" = 0;
"9" = 0;
};
};
width = 681;
},
{
layerId = m005;
shapes = (
{
closed = 1;
nodes = (
(25,179,l),
(579,179,l),
(598,285,l),
(44,285,l)
);
},
{
closed = 1;
nodes = (
(69,428,l),
(623,428,l),
(642,533,l),
(88,533,l)
);
},
{
closed = 1;
nodes = (
(89,0,l),
(201,0,l),
(323,712,l),
(211,712,l)
);
},
{
closed = 1;
nodes = (
(350,0,l),
(462,0,l),
(584,712,l),
(472,712,l)
);
}
);
userData = {
com.hugojourdan.ColorFlow = {
"0" = 0;
"1" = 0;
"10" = 0;
"11" = 0;
"2" = 0;
"3" = 0;
"4" = 0;
"5" = 0;
"6" = 0;
"7" = 0;
"8" = 0;
"9" = 0;
};
};
width = 667;
},
{
layerId = "1E3F0FE2-7EB2-4B39-B562-A9E797F546FD";
shapes = (
{
closed = 1;
nodes = (
(42,190,l),
(593,190,l),
(609,275,l),
(58,275,l)
);
},
{
closed = 1;
nodes = (
(86,438,l),
(637,438,l),
(653,523,l),
(102,523,l)
);
},
{
closed = 1;
nodes = (
(110,0,l),
(207,0,l),
(328,712,l),
(231,712,l)
);
},
{
closed = 1;
nodes = (
(370,0,l),
(467,0,l),
(589,712,l),
(491,712,l)
);
}
);
width = 694;
}
);
unicode = 35;
}
{
color = 0;
glyphname = dollar;
layers = (
{
layerId = m003;
shapes = (
{
closed = 1;
nodes = (
(539,554,l),
(530,651,o),
(444,717,o),
(305,717,cs),
(160,717,o),
(71,644,o),
(71,527,cs),
(71,431,o),
(132,380,o),
(242,350,cs),
(338,324,ls),
(420,302,o),
(493,276,o),
(493,186,cs),
(493,86,o),
(423,40,o),
(300,40,cs),
(199,40,o),
(126,65,o),
(114,161,c),
(52,161,l),
(62,54,o),
(145,-13,o),
(300,-13,cs),
(473,-13,o),
(553,71,o),
(553,184,cs),
(553,315,o),
(435,352,o),
(357,373,cs),
(280,394,ls),
(221,410,o),
(131,431,o),
(131,532,cs),
(131,619,o),
(186,664,o),
(302,664,cs),
(403,664,o),
(468,637,o),
(479,554,c)
);
},
{
closed = 1;
nodes = (
(330,800,l),
(276,800,l),
(276,-96,l),
(330,-96,l)
);
}
);
userData = {
com.hugojourdan.ColorFlow = {
"0" = 0;
"1" = 0;
"10" = 0;
"11" = 0;
"2" = 0;
"3" = 0;
"4" = 0;
"5" = 0;
"6" = 0;
"7" = 0;
"8" = 0;
"9" = 0;
};
};
width = 605;
},
{
layerId = m01;
shapes = (
{
closed = 1;
nodes = (
(548,539,l),
(542,644,o),
(455,717,o),
(309,717,cs),
(163,717,o),
(67,644,o),
(67,521,cs),
(67,423,o),
(134,369,o),
(247,338,cs),
(337,313,ls),
(413,292,o),
(479,269,o),
(479,192,cs),
(479,104,o),
(415,61,o),
(304,61,cs),
(208,61,o),
(141,88,o),
(132,175,c),
(48,175,l),
(57,59,o),
(142,-13,o),
(304,-13,cs),
(479,-13,o),
(563,71,o),
(563,190,cs),
(563,324,o),
(438,362,o),
(360,384,cs),
(288,404,ls),
(234,419,o),
(149,440,o),
(149,525,cs),
(149,603,o),
(200,643,o),
(306,643,cs),
(401,643,o),
(458,614,o),
(467,539,c)
);
},
{
closed = 1;
nodes = (
(340,800,l),
(271,800,l),
(271,-96,l),
(340,-96,l)
);
}
);
userData = {
com.hugojourdan.ColorFlow = {
"0" = 0;
"1" = 0;
"10" = 0;
"11" = 0;
"2" = 0;
"3" = 0;
"4" = 0;
"5" = 0;
"6" = 0;
"7" = 0;
"8" = 0;
"9" = 0;
};
};
width = 611;
},
{
layerId = "54FF0D0B-6EB9-4889-908D-B8898FFCE7DE";
shapes = (
{
closed = 1;
nodes = (
(554,531,l),
(550,641,o),
(461,717,o),
(311,717,cs),
(164,717,o),
(65,644,o),
(65,518,cs),
(65,419,o),
(135,364,o),
(250,332,cs),
(337,307,ls),
(409,287,o),
(470,265,o),
(470,196,cs),
(470,114,o),
(411,71,o),
(306,71,cs),
(213,71,o),
(153,101,o),
(145,183,c),
(46,183,l),
(54,62,o),
(140,-13,o),
(306,-13,cs),
(482,-13,o),
(569,72,o),
(569,194,cs),
(569,329,o),
(439,369,o),
(361,391,cs),
(292,410,ls),
(241,425,o),
(161,445,o),
(161,522,cs),
(161,593,o),
(209,633,o),
(308,633,cs),
(400,633,o),
(450,602,o),
(458,531,c)
);
},
{
closed = 1;
nodes = (
(346,800,l),
(268,800,l),
(268,-96,l),
(346,-96,l)
);
}
);
userData = {
com.hugojourdan.ColorFlow = {
"0" = 0;
"1" = 0;
"10" = 0;
"11" = 0;
"2" = 0;
"3" = 0;
"4" = 0;
"5" = 0;
"6" = 0;
"7" = 0;
"8" = 0;
"9" = 0;
};
};
width = 614;
},
{
layerId = "E7059794-B319-4C6D-9648-9B840A1B2BBD";
shapes = (
{
closed = 1;
nodes = (
(564,516,l),
(563,634,o),
(471,717,o),
(314,717,cs),
(166,717,o),
(60,644,o),
(60,512,cs),
(60,411,o),
(135,354,o),
(254,320,cs),
(335,297,ls),
(401,277,o),
(453,258,o),
(453,202,cs),
(453,133,o),
(402,92,o),
(309,92,cs),
(221,92,o),
(173,124,o),
(168,198,c),
(41,198,l),
(48,68,o),
(136,-13,o),
(309,-13,cs),
(487,-13,o),
(578,72,o),
(578,200,cs),
(578,339,o),
(441,380,o),
(363,402,cs),
(299,421,ls),
(253,434,o),
(183,454,o),
(183,515,cs),
(183,575,o),
(224,613,o),
(311,613,cs),
(397,613,o),
(435,579,o),
(441,516,c)
);
},
{
closed = 1;
nodes = (
(356,800,l),
(264,800,l),
(264,-96,l),
(356,-96,l)
);
}
);
userData = {
com.hugojourdan.ColorFlow = {
"0" = 0;
"1" = 0;
"10" = 0;
"11" = 0;
"2" = 0;
"3" = 0;
"4" = 0;
"5" = 0;
"6" = 0;
"7" = 0;
"8" = 0;
"9" = 0;
};
};
width = 619;
},
{
layerId = m005;
shapes = (
{
closed = 1;
nodes = (
(568,509,l),
(568,631,o),
(475,717,o),
(314,717,cs),
(166,717,o),
(57,644,o),
(57,509,cs),
(57,407,o),
(135,350,o),
(255,315,cs),
(333,292,ls),
(397,273,o),
(445,255,o),
(445,204,cs),
(445,141,o),
(397,102,o),
(309,102,cs),
(224,102,o),
(181,134,o),
(177,204,c),
(38,204,l),
(44,70,o),
(133,-13,o),
(309,-13,cs),
(488,-13,o),
(582,72,o),
(582,202,cs),
(582,343,o),
(441,384,o),
(363,407,cs),
(301,425,ls),
(258,437,o),
(192,458,o),
(192,512,cs),
(192,567,o),
(230,602,o),
(311,602,cs),
(395,602,o),
(428,569,o),
(433,509,c)
);
},
{
closed = 1;
nodes = (
(359,800,l),
(262,800,l),
(262,-96,l),
(359,-96,l)
);
}
);
userData = {
com.hugojourdan.ColorFlow = {
"0" = 0;
"1" = 0;
"10" = 0;
"11" = 0;
"2" = 0;
"3" = 0;
"4" = 0;
"5" = 0;
"6" = 0;
"7" = 0;
"8" = 0;
"9" = 0;
};
};
width = 620;
},
{
layerId = "1E3F0FE2-7EB2-4B39-B562-A9E797F546FD";
shapes = (
{
closed = 1;
nodes = (
(559,524,l),
(557,637,o),
(466,717,o),
(313,717,cs),
(165,717,o),
(63,644,o),
(63,515,cs),
(63,415,o),
(135,359,o),
(252,326,cs),
(336,302,ls),
(405,282,o),
(462,262,o),
(462,199,cs),
(462,124,o),
(407,82,o),
(308,82,cs),
(217,82,o),
(163,113,o),
(157,191,c),
(44,191,l),
(51,66,o),
(138,-13,o),
(308,-13,cs),
(485,-13,o),
(574,72,o),
(574,197,cs),
(574,334,o),
(440,375,o),
(362,397,cs),
(296,416,ls),
(247,430,o),
(172,450,o),
(172,519,cs),
(172,584,o),
(217,623,o),
(310,623,cs),
(399,623,o),
(443,591,o),
(450,524,c)
);
},
{
closed = 1;
nodes = (
(351,800,l),
(266,800,l),
(266,-96,l),
(351,-96,l)
);
}
);
width = 617;
}
);
unicode = 36;
}
{
color = 0;
glyphname = percent;
layers = (
{
layerId = m003;
shapes = (
{
closed = 1;
nodes = (
(283,422,o),
(343,462,o),
(343,570,cs),
(343,676,o),
(284,717,o),
(207,717,cs),
(131,717,o),
(70,676,o),
(70,570,cs),
(70,462,o),
(130,422,o),
(207,422,cs)
);
},
{
closed = 1;
nodes = (
(117,651,o),
(159,674,o),
(207,675,cs),
(256,675,o),
(296,651,o),
(296,570,cs),
(296,488,o),
(256,465,o),
(207,465,cs),
(158,465,o),
(117,488,o),
(117,570,cs)
);
},
{
closed = 1;
nodes = (
(140,0,l),
(201,0,l),
(689,712,l),
(628,712,l)
);
},
{
closed = 1;
nodes = (
(487,31,o),
(546,-10,o),
(623,-10,cs),
(699,-10,o),
(759,31,o),
(759,138,cs),
(759,245,o),
(700,285,o),
(623,286,cs),
(547,285,o),
(485,245,o),
(486,138,cs)
);
},
{
closed = 1;
nodes = (
(533,220,o),
(575,242,o),
(623,243,cs),
(672,243,o),
(712,220,o),
(712,138,cs),
(712,57,o),
(671,33,o),
(623,33,cs),
(574,33,o),
(533,57,o),
(533,138,cs)
);
}
);
userData = {
com.hugojourdan.ColorFlow = {
"0" = 0;
"1" = 0;
"10" = 0;
"11" = 0;
"2" = 0;
"3" = 0;
"4" = 0;
"5" = 0;
"6" = 0;
"7" = 0;
"8" = 0;
"9" = 0;
};
};
width = 827;
},
{
layerId = m01;
shapes = (
{
closed = 1;
nodes = (
(305,399,o),
(368,449,o),
(368,560,cs),
(368,670,o),
(306,719,o),
(217,719,cs),
(129,719,o),
(65,669,o),
(65,560,cs),
(65,449,o),
(128,399,o),
(217,399,cs)
);
},
{
closed = 1;
nodes = (
(137,635,o),
(172,658,o),
(217,659,cs),
(263,659,o),
(296,635,o),
(296,560,cs),
(296,484,o),
(263,461,o),
(217,461,cs),
(171,461,o),
(137,484,o),
(137,560,cs)
);
},
{
closed = 1;
nodes = (
(139,0,l),
(221,0,l),
(710,712,l),
(627,712,l)
);
},
{
closed = 1;
nodes = (
(482,38,o),
(544,-12,o),
(633,-12,cs),
(721,-12,o),
(784,38,o),
(784,148,cs),
(784,258,o),
(722,308,o),
(633,309,cs),
(545,308,o),
(480,258,o),
(481,148,cs)
);
},
{
closed = 1;
nodes = (
(553,224,o),
(588,247,o),
(633,248,cs),
(679,248,o),
(712,224,o),
(712,148,cs),
(712,73,o),
(678,50,o),
(633,50,cs),
(587,50,o),
(553,73,o),
(553,148,cs)
);
}
);
userData = {
com.hugojourdan.ColorFlow = {
"0" = 0;
"1" = 0;
"10" = 0;
"11" = 0;
"2" = 0;
"3" = 0;
"4" = 0;
"5" = 0;
"6" = 0;
"7" = 0;
"8" = 0;
"9" = 0;
};
};
width = 847;
},
{
layerId = "54FF0D0B-6EB9-4889-908D-B8898FFCE7DE";
shapes = (
{
closed = 1;
nodes = (
(315,388,o),
(381,443,o),
(381,555,cs),
(381,667,o),
(316,720,o),
(221,720,cs),
(127,720,o),
(61,666,o),
(61,555,cs),
(61,443,o),
(126,388,o),
(221,388,cs)
);
},
{
closed = 1;
nodes = (
(148,625,o),
(178,648,o),
(221,649,cs),
(264,649,o),
(294,626,o),
(294,555,cs),
(294,484,o),
(264,461,o),
(221,461,cs),
(178,461,o),
(148,484,o),
(148,555,cs)
);
},
{
closed = 1;
nodes = (
(137,0,l),
(232,0,l),
(721,712,l),
(625,712,l)
);
},
{
closed = 1;
nodes = (
(478,42,o),
(542,-13,o),
(637,-13,cs),
(731,-13,o),
(796,42,o),
(796,153,cs),
(796,265,o),
(732,319,o),
(637,320,cs),
(542,319,o),
(476,264,o),
(477,153,cs)
);
},
{
closed = 1;
nodes = (
(564,224,o),
(594,247,o),
(637,248,cs),
(680,248,o),
(709,225,o),
(709,153,cs),
(709,83,o),
(679,60,o),
(637,60,cs),
(593,60,o),
(564,83,o),
(564,153,cs)
);
}
);
userData = {
com.hugojourdan.ColorFlow = {
"0" = 0;
"1" = 0;
"10" = 0;
"11" = 0;
"2" = 0;
"3" = 0;
"4" = 0;
"5" = 0;
"6" = 0;
"7" = 0;
"8" = 0;
"9" = 0;
};
};
width = 857;
},
{
layerId = "E7059794-B319-4C6D-9648-9B840A1B2BBD";
shapes = (
{
closed = 1;
nodes = (
(330,372,o),
(399,433,o),
(399,548,cs),
(399,662,o),
(330,722,o),
(227,722,cs),
(124,722,o),
(55,661,o),
(55,548,cs),
(55,433,o),
(123,372,o),
(227,372,cs)
);
},
{
closed = 1;
nodes = (
(165,610,o),
(187,632,o),
(227,633,cs),
(266,633,o),
(290,612,o),
(290,548,cs),
(290,483,o),
(266,461,o),
(227,461,cs),
(187,461,o),
(165,483,o),
(165,548,cs)
);
},
{
closed = 1;
nodes = (
(136,0,l),
(254,0,l),
(743,712,l),
(625,712,l)
);
},
{
closed = 1;
nodes = (
(481,47,o),
(548,-15,o),
(652,-15,cs),
(755,-15,o),
(824,47,o),
(824,161,cs),
(824,275,o),
(756,336,o),
(652,337,cs),
(548,336,o),
(479,273,o),
(480,161,cs)
);
},
{
closed = 1;
nodes = (
(590,224,o),
(612,246,o),
(652,247,cs),
(691,247,o),
(715,226,o),
(715,161,cs),
(715,97,o),
(691,75,o),
(652,75,cs),
(612,75,o),
(590,97,o),
(590,161,cs)
);
}
);
userData = {
com.hugojourdan.ColorFlow = {
"0" = 0;
"1" = 0;
"10" = 0;
"11" = 0;
"2" = 0;
"3" = 0;
"4" = 0;
"5" = 0;
"6" = 0;
"7" = 0;
"8" = 0;
"9" = 0;
};
};
width = 879;
},
{
layerId = m005;
shapes = (
{
closed = 1;
nodes = (
(335,366,o),
(405,430,o),
(405,545,cs),
(405,660,o),
(334,722,o),
(229,722,cs),
(123,722,o),
(53,659,o),
(53,545,cs),
(53,430,o),
(122,366,o),
(229,366,cs)
);
},
{
closed = 1;
nodes = (
(170,605,o),
(190,627,o),
(229,628,cs),
(266,628,o),
(288,607,o),
(288,545,cs),
(288,483,o),
(266,461,o),
(229,461,cs),
(190,461,o),
(170,483,o),
(170,545,cs)
);
},
{
closed = 1;
nodes = (
(139,0,l),
(264,0,l),
(753,712,l),
(628,712,l)
);
},
{
closed = 1;
nodes = (
(489,49,o),
(557,-15,o),
(664,-15,cs),
(770,-15,o),
(839,49,o),
(839,163,cs),
(839,278,o),
(771,341,o),
(664,342,cs),
(556,341,o),
(487,276,o),
(488,163,cs)
);
},
{
closed = 1;
nodes = (
(605,224,o),
(625,246,o),
(664,247,cs),
(701,247,o),
(723,226,o),
(723,163,cs),
(723,102,o),
(701,80,o),
(664,80,cs),
(625,80,o),
(605,102,o),
(605,163,cs)
);
}
);
userData = {
com.hugojourdan.ColorFlow = {
"0" = 0;
"1" = 0;
"10" = 0;
"11" = 0;
"2" = 0;
"3" = 0;
"4" = 0;
"5" = 0;
"6" = 0;
"7" = 0;
"8" = 0;
"9" = 0;
};
};
width = 892;
},
{
layerId = "1E3F0FE2-7EB2-4B39-B562-A9E797F546FD";
shapes = (
{
closed = 1;
nodes = (
(323,380,o),
(390,438,o),
(390,552,cs),
(390,665,o),
(323,721,o),
(224,721,cs),
(126,721,o),
(58,664,o),
(58,552,cs),
(58,438,o),
(125,380,o),
(224,380,cs)
);
},
{
closed = 1;
nodes = (
(157,618,o),
(183,640,o),
(224,641,cs),
(265,641,o),
(292,619,o),
(292,552,cs),
(292,484,o),
(265,461,o),
(224,461,cs),
(183,461,o),
(157,484,o),
(157,552,cs)
);
},
{
closed = 1;
nodes = (
(137,0,l),
(243,0,l),
(732,712,l),
(625,712,l)
);
},
{
closed = 1;
nodes = (
(480,45,o),
(545,-14,o),
(645,-14,cs),
(743,-14,o),
(810,45,o),
(810,157,cs),
(810,270,o),
(744,328,o),
(645,329,cs),
(545,328,o),
(478,269,o),
(479,157,cs)
);
},
{
closed = 1;
nodes = (
(577,224,o),
(603,247,o),
(645,248,cs),
(686,248,o),
(712,226,o),
(712,157,cs),
(712,90,o),
(685,68,o),
(645,68,cs),
(603,68,o),
(577,90,o),
(577,157,cs)
);
}
);
width = 868;
}
);
unicode = 37;
}
{
color = 0;
glyphname = ampersand;
layers = (
{
layerId = m003;
shapes = (
{
closed = 1;
nodes = (
(598,0,l),
(257,410,ls),
(215,460,o),
(170,507,o),
(170,568,cs),
(170,638,o),
(211,667,o),
(282,667,cs),
(353,667,o),
(389,635,o),
(389,567,cs),
(389,518,o),
(362,475,o),
(319,445,cs),
(205,364,ls),
(122,305,o),
(69,260,o),
(69,152,cs),
(69,40,o),
(166,-10,o),
(270,-10,cs),
(437,-10,o),
(538,100,o),
(576,319,c),
(523,319,l),
(497,141,o),
(412,42,o),
(276,42,cs),
(203,42,o),
(128,74,o),
(128,159,cs),
(128,242,o),
(168,276,o),
(236,325,cs),
(350,407,ls),
(407,448,o),
(445,507,o),
(445,571,cs),
(445,659,o),
(384,717,o),
(284,717,cs),
(184,717,o),
(112,664,o),
(112,577,cs),
(112,500,o),
(160,449,o),
(207,392,cs),
(531,0,l)
);
}
);
userData = {
com.hugojourdan.ColorFlow = {
"0" = 0;
"1" = 0;
"10" = 0;
"11" = 0;
"2" = 0;
"3" = 0;
"4" = 0;
"5" = 0;
"6" = 0;
"7" = 0;
"8" = 0;
"9" = 0;
};
};
width = 623;
},
{
layerId = m01;
shapes = (
{
closed = 1;
nodes = (
(623,0,l),
(264,433,ls),
(227,477,o),
(194,516,o),
(194,561,cs),
(194,618,o),
(227,647,o),
(290,647,cs),
(353,647,o),
(379,617,o),
(379,559,cs),
(379,519,o),
(360,486,o),
(314,453,cs),
(188,363,ls),
(109,307,o),
(65,260,o),
(65,165,cs),
(65,48,o),
(148,-10,o),
(269,-10,cs),
(452,-10,o),
(550,99,o),
(597,332,c),
(521,332,l),
(487,146,o),
(408,62,o),
(275,62,cs),
(202,62,o),
(149,95,o),
(149,173,cs),
(149,234,o),
(179,268,o),
(235,310,cs),
(362,406,ls),
(428,456,o),
(457,504,o),
(457,566,cs),
(457,654,o),
(397,717,o),
(291,717,cs),
(185,717,o),
(114,665,o),
(114,570,cs),
(114,501,o),
(154,454,o),
(200,399,cs),
(529,0,l)
);
}
);
userData = {
com.hugojourdan.ColorFlow = {
"0" = 0;
"1" = 0;
"10" = 0;
"11" = 0;
"2" = 0;
"3" = 0;
"4" = 0;
"5" = 0;
"6" = 0;
"7" = 0;
"8" = 0;
"9" = 0;
};
};
width = 643;
},
{
layerId = "54FF0D0B-6EB9-4889-908D-B8898FFCE7DE";
shapes = (
{
closed = 1;
nodes = (
(634,0,l),
(265,445,ls),
(231,486,o),
(204,520,o),
(204,558,cs),
(204,608,o),
(232,637,o),
(291,637,cs),
(350,637,o),
(372,608,o),
(372,557,cs),
(372,520,o),
(353,488,o),
(310,458,cs),
(182,367,ls),
(104,312,o),
(60,265,o),
(60,172,cs),
(60,55,o),
(141,-10,o),
(276,-10,cs),
(455,-10,o),
(562,103,o),
(604,339,c),
(517,339,l),
(493,162,o),
(409,72,o),
(282,72,cs),
(204,72,o),
(157,109,o),
(157,180,cs),
(157,235,o),
(187,268,o),
(238,306,cs),
(367,404,ls),
(433,455,o),
(461,497,o),
(461,564,cs),
(461,651,o),
(401,717,o),
(292,717,cs),
(183,717,o),
(113,665,o),
(113,567,cs),
(113,502,o),
(148,457,o),
(193,403,cs),
(525,0,l)
);
}
);
userData = {
com.hugojourdan.ColorFlow = {
"0" = 0;
"1" = 0;
"10" = 0;
"11" = 0;
"2" = 0;
"3" = 0;
"4" = 0;
"5" = 0;
"6" = 0;
"7" = 0;
"8" = 0;
"9" = 0;
};
};
width = 649;
},
{
layerId = "E7059794-B319-4C6D-9648-9B840A1B2BBD";
shapes = (
{
closed = 1;
nodes = (
(651,0,l),
(266,462,ls),
(236,498,o),
(219,526,o),
(219,555,cs),
(219,593,o),
(241,620,o),
(293,620,cs),
(343,620,o),
(360,594,o),
(360,555,cs),
(360,521,o),
(342,491,o),
(303,464,cs),
(172,372,ls),
(96,319,o),
(53,272,o),
(53,182,cs),
(53,68,o),
(131,-10,o),
(278,-10,cs),
(474,-10,o),
(576,119,o),
(613,349,c),
(510,349,l),
(496,195,o),
(417,89,o),
(284,89,cs),
(207,89,o),
(170,132,o),
(170,191,cs),
(170,236,o),
(198,267,o),
(242,300,cs),
(373,400,ls),
(441,451,o),
(466,490,o),
(466,560,cs),
(466,647,o),
(405,717,o),
(293,717,cs),
(180,717,o),
(111,665,o),
(111,562,cs),
(111,503,o),
(138,461,o),
(182,408,cs),
(519,0,l)
);
}
);
userData = {
com.hugojourdan.ColorFlow = {
"0" = 0;
"1" = 0;
"10" = 0;
"11" = 0;
"2" = 0;
"3" = 0;
"4" = 0;
"5" = 0;
"6" = 0;
"7" = 0;
"8" = 0;
"9" = 0;
};
};
width = 658;
},
{
layerId = m005;
shapes = (
{
closed = 1;
nodes = (
(656,0,l),
(266,468,ls),
(237,502,o),
(224,528,o),
(224,555,cs),
(224,588,o),
(245,613,o),
(293,613,cs),
(338,613,o),
(356,589,o),
(356,556,cs),
(356,521,o),
(337,491,o),
(300,465,cs),
(169,374,ls),
(93,321,o),
(50,274,o),
(50,185,cs),
(50,74,o),
(127,-10,o),
(274,-10,cs),
(490,-10,o),
(578,131,o),
(615,352,c),
(506,352,l),
(493,211,o),
(425,96,o),
(280,96,cs),
(208,96,o),
(174,142,o),
(174,194,cs),
(174,236,o),
(202,267,o),
(243,298,cs),
(375,397,ls),
(443,448,o),
(468,491,o),
(468,559,cs),
(468,645,o),
(405,717,o),
(293,717,cs),
(180,717,o),
(110,665,o),
(110,560,cs),
(110,503,o),
(135,462,o),
(178,410,cs),
(517,0,l)
);
}
);
userData = {
com.hugojourdan.ColorFlow = {
"0" = 0;
"1" = 0;
"10" = 0;
"11" = 0;
"2" = 0;
"3" = 0;
"4" = 0;
"5" = 0;
"6" = 0;
"7" = 0;
"8" = 0;
"9" = 0;
};
};
width = 661;
},
{
layerId = "1E3F0FE2-7EB2-4B39-B562-A9E797F546FD";
shapes = (
{
closed = 1;
nodes = (
(643,0,l),
(266,454,ls),
(234,492,o),
(212,523,o),
(212,557,cs),
(212,601,o),
(237,629,o),
(292,629,cs),
(347,629,o),
(366,601,o),
(366,556,cs),
(366,521,o),
(347,489,o),
(307,461,cs),
(177,370,ls),
(100,316,o),
(57,269,o),
(57,177,cs),
(57,62,o),
(136,-10,o),
(277,-10,cs),
(465,-10,o),
(569,110,o),
(609,344,c),
(514,344,l),
(495,179,o),
(413,81,o),
(283,81,cs),
(206,81,o),
(164,121,o),
(164,186,cs),
(164,236,o),
(193,268,o),
(240,303,cs),
(370,402,ls),
(437,453,o),
(464,494,o),
(464,562,cs),
(464,649,o),
(403,717,o),
(293,717,cs),
(182,717,o),
(112,665,o),
(112,565,cs),
(112,503,o),
(144,458,o),
(188,406,cs),
(522,0,l)
);
}
);
width = 654;
}
);
unicode = 38;
}
{
color = 0;
glyphname = parenleft;
layers = (
{
layerId = m003;
shapes = (
{
closed = 1;
nodes = (
(92,70,o),
(181,-73,o),
(255,-153,c),
(324,-153,l),
(226,-46,o),
(152,87,o),
(152,318,cs),
(152,549,o),
(226,681,o),
(324,788,c),
(255,788,l),
(181,708,o),
(92,566,o),
(92,318,cs)
);
}
);
userData = {
com.hugojourdan.ColorFlow = {
"0" = 0;
"1" = 0;
"10" = 0;
"11" = 0;
"2" = 0;
"3" = 0;
"4" = 0;
"5" = 0;
"6" = 0;
"7" = 0;
"8" = 0;
"9" = 0;
};
};
width = 372;
},
{
layerId = m01;
shapes = (
{
closed = 1;
nodes = (
(87,70,o),
(176,-73,o),
(252,-153,c),
(339,-153,l),
(241,-51,o),
(167,87,o),
(167,318,cs),
(167,549,o),
(241,686,o),
(339,788,c),
(252,788,l),
(176,708,o),
(87,566,o),
(87,318,cs)
);
}
);
userData = {
com.hugojourdan.ColorFlow = {
"0" = 0;
"1" = 0;
"10" = 0;
"11" = 0;
"2" = 0;
"3" = 0;
"4" = 0;
"5" = 0;
"6" = 0;
"7" = 0;
"8" = 0;
"9" = 0;
};
};
width = 382;
},
{
layerId = "54FF0D0B-6EB9-4889-908D-B8898FFCE7DE";
shapes = (
{
closed = 1;
nodes = (
(82,70,o),
(171,-73,o),
(247,-153,c),
(345,-153,l),
(247,-51,o),
(173,87,o),
(173,318,cs),
(173,549,o),
(247,686,o),
(345,788,c),
(247,788,l),
(171,708,o),
(82,566,o),
(82,318,cs)
);
}
);
userData = {
com.hugojourdan.ColorFlow = {
"0" = 0;
"1" = 0;
"10" = 0;
"11" = 0;
"2" = 0;
"3" = 0;
"4" = 0;
"5" = 0;
"6" = 0;
"7" = 0;
"8" = 0;
"9" = 0;
};
};
width = 386;
},
{
layerId = "E7059794-B319-4C6D-9648-9B840A1B2BBD";
shapes = (
{
closed = 1;
nodes = (
(74,70,o),
(163,-73,o),
(239,-153,c),
(356,-153,l),
(258,-51,o),
(184,87,o),
(184,318,cs),
(184,549,o),
(258,686,o),
(356,788,c),
(239,788,l),
(163,708,o),
(74,566,o),
(74,318,cs)
);
}
);
userData = {
com.hugojourdan.ColorFlow = {
"0" = 0;
"1" = 0;
"10" = 0;
"11" = 0;
"2" = 0;
"3" = 0;
"4" = 0;
"5" = 0;
"6" = 0;
"7" = 0;
"8" = 0;
"9" = 0;
};
};
width = 392;
},
{
layerId = m005;
shapes = (
{
closed = 1;
nodes = (
(70,70,o),
(159,-73,o),
(235,-153,c),
(361,-153,l),
(263,-51,o),
(188,87,o),
(188,318,cs),
(188,549,o),
(263,686,o),
(361,788,c),
(235,788,l),
(159,708,o),
(70,566,o),
(70,318,cs)
);
}
);
userData = {
com.hugojourdan.ColorFlow = {
"0" = 0;
"1" = 0;
"10" = 0;
"11" = 0;
"2" = 0;
"3" = 0;
"4" = 0;
"5" = 0;
"6" = 0;
"7" = 0;
"8" = 0;
"9" = 0;
};
};
width = 394;
},
{
layerId = "1E3F0FE2-7EB2-4B39-B562-A9E797F546FD";
shapes = (
{
closed = 1;
nodes = (
(78,70,o),
(167,-73,o),
(243,-153,c),
(351,-153,l),
(253,-51,o),
(179,87,o),
(179,318,cs),
(179,549,o),
(253,686,o),
(351,788,c),
(243,788,l),
(167,708,o),
(78,566,o),
(78,318,cs)
);
}
);
width = 389;
}
);
unicode = 40;
}
{
color = 0;
glyphname = asterisk;
layers = (
{
layerId = m003;
shapes = (
{
closed = 1;
nodes = (
(360,352,l),
(275,494,l),
(441,492,l),
(441,535,l),
(275,533,l),
(359,677,l),
(321,698,l),
(240,553,l),
(160,698,l),
(119,674,l),
(205,533,l),
(38,535,l),
(39,492,l),
(206,493,l),
(121,350,l),
(158,328,l),
(239,473,l),
(319,329,l)
);
}
);
userData = {
com.hugojourdan.ColorFlow = {
"0" = 0;
"1" = 0;
"10" = 0;
"11" = 0;
"2" = 0;
"3" = 0;
"4" = 0;
"5" = 0;
"6" = 0;
"7" = 0;
"8" = 0;
"9" = 0;
};
};
width = 479;
},
{
layerId = m01;
shapes = (
{
closed = 1;
nodes = (
(364,358,l),
(283,487,l),
(437,482,l),
(436,545,l),
(283,540,l),
(364,671,l),
(309,703,l),
(236,567,l),
(165,703,l),
(109,670,l),
(190,540,l),
(36,545,l),
(36,482,l),
(190,486,l),
(109,356,l),
(163,324,l),
(236,460,l),
(308,326,l)
);
}
);
userData = {
com.hugojourdan.ColorFlow = {
"0" = 0;
"1" = 0;
"10" = 0;
"11" = 0;
"2" = 0;
"3" = 0;
"4" = 0;
"5" = 0;
"6" = 0;
"7" = 0;
"8" = 0;
"9" = 0;
};
};
width = 473;
},
{
layerId = "54FF0D0B-6EB9-4889-908D-B8898FFCE7DE";
shapes = (
{
closed = 1;
nodes = (
(366,361,l),
(287,484,l),
(434,477,l),
(434,550,l),
(287,544,l),
(366,668,l),
(303,705,l),
(235,574,l),
(167,705,l),
(103,668,l),
(183,544,l),
(35,550,l),
(34,477,l),
(182,483,l),
(103,359,l),
(166,322,l),
(235,454,l),
(302,324,l)
);
}
);
userData = {
com.hugojourdan.ColorFlow = {
"0" = 0;
"1" = 0;
"10" = 0;
"11" = 0;
"2" = 0;
"3" = 0;
"4" = 0;
"5" = 0;
"6" = 0;
"7" = 0;
"8" = 0;
"9" = 0;
};
};
width = 468;
},
{
layerId = "E7059794-B319-4C6D-9648-9B840A1B2BBD";
shapes = (
{
closed = 1;
nodes = (
(377,362,l),
(302,476,l),
(438,468,l),
(438,558,l),
(302,552,l),
(376,667,l),
(298,713,l),
(236,590,l),
(174,713,l),
(95,667,l),
(171,552,l),
(32,559,l),
(31,468,l),
(169,475,l),
(94,360,l),
(173,315,l),
(236,438,l),
(298,316,l)
);
}
);
userData = {
com.hugojourdan.ColorFlow = {
"0" = 0;
"1" = 0;
"10" = 0;
"11" = 0;
"2" = 0;
"3" = 0;
"4" = 0;
"5" = 0;
"6" = 0;
"7" = 0;
"8" = 0;
"9" = 0;
};
};
width = 469;
},
{
layerId = m005;
shapes = (
{
closed = 1;
nodes = (
(385,360,l),
(312,471,l),
(445,464,l),
(445,562,l),
(312,556,l),
(384,668,l),
(299,718,l),
(239,599,l),
(178,718,l),
(92,668,l),
(166,556,l),
(31,563,l),
(30,464,l),
(164,470,l),
(91,358,l),
(177,309,l),
(239,429,l),
(299,310,l)
);
}
);
userData = {
com.hugojourdan.ColorFlow = {
"0" = 0;
"1" = 0;
"10" = 0;
"11" = 0;
"2" = 0;
"3" = 0;
"4" = 0;
"5" = 0;
"6" = 0;
"7" = 0;
"8" = 0;
"9" = 0;
};
};
width = 475;
},
{
layerId = "1E3F0FE2-7EB2-4B39-B562-A9E797F546FD";
shapes = (
{
closed = 1;
nodes = (
(372,362,l),
(295,480,l),
(436,473,l),
(436,554,l),
(295,548,l),
(371,668,l),
(301,709,l),
(236,582,l),
(171,709,l),
(99,668,l),
(177,548,l),
(34,555,l),
(33,473,l),
(176,479,l),
(99,360,l),
(170,319,l),
(236,446,l),
(300,320,l)
);
}
);
width = 469;
}
);
unicode = 42;
}
{
color = 0;
glyphname = plus;
layers = (
{
layerId = m003;
shapes = (
{
closed = 1;
nodes = (
(243,93,l),
(303,93,l),
(303,290,l),
(486,290,l),
(486,342,l),
(303,342,l),
(303,539,l),
(243,539,l),
(243,342,l),
(60,342,l),
(60,290,l),
(243,290,l)
);
}
);
userData = {
com.hugojourdan.ColorFlow = {
"0" = 0;
"1" = 0;
"10" = 0;
"11" = 0;
"2" = 0;
"3" = 0;
"4" = 0;
"5" = 0;
"6" = 0;
"7" = 0;
"8" = 0;
"9" = 0;
};
};
width = 546;
},
{
layerId = m01;
shapes = (
{
closed = 1;
nodes = (
(242,81,l),
(326,81,l),
(326,280,l),
(510,280,l),
(510,354,l),
(326,354,l),
(326,553,l),
(242,553,l),
(242,354,l),
(58,354,l),
(58,280,l),
(242,280,l)
);
}
);
userData = {
com.hugojourdan.ColorFlow = {
"0" = 0;
"1" = 0;
"10" = 0;
"11" = 0;
"2" = 0;
"3" = 0;
"4" = 0;
"5" = 0;
"6" = 0;
"7" = 0;
"8" = 0;
"9" = 0;
};
};
width = 568;
},
{
layerId = "54FF0D0B-6EB9-4889-908D-B8898FFCE7DE";
shapes = (
{
closed = 1;
nodes = (
(238,75,l),
(337,75,l),
(337,276,l),
(520,276,l),
(520,359,l),
(337,359,l),
(337,560,l),
(238,560,l),
(238,359,l),
(55,359,l),
(55,276,l),
(238,276,l)
);
}
);
userData = {
com.hugojourdan.ColorFlow = {
"0" = 0;
"1" = 0;
"10" = 0;
"11" = 0;
"2" = 0;
"3" = 0;
"4" = 0;
"5" = 0;
"6" = 0;
"7" = 0;
"8" = 0;
"9" = 0;
};
};
width = 575;
},
{
layerId = "E7059794-B319-4C6D-9648-9B840A1B2BBD";
shapes = (
{
closed = 1;
nodes = (
(232,63,l),
(357,63,l),
(357,266,l),
(538,266,l),
(538,369,l),
(357,369,l),
(357,571,l),
(232,571,l),
(232,369,l),
(51,369,l),
(51,266,l),
(232,266,l)
);
}
);
userData = {
com.hugojourdan.ColorFlow = {
"0" = 0;
"1" = 0;
"10" = 0;
"11" = 0;
"2" = 0;
"3" = 0;
"4" = 0;
"5" = 0;
"6" = 0;
"7" = 0;
"8" = 0;
"9" = 0;
};
};
width = 589;
},
{
layerId = m005;
shapes = (
{
closed = 1;
nodes = (
(230,58,l),
(366,58,l),
(366,260,l),
(546,260,l),
(546,374,l),
(366,374,l),
(366,576,l),
(230,576,l),
(230,374,l),
(50,374,l),
(50,260,l),
(230,260,l)
);
}
);
userData = {
com.hugojourdan.ColorFlow = {
"0" = 0;
"1" = 0;
"10" = 0;
"11" = 0;
"2" = 0;
"3" = 0;
"4" = 0;
"5" = 0;
"6" = 0;
"7" = 0;
"8" = 0;
"9" = 0;
};
};
width = 596;
},
{
layerId = "1E3F0FE2-7EB2-4B39-B562-A9E797F546FD";
shapes = (
{
closed = 1;
nodes = (
(235,69,l),
(347,69,l),
(347,271,l),
(529,271,l),
(529,364,l),
(347,364,l),
(347,566,l),
(235,566,l),
(235,364,l),
(53,364,l),
(53,271,l),
(235,271,l)
);
}
);
width = 582;
}
);
unicode = 43;
}
{
color = 0;
glyphname = comma;
kernLeft = KO_comma;
kernRight = KO_comma;
layers = (
{
layerId = m003;
shapes = (
{
closed = 1;
nodes = (
(172,93,l),
(93,93,l),
(47,-155,l),
(99,-155,l)
);
}
);
userData = {
com.hugojourdan.ColorFlow = {
"0" = 0;
"1" = 0;
"10" = 0;
"11" = 0;
"2" = 0;
"3" = 0;
"4" = 0;
"5" = 0;
"6" = 0;
"7" = 0;
"8" = 0;
"9" = 0;
};
};
width = 259;
},
{
layerId = m01;
shapes = (
{
closed = 1;
nodes = (
(190,110,l),
(90,110,l),
(46,-155,l),
(111,-155,l)
);
}
);
userData = {
com.hugojourdan.ColorFlow = {
"0" = 0;
"1" = 0;
"10" = 0;
"11" = 0;
"2" = 0;
"3" = 0;
"4" = 0;
"5" = 0;
"6" = 0;
"7" = 0;
"8" = 0;
"9" = 0;
};
};
width = 277;
},
{
layerId = "54FF0D0B-6EB9-4889-908D-B8898FFCE7DE";
shapes = (
{
closed = 1;
nodes = (
(199,120,l),
(93,120,l),
(45,-155,l),
(118,-155,l)
);
}
);
userData = {
com.hugojourdan.ColorFlow = {
"0" = 0;
"1" = 0;
"10" = 0;
"11" = 0;
"2" = 0;
"3" = 0;
"4" = 0;
"5" = 0;
"6" = 0;
"7" = 0;
"8" = 0;
"9" = 0;
};
};
width = 284;
},
{
layerId = "E7059794-B319-4C6D-9648-9B840A1B2BBD";
shapes = (
{
closed = 1;
nodes = (
(215,137,l),
(98,137,l),
(47,-155,l),
(127,-155,l)
);
}
);
userData = {
com.hugojourdan.ColorFlow = {
"0" = 0;
"1" = 0;
"10" = 0;
"11" = 0;
"2" = 0;
"3" = 0;
"4" = 0;
"5" = 0;
"6" = 0;
"7" = 0;
"8" = 0;
"9" = 0;
};
};
width = 301;
},
{
layerId = m005;
shapes = (
{
closed = 1;
nodes = (
(225,145,l),
(96,145,l),
(46,-155,l),
(133,-155,l)
);
}
);
userData = {
com.hugojourdan.ColorFlow = {
"0" = 0;
"1" = 0;
"10" = 0;
"11" = 0;
"2" = 0;
"3" = 0;
"4" = 0;
"5" = 0;
"6" = 0;
"7" = 0;
"8" = 0;
"9" = 0;
};
};
width = 310;
},
{
layerId = "1E3F0FE2-7EB2-4B39-B562-A9E797F546FD";
shapes = (
{
closed = 1;
nodes = (
(207,129,l),
(96,129,l),
(46,-155,l),
(123,-155,l)
);
}
);
width = 293;
}
);
unicode = 44;
userData = {
KernOnSpecialSpacing = {
L = period;
R = period;
};
};
}
{
color = 0;
glyphname = hyphen;
kernRight = KO_hyphen;
layers = (
{
layerId = m003;
shapes = (
{
closed = 1;
nodes = (
(330,342,l),
(60,342,l),
(60,290,l),
(330,290,l)
);
}
);
userData = {
com.hugojourdan.ColorFlow = {
"0" = 0;
"1" = 0;
"10" = 0;
"11" = 0;
"2" = 0;
"3" = 0;
"4" = 0;
"5" = 0;
"6" = 0;
"7" = 0;
"8" = 0;
"9" = 0;
};
};
width = 390;
},
{
layerId = m01;
shapes = (
{
closed = 1;
nodes = (
(360,355,l),
(70,355,l),
(70,281,l),
(360,281,l)
);
}
);
userData = {
com.hugojourdan.ColorFlow = {
"0" = 0;
"1" = 0;
"10" = 0;
"11" = 0;
"2" = 0;
"3" = 0;
"4" = 0;
"5" = 0;
"6" = 0;
"7" = 0;
"8" = 0;
"9" = 0;
};
};
width = 430;
},
{
layerId = "54FF0D0B-6EB9-4889-908D-B8898FFCE7DE";
shapes = (
{
closed = 1;
nodes = (
(370,359,l),
(70,359,l),
(70,276,l),
(370,276,l)
);
}
);
userData = {
com.hugojourdan.ColorFlow = {
"0" = 0;
"1" = 0;
"10" = 0;
"11" = 0;
"2" = 0;
"3" = 0;
"4" = 0;
"5" = 0;
"6" = 0;
"7" = 0;
"8" = 0;
"9" = 0;
};
};
width = 440;
},
{
layerId = "E7059794-B319-4C6D-9648-9B840A1B2BBD";
shapes = (
{
closed = 1;
nodes = (
(390,369,l),
(70,369,l),
(70,266,l),
(390,266,l)
);
}
);
userData = {
com.hugojourdan.ColorFlow = {
"0" = 0;
"1" = 0;
"10" = 0;
"11" = 0;
"2" = 0;
"3" = 0;
"4" = 0;
"5" = 0;
"6" = 0;
"7" = 0;
"8" = 0;
"9" = 0;
};
};
width = 460;
},
{
layerId = m005;
shapes = (
{
closed = 1;
nodes = (
(400,374,l),
(70,374,l),
(70,260,l),
(400,260,l)
);
}
);
userData = {
com.hugojourdan.ColorFlow = {
"0" = 0;
"1" = 0;
"10" = 0;
"11" = 0;
"2" = 0;
"3" = 0;
"4" = 0;
"5" = 0;
"6" = 0;
"7" = 0;
"8" = 0;
"9" = 0;
};
};
width = 470;
},
{
layerId = "1E3F0FE2-7EB2-4B39-B562-A9E797F546FD";
shapes = (
{
closed = 1;
nodes = (
(380,364,l),
(70,364,l),
(70,271,l),
(380,271,l)
);
}
);
width = 450;
}
);
unicode = 45;
userData = {
KernOnSpecialSpacing = {
L = hyphen;
R = hyphen;
};
};
}
{
color = 0;
glyphname = period;
kernLeft = KO_period;
kernRight = KO_period;
layers = (
{
layerId = m003;
shapes = (
{
closed = 1;
nodes = (
(82,0,l),
(171,0,l),
(171,93,l),
(82,93,l)
);
}
);
userData = {
com.hugojourdan.ColorFlow = {
"0" = 0;
"1" = 0;
"10" = 0;
"11" = 0;
"2" = 0;
"3" = 0;
"4" = 0;
"5" = 0;
"6" = 0;
"7" = 0;
"8" = 0;
"9" = 0;
};
};
width = 253;
},
{
layerId = m01;
shapes = (
{
closed = 1;
nodes = (
(80,0,l),
(188,0,l),
(188,110,l),
(80,110,l)
);
}
);
userData = {
com.hugojourdan.ColorFlow = {
"0" = 0;
"1" = 0;
"10" = 0;
"11" = 0;
"2" = 0;
"3" = 0;
"4" = 0;
"5" = 0;
"6" = 0;
"7" = 0;
"8" = 0;
"9" = 0;
};
};
width = 268;
},
{
layerId = "54FF0D0B-6EB9-4889-908D-B8898FFCE7DE";
shapes = (
{
closed = 1;
nodes = (
(78,0,l),
(197,0,l),
(197,120,l),
(78,120,l)
);
}
);
userData = {
com.hugojourdan.ColorFlow = {
"0" = 0;
"1" = 0;
"10" = 0;
"11" = 0;
"2" = 0;
"3" = 0;
"4" = 0;
"5" = 0;
"6" = 0;
"7" = 0;
"8" = 0;
"9" = 0;
};
};
width = 275;
},
{
layerId = "E7059794-B319-4C6D-9648-9B840A1B2BBD";
shapes = (
{
closed = 1;
nodes = (
(75,0,l),
(213,0,l),
(213,137,l),
(75,137,l)
);
}
);
userData = {
com.hugojourdan.ColorFlow = {
"0" = 0;
"1" = 0;
"10" = 0;
"11" = 0;
"2" = 0;
"3" = 0;
"4" = 0;
"5" = 0;
"6" = 0;
"7" = 0;
"8" = 0;
"9" = 0;
};
};
width = 288;
},
{
layerId = m005;
shapes = (
{
closed = 1;
nodes = (
(74,0,l),
(220,0,l),
(220,144,l),
(74,144,l)
);
}
);
userData = {
com.hugojourdan.ColorFlow = {
"0" = 0;
"1" = 0;
"10" = 0;
"11" = 0;
"2" = 0;
"3" = 0;
"4" = 0;
"5" = 0;
"6" = 0;
"7" = 0;
"8" = 0;
"9" = 0;
};
};
width = 294;
},
{
layerId = "1E3F0FE2-7EB2-4B39-B562-A9E797F546FD";
shapes = (
{
closed = 1;
nodes = (
(77,0,l),
(205,0,l),
(205,129,l),
(77,129,l)
);
}
);
width = 282;
}
);
unicode = 46;
userData = {
KernOnSpecialSpacing = {
L = period;
R = period;
};
};
}
{
color = 0;
glyphname = slash;
layers = (
{
layerId = m003;
shapes = (
{
closed = 1;
nodes = (
(305,745,l),
(249,745,l),
(19,-106,l),
(75,-106,l)
);
}
);
userData = {
com.hugojourdan.ColorFlow = {
"0" = 0;
"1" = 0;
"10" = 0;
"11" = 0;
"2" = 0;
"3" = 0;
"4" = 0;
"5" = 0;
"6" = 0;
"7" = 0;
"8" = 0;
"9" = 0;
};
};
width = 324;
},
{
layerId = m01;
shapes = (
{
closed = 1;
nodes = (
(322,745,l),
(247,745,l),
(17,-106,l),
(92,-106,l)
);
}
);
userData = {
com.hugojourdan.ColorFlow = {
"0" = 0;
"1" = 0;
"10" = 0;
"11" = 0;
"2" = 0;
"3" = 0;
"4" = 0;
"5" = 0;
"6" = 0;
"7" = 0;
"8" = 0;
"9" = 0;
};
};
width = 339;
},
{
layerId = "54FF0D0B-6EB9-4889-908D-B8898FFCE7DE";
shapes = (
{
closed = 1;
nodes = (
(337,745,l),
(246,745,l),
(16,-106,l),
(107,-106,l)
);
}
);
userData = {
com.hugojourdan.ColorFlow = {
"0" = 0;
"1" = 0;
"10" = 0;
"11" = 0;
"2" = 0;
"3" = 0;
"4" = 0;
"5" = 0;
"6" = 0;
"7" = 0;
"8" = 0;
"9" = 0;
};
};
width = 353;
},
{
layerId = "E7059794-B319-4C6D-9648-9B840A1B2BBD";
shapes = (
{
closed = 1;
nodes = (
(360,745,l),
(243,745,l),
(14,-106,l),
(131,-106,l)
);
}
);
userData = {
com.hugojourdan.ColorFlow = {
"0" = 0;
"1" = 0;
"10" = 0;
"11" = 0;
"2" = 0;
"3" = 0;
"4" = 0;
"5" = 0;
"6" = 0;
"7" = 0;
"8" = 0;
"9" = 0;
};
};
width = 374;
},
{
layerId = m005;
shapes = (
{
closed = 1;
nodes = (
(368,745,l),
(242,745,l),
(13,-106,l),
(139,-106,l)
);
}
);
userData = {
com.hugojourdan.ColorFlow = {
"0" = 0;
"1" = 0;
"10" = 0;
"11" = 0;
"2" = 0;
"3" = 0;
"4" = 0;
"5" = 0;
"6" = 0;
"7" = 0;
"8" = 0;
"9" = 0;
};
};
width = 381;
},
{
layerId = "1E3F0FE2-7EB2-4B39-B562-A9E797F546FD";
shapes = (
{
closed = 1;
nodes = (
(349,745,l),
(245,745,l),
(15,-106,l),
(119,-106,l)
);
}
);
width = 364;
}
);
unicode = 47;
}
{
color = 0;
glyphname = zero;
kernRight = KO_zero;
layers = (
{
layerId = m003;
shapes = (
{
closed = 1;
nodes = (
(470,-10,o),
(543,107,o),
(543,354,cs),
(543,601,o),
(469,717,o),
(296,717,cs),
(124,717,o),
(50,601,o),
(50,354,cs),
(50,106,o),
(121,-10,o),
(296,-10,cs)
);
},
{
closed = 1;
nodes = (
(160,42,o),
(109,143,o),
(109,354,cs),
(109,564,o),
(161,665,o),
(296,665,cs),
(432,665,o),
(484,564,o),
(484,354,cs),
(484,143,o),
(432,42,o),
(296,42,cs)
);
}
);
userData = {
com.hugojourdan.ColorFlow = {
"0" = 0;
"1" = 0;
"10" = 0;
"11" = 0;
"2" = 0;
"3" = 0;
"4" = 0;
"5" = 0;
"6" = 0;
"7" = 0;
"8" = 0;
"9" = 0;
};
};
width = 593;
},
{
layerId = m01;
shapes = (
{
closed = 1;
nodes = (
(480,-10,o),
(554,113,o),
(554,354,cs),
(554,594,o),
(479,717,o),
(301,717,cs),
(124,717,o),
(49,594,o),
(49,354,cs),
(49,113,o),
(121,-10,o),
(301,-10,cs)
);
},
{
closed = 1;
nodes = (
(180,64,o),
(133,153,o),
(133,354,cs),
(133,554,o),
(181,643,o),
(301,643,cs),
(422,643,o),
(470,554,o),
(470,354,cs),
(470,153,o),
(422,64,o),
(301,64,cs)
);
}
);
userData = {
com.hugojourdan.ColorFlow = {
"0" = 0;
"1" = 0;
"10" = 0;
"11" = 0;
"2" = 0;
"3" = 0;
"4" = 0;
"5" = 0;
"6" = 0;
"7" = 0;
"8" = 0;
"9" = 0;
};
};
width = 603;
},
{
layerId = "54FF0D0B-6EB9-4889-908D-B8898FFCE7DE";
shapes = (
{
closed = 1;
nodes = (
(486,-10,o),
(562,116,o),
(562,354,cs),
(562,591,o),
(485,717,o),
(304,717,cs),
(125,717,o),
(47,591,o),
(47,354,cs),
(47,117,o),
(121,-10,o),
(304,-10,cs)
);
},
{
closed = 1;
nodes = (
(191,75,o),
(146,158,o),
(146,354,cs),
(146,550,o),
(192,633,o),
(304,633,cs),
(418,633,o),
(464,550,o),
(464,354,cs),
(464,158,o),
(418,75,o),
(304,75,cs)
);
}
);
userData = {
com.hugojourdan.ColorFlow = {
"0" = 0;
"1" = 0;
"10" = 0;
"11" = 0;
"2" = 0;
"3" = 0;
"4" = 0;
"5" = 0;
"6" = 0;
"7" = 0;
"8" = 0;
"9" = 0;
};
};
width = 609;
},
{
layerId = "E7059794-B319-4C6D-9648-9B840A1B2BBD";
shapes = (
{
closed = 1;
nodes = (
(493,-10,o),
(571,122,o),
(571,354,cs),
(571,585,o),
(492,717,o),
(307,717,cs),
(122,717,o),
(43,585,o),
(43,354,cs),
(43,124,o),
(118,-10,o),
(307,-10,cs)
);
},
{
closed = 1;
nodes = (
(208,95,o),
(167,168,o),
(167,354,cs),
(167,540,o),
(209,613,o),
(307,613,cs),
(405,613,o),
(447,540,o),
(447,354,cs),
(447,168,o),
(405,95,o),
(307,95,cs)
);
}
);
userData = {
com.hugojourdan.ColorFlow = {
"0" = 0;
"1" = 0;
"10" = 0;
"11" = 0;
"2" = 0;
"3" = 0;
"4" = 0;
"5" = 0;
"6" = 0;
"7" = 0;
"8" = 0;
"9" = 0;
};
};
width = 614;
},
{
layerId = m005;
shapes = (
{
closed = 1;
nodes = (
(495,-10,o),
(571,125,o),
(571,354,cs),
(571,581,o),
(494,717,o),
(306,717,cs),
(119,717,o),
(42,581,o),
(42,354,cs),
(42,127,o),
(115,-10,o),
(306,-10,cs)
);
},
{
closed = 1;
nodes = (
(215,105,o),
(176,173,o),
(176,354,cs),
(176,535,o),
(216,602,o),
(306,602,cs),
(397,602,o),
(437,535,o),
(437,354,cs),
(437,173,o),
(397,105,o),
(306,105,cs)
);
}
);
userData = {
com.hugojourdan.ColorFlow = {
"0" = 0;
"1" = 0;
"10" = 0;
"11" = 0;
"2" = 0;
"3" = 0;
"4" = 0;
"5" = 0;
"6" = 0;
"7" = 0;
"8" = 0;
"9" = 0;
};
};
width = 613;
},
{
layerId = "1E3F0FE2-7EB2-4B39-B562-A9E797F546FD";
shapes = (
{
closed = 1;
nodes = (
(490,-10,o),
(567,119,o),
(567,354,cs),
(567,588,o),
(489,717,o),
(306,717,cs),
(124,717,o),
(45,588,o),
(45,354,cs),
(45,121,o),
(120,-10,o),
(306,-10,cs)
);
},
{
closed = 1;
nodes = (
(200,85,o),
(157,163,o),
(157,354,cs),
(157,545,o),
(201,623,o),
(306,623,cs),
(412,623,o),
(456,545,o),
(456,354,cs),
(456,163,o),
(412,85,o),
(306,85,cs)
);
}
);
width = 612;
}
);
note = cid13001;
unicode = 48;
}
{
color = 0;
glyphname = one;
layers = (
{
layerId = m003;
shapes = (
{
closed = 1;
nodes = (
(300,707,l),
(233,707,l),
(60,589,l),
(60,526,l),
(261,662,l),
(240,667,l),
(240,0,l),
(300,0,l)
);
}
);
userData = {
com.hugojourdan.ColorFlow = {
"0" = 0;
"1" = 0;
"10" = 0;
"11" = 0;
"2" = 0;
"3" = 0;
"4" = 0;
"5" = 0;
"6" = 0;
"7" = 0;
"8" = 0;
"9" = 0;
};
};
width = 488;
},
{
layerId = m01;
shapes = (
{
closed = 1;
nodes = (
(313,707,l),
(228,707,l),
(52,589,l),
(52,503,l),
(265,644,l),
(229,657,l),
(229,0,l),
(313,0,l)
);
}
);
userData = {
com.hugojourdan.ColorFlow = {
"0" = 0;
"1" = 0;
"10" = 0;
"11" = 0;
"2" = 0;
"3" = 0;
"4" = 0;
"5" = 0;
"6" = 0;
"7" = 0;
"8" = 0;
"9" = 0;
};
};
width = 488;
},
{
layerId = "54FF0D0B-6EB9-4889-908D-B8898FFCE7DE";
shapes = (
{
closed = 1;
nodes = (
(321,707,l),
(226,707,l),
(49,589,l),
(49,491,l),
(280,644,l),
(223,652,l),
(223,0,l),
(321,0,l)
);
}
);
userData = {
com.hugojourdan.ColorFlow = {
"0" = 0;
"1" = 0;
"10" = 0;
"11" = 0;
"2" = 0;
"3" = 0;
"4" = 0;
"5" = 0;
"6" = 0;
"7" = 0;
"8" = 0;
"9" = 0;
};
};
width = 488;
},
{
layerId = "E7059794-B319-4C6D-9648-9B840A1B2BBD";
shapes = (
{
closed = 1;
nodes = (
(335,707,l),
(222,707,l),
(41,589,l),
(41,465,l),
(310,642,l),
(210,642,l),
(210,0,l),
(335,0,l)
);
}
);
userData = {
com.hugojourdan.ColorFlow = {
"0" = 0;
"1" = 0;
"10" = 0;
"11" = 0;
"2" = 0;
"3" = 0;
"4" = 0;
"5" = 0;
"6" = 0;
"7" = 0;
"8" = 0;
"9" = 0;
};
};
width = 488;
},
{
layerId = m005;
shapes = (
{
closed = 1;
nodes = (
(340,707,l),
(219,707,l),
(37,589,l),
(37,451,l),
(325,640,l),
(203,637,l),
(203,0,l),
(340,0,l)
);
}
);
userData = {
com.hugojourdan.ColorFlow = {
"0" = 0;
"1" = 0;
"10" = 0;
"11" = 0;
"2" = 0;
"3" = 0;
"4" = 0;
"5" = 0;
"6" = 0;
"7" = 0;
"8" = 0;
"9" = 0;
};
};
width = 488;
},
{
layerId = "1E3F0FE2-7EB2-4B39-B562-A9E797F546FD";
shapes = (
{
closed = 1;
nodes = (
(328,707,l),
(224,707,l),
(45,589,l),
(45,478,l),
(295,643,l),
(217,647,l),
(217,0,l),
(328,0,l)
);
}
);
width = 488;
}
);
note = cid13002;
unicode = 49;
}
{
color = 0;
glyphname = three;
layers = (
{
layerId = m003;
shapes = (
{
closed = 1;
nodes = (
(442,-10,o),
(534,67,o),
(534,207,cs),
(534,302,o),
(483,423,o),
(286,421,c),
(286,406,l),
(517,659,l),
(517,707,l),
(94,707,l),
(94,655,l),
(465,655,l),
(460,678,l),
(219,413,l),
(220,370,l),
(298,370,ls),
(408,370,o),
(474,310,o),
(474,207,cs),
(474,100,o),
(404,42,o),
(300,42,cs),
(199,42,o),
(134,89,o),
(130,183,c),
(65,183,l),
(72,53,o),
(160,-10,o),
(299,-10,cs)
);
}
);
userData = {
com.hugojourdan.ColorFlow = {
"0" = 0;
"1" = 0;
"10" = 0;
"11" = 0;
"2" = 0;
"3" = 0;
"4" = 0;
"5" = 0;
"6" = 0;
"7" = 0;
"8" = 0;
"9" = 0;
};
};
width = 595;
},
{
layerId = m01;
shapes = (
{
closed = 1;
nodes = (
(453,-10,o),
(547,71,o),
(547,212,cs),
(547,312,o),
(491,431,o),
(300,431,c),
(302,401,l),
(532,643,l),
(532,707,l),
(94,707,l),
(94,633,l),
(461,633,l),
(453,670,l),
(217,419,l),
(218,355,l),
(305,355,ls),
(405,355,o),
(463,306,o),
(463,212,cs),
(463,114,o),
(405,64,o),
(307,64,cs),
(208,64,o),
(158,105,o),
(153,188,c),
(64,188,l),
(69,61,o),
(158,-10,o),
(306,-10,cs)
);
}
);
userData = {
com.hugojourdan.ColorFlow = {
"0" = 0;
"1" = 0;
"10" = 0;
"11" = 0;
"2" = 0;
"3" = 0;
"4" = 0;
"5" = 0;
"6" = 0;
"7" = 0;
"8" = 0;
"9" = 0;
};
};
width = 607;
},
{
layerId = "54FF0D0B-6EB9-4889-908D-B8898FFCE7DE";
shapes = (
{
closed = 1;
nodes = (
(457,-10,o),
(555,74,o),
(555,215,cs),
(555,321,o),
(493,437,o),
(295,434,c),
(299,388,l),
(537,637,l),
(537,707,l),
(92,707,l),
(92,624,l),
(466,624,l),
(459,677,l),
(214,421,l),
(214,350,l),
(307,350,ls),
(401,350,o),
(456,304,o),
(456,215,cs),
(456,121,o),
(403,73,o),
(309,73,cs),
(211,73,o),
(168,114,o),
(163,191,c),
(61,191,l),
(65,66,o),
(155,-10,o),
(308,-10,cs)
);
}
);
userData = {
com.hugojourdan.ColorFlow = {
"0" = 0;
"1" = 0;
"10" = 0;
"11" = 0;
"2" = 0;
"3" = 0;
"4" = 0;
"5" = 0;
"6" = 0;
"7" = 0;
"8" = 0;
"9" = 0;
};
};
width = 611;
},
{
layerId = "E7059794-B319-4C6D-9648-9B840A1B2BBD";
shapes = (
{
closed = 1;
nodes = (
(463,-10,o),
(565,78,o),
(565,220,cs),
(565,337,o),
(496,447,o),
(285,439,c),
(289,362,l),
(548,623,l),
(547,707,l),
(87,707,l),
(87,604,l),
(474,604,l),
(471,691,l),
(206,423,l),
(206,340,l),
(309,340,ls),
(393,340,o),
(442,300,o),
(442,220,cs),
(442,135,o),
(399,94,o),
(311,94,cs),
(215,94,o),
(187,130,o),
(181,196,c),
(55,196,l),
(57,74,o),
(148,-10,o),
(310,-10,cs)
);
}
);
userData = {
com.hugojourdan.ColorFlow = {
"0" = 0;
"1" = 0;
"10" = 0;
"11" = 0;
"2" = 0;
"3" = 0;
"4" = 0;
"5" = 0;
"6" = 0;
"7" = 0;
"8" = 0;
"9" = 0;
};
};
width = 616;
},
{
layerId = m005;
shapes = (
{
closed = 1;
nodes = (
(466,-10,o),
(568,80,o),
(568,222,cs),
(568,345,o),
(497,452,o),
(279,441,c),
(281,348,l),
(553,614,l),
(552,707,l),
(84,707,l),
(84,592,l),
(478,592,l),
(478,698,l),
(202,424,l),
(202,335,l),
(310,335,ls),
(389,335,o),
(434,298,o),
(434,222,cs),
(434,142,o),
(397,105,o),
(312,105,cs),
(217,105,o),
(196,138,o),
(190,198,c),
(52,198,l),
(53,78,o),
(144,-10,o),
(311,-10,cs)
);
}
);
userData = {
com.hugojourdan.ColorFlow = {
"0" = 0;
"1" = 0;
"10" = 0;
"11" = 0;
"2" = 0;
"3" = 0;
"4" = 0;
"5" = 0;
"6" = 0;
"7" = 0;
"8" = 0;
"9" = 0;
};
};
width = 618;
},
{
layerId = "1E3F0FE2-7EB2-4B39-B562-A9E797F546FD";
shapes = (
{
closed = 1;
nodes = (
(460,-10,o),
(560,76,o),
(560,218,cs),
(560,329,o),
(494,442,o),
(290,437,c),
(294,375,l),
(543,630,l),
(542,707,l),
(90,707,l),
(90,614,l),
(470,614,l),
(465,684,l),
(210,422,l),
(210,345,l),
(308,345,ls),
(397,345,o),
(449,302,o),
(449,218,cs),
(449,128,o),
(401,84,o),
(310,84,cs),
(213,84,o),
(178,121,o),
(172,194,c),
(58,194,l),
(61,70,o),
(152,-10,o),
(309,-10,cs)
);
}
);
width = 614;
}
);
note = cid13004;
unicode = 51;
}
{
color = 0;
glyphname = four;
layers = (
{
layerId = m003;
shapes = (
{
closed = 1;
nodes = (
(410,675,l),
(410,0,l),
(469,0,l),
(469,707,l),
(393,707,l),
(43,208,l),
(43,158,l),
(568,158,l),
(568,210,l),
(78,210,l),
(91,181,l),
(431,668,l)
);
}
);
userData = {
com.hugojourdan.ColorFlow = {
"0" = 0;
"1" = 0;
"10" = 0;
"11" = 0;
"2" = 0;
"3" = 0;
"4" = 0;
"5" = 0;
"6" = 0;
"7" = 0;
"8" = 0;
"9" = 0;
};
};
width = 610;
},
{
layerId = m01;
shapes = (
{
closed = 1;
nodes = (
(396,641,l),
(396,0,l),
(480,0,l),
(480,707,l),
(384,707,l),
(39,212,l),
(39,148,l),
(579,148,l),
(579,222,l),
(96,222,l),
(109,186,l),
(421,634,l)
);
}
);
userData = {
com.hugojourdan.ColorFlow = {
"0" = 0;
"1" = 0;
"10" = 0;
"11" = 0;
"2" = 0;
"3" = 0;
"4" = 0;
"5" = 0;
"6" = 0;
"7" = 0;
"8" = 0;
"9" = 0;
};
};
width = 617;
},
{
layerId = "54FF0D0B-6EB9-4889-908D-B8898FFCE7DE";
shapes = (
{
closed = 1;
nodes = (
(388,624,l),
(388,0,l),
(485,0,l),
(485,707,l),
(379,707,l),
(36,213,l),
(36,143,l),
(584,143,l),
(584,226,l),
(105,226,l),
(122,189,l),
(417,616,l)
);
}
);
userData = {
com.hugojourdan.ColorFlow = {
"0" = 0;
"1" = 0;
"10" = 0;
"11" = 0;
"2" = 0;
"3" = 0;
"4" = 0;
"5" = 0;
"6" = 0;
"7" = 0;
"8" = 0;
"9" = 0;
};
};
width = 618;
},
{
layerId = "E7059794-B319-4C6D-9648-9B840A1B2BBD";
shapes = (
{
closed = 1;
nodes = (
(373,590,l),
(373,0,l),
(495,0,l),
(495,707,l),
(369,707,l),
(31,215,l),
(31,133,l),
(594,133,l),
(594,236,l),
(122,236,l),
(145,195,l),
(410,581,l)
);
}
);
userData = {
com.hugojourdan.ColorFlow = {
"0" = 0;
"1" = 0;
"10" = 0;
"11" = 0;
"2" = 0;
"3" = 0;
"4" = 0;
"5" = 0;
"6" = 0;
"7" = 0;
"8" = 0;
"9" = 0;
};
};
width = 622;
},
{
layerId = m005;
shapes = (
{
closed = 1;
nodes = (
(366,573,l),
(366,0,l),
(500,0,l),
(500,707,l),
(364,707,l),
(29,217,l),
(29,128,l),
(599,128,l),
(599,242,l),
(131,242,l),
(156,197,l),
(406,563,l)
);
}
);
userData = {
com.hugojourdan.ColorFlow = {
"0" = 0;
"1" = 0;
"10" = 0;
"11" = 0;
"2" = 0;
"3" = 0;
"4" = 0;
"5" = 0;
"6" = 0;
"7" = 0;
"8" = 0;
"9" = 0;
};
};
width = 625;
},
{
layerId = "1E3F0FE2-7EB2-4B39-B562-A9E797F546FD";
shapes = (
{
closed = 1;
nodes = (
(381,607,l),
(381,0,l),
(490,0,l),
(490,707,l),
(374,707,l),
(34,214,l),
(34,138,l),
(589,138,l),
(589,231,l),
(114,231,l),
(134,192,l),
(414,599,l)
);
}
);
width = 620;
}
);
unicode = 52;
}
{
color = 0;
glyphname = five;
layers = (
{
layerId = m003;
shapes = (
{
closed = 1;
nodes = (
(442,-10,o),
(529,84,o),
(529,216,cs),
(529,343,o),
(449,441,o),
(296,441,cs),
(233,441,o),
(179,417,o),
(153,374,c),
(150,374,l),
(183,655,l),
(495,655,l),
(495,707,l),
(131,707,l),
(84,312,l),
(147,312,l),
(177,361,o),
(229,390,o),
(301,389,cs),
(424,388,o),
(470,311,o),
(470,214,cs),
(470,116,o),
(416,42,o),
(298,42,cs),
(198,42,o),
(136,86,o),
(131,173,c),
(70,173,l),
(78,56,o),
(161,-10,o),
(298,-10,cs)
);
}
);
userData = {
com.hugojourdan.ColorFlow = {
"0" = 0;
"1" = 0;
"10" = 0;
"11" = 0;
"2" = 0;
"3" = 0;
"4" = 0;
"5" = 0;
"6" = 0;
"7" = 0;
"8" = 0;
"9" = 0;
};
};
width = 588;
},
{
layerId = m01;
shapes = (
{
closed = 1;
nodes = (
(450,-10,o),
(541,84,o),
(541,218,cs),
(541,350,o),
(456,445,o),
(312,445,cs),
(237,445,o),
(179,414,o),
(143,361,c),
(168,357,l),
(200,633,l),
(507,633,l),
(507,707,l),
(129,707,l),
(79,302,l),
(164,302,l),
(191,348,o),
(239,372,o),
(305,371,cs),
(409,370,o),
(457,306,o),
(457,216,cs),
(457,126,o),
(401,64,o),
(302,64,cs),
(208,64,o),
(157,102,o),
(152,178,c),
(67,178,l),
(72,63,o),
(159,-10,o),
(302,-10,cs)
);
}
);
userData = {
com.hugojourdan.ColorFlow = {
"0" = 0;
"1" = 0;
"10" = 0;
"11" = 0;
"2" = 0;
"3" = 0;
"4" = 0;
"5" = 0;
"6" = 0;
"7" = 0;
"8" = 0;
"9" = 0;
};
};
width = 597;
},
{
layerId = "54FF0D0B-6EB9-4889-908D-B8898FFCE7DE";
shapes = (
{
closed = 1;
nodes = (
(453,-10,o),
(548,85,o),
(548,220,cs),
(548,354,o),
(458,447,o),
(319,447,cs),
(238,447,o),
(178,412,o),
(136,353,c),
(177,349,l),
(210,624,l),
(512,624,l),
(512,707,l),
(127,707,l),
(76,297,l),
(172,297,l),
(197,342,o),
(243,365,o),
(306,364,cs),
(406,363,o),
(450,304,o),
(450,218,cs),
(450,132,o),
(398,73,o),
(303,73,cs),
(212,73,o),
(166,110,o),
(162,181,c),
(64,181,l),
(68,67,o),
(157,-10,o),
(303,-10,cs)
);
}
);
userData = {
com.hugojourdan.ColorFlow = {
"0" = 0;
"1" = 0;
"10" = 0;
"11" = 0;
"2" = 0;
"3" = 0;
"4" = 0;
"5" = 0;
"6" = 0;
"7" = 0;
"8" = 0;
"9" = 0;
};
};
width = 601;
},
{
layerId = "E7059794-B319-4C6D-9648-9B840A1B2BBD";
shapes = (
{
closed = 1;
nodes = (
(460,-10,o),
(559,85,o),
(559,222,cs),
(559,361,o),
(464,451,o),
(333,451,cs),
(241,451,o),
(177,406,o),
(123,336,c),
(197,332,l),
(231,604,l),
(522,604,l),
(522,707,l),
(123,707,l),
(70,287,l),
(188,287,l),
(210,329,o),
(252,350,o),
(309,349,cs),
(400,348,o),
(436,299,o),
(436,220,cs),
(436,142,o),
(392,94,o),
(306,94,cs),
(221,94,o),
(186,126,o),
(182,186,c),
(60,186,l),
(61,75,o),
(154,-10,o),
(306,-10,cs)
);
}
);
userData = {
com.hugojourdan.ColorFlow = {
"0" = 0;
"1" = 0;
"10" = 0;
"11" = 0;
"2" = 0;
"3" = 0;
"4" = 0;
"5" = 0;
"6" = 0;
"7" = 0;
"8" = 0;
"9" = 0;
};
};
width = 608;
},
{
layerId = m005;
shapes = (
{
closed = 1;
nodes = (
(464,-10,o),
(563,85,o),
(563,223,cs),
(563,364,o),
(467,453,o),
(341,453,cs),
(243,453,o),
(177,403,o),
(117,327,c),
(207,323,l),
(241,592,l),
(528,592,l),
(528,707,l),
(122,707,l),
(67,282,l),
(196,282,l),
(217,322,o),
(257,342,o),
(311,341,cs),
(397,340,o),
(429,296,o),
(429,221,cs),
(429,147,o),
(389,105,o),
(308,105,cs),
(226,105,o),
(196,134,o),
(192,188,c),
(58,188,l),
(58,78,o),
(153,-10,o),
(308,-10,cs)
);
}
);
userData = {
com.hugojourdan.ColorFlow = {
"0" = 0;
"1" = 0;
"10" = 0;
"11" = 0;
"2" = 0;
"3" = 0;
"4" = 0;
"5" = 0;
"6" = 0;
"7" = 0;
"8" = 0;
"9" = 0;
};
};
width = 611;
},
{
layerId = "1E3F0FE2-7EB2-4B39-B562-A9E797F546FD";
shapes = (
{
closed = 1;
nodes = (
(457,-10,o),
(554,85,o),
(554,221,cs),
(554,358,o),
(461,449,o),
(326,449,cs),
(240,449,o),
(177,408,o),
(130,345,c),
(187,341,l),
(221,614,l),
(517,614,l),
(517,707,l),
(125,707,l),
(73,292,l),
(180,292,l),
(204,336,o),
(248,358,o),
(308,357,cs),
(403,356,o),
(443,302,o),
(443,219,cs),
(443,137,o),
(395,84,o),
(305,84,cs),
(217,84,o),
(176,118,o),
(172,184,c),
(62,184,l),
(65,70,o),
(156,-10,o),
(305,-10,cs)
);
}
);
width = 605;
}
);
note = cid13006;
unicode = 53;
}
{
color = 0;
glyphname = seven;
kernRight = KO_seven;
layers = (
{
layerId = m003;
shapes = (
{
closed = 1;
nodes = (
(97,0,l),
(162,0,l),
(491,660,l),
(491,707,l),
(41,707,l),
(41,655,l),
(456,655,l),
(441,683,l)
);
}
);
userData = {
com.hugojourdan.ColorFlow = {
"0" = 0;
"1" = 0;
"10" = 0;
"11" = 0;
"2" = 0;
"3" = 0;
"4" = 0;
"5" = 0;
"6" = 0;
"7" = 0;
"8" = 0;
"9" = 0;
};
};
width = 521;
},
{
layerId = m01;
shapes = (
{
closed = 1;
nodes = (
(89,0,l),
(181,0,l),
(504,643,l),
(504,707,l),
(39,707,l),
(39,633,l),
(440,633,l),
(432,676,l)
);
}
);
userData = {
com.hugojourdan.ColorFlow = {
"0" = 0;
"1" = 0;
"10" = 0;
"11" = 0;
"2" = 0;
"3" = 0;
"4" = 0;
"5" = 0;
"6" = 0;
"7" = 0;
"8" = 0;
"9" = 0;
};
};
width = 532;
},
{
layerId = "54FF0D0B-6EB9-4889-908D-B8898FFCE7DE";
shapes = (
{
closed = 1;
nodes = (
(84,0,l),
(190,0,l),
(510,636,l),
(510,707,l),
(37,707,l),
(37,624,l),
(446,624,l),
(426,673,l)
);
}
);
userData = {
com.hugojourdan.ColorFlow = {
"0" = 0;
"1" = 0;
"10" = 0;
"11" = 0;
"2" = 0;
"3" = 0;
"4" = 0;
"5" = 0;
"6" = 0;
"7" = 0;
"8" = 0;
"9" = 0;
};
};
width = 536;
},
{
layerId = "E7059794-B319-4C6D-9648-9B840A1B2BBD";
shapes = (
{
closed = 1;
nodes = (
(75,0,l),
(207,0,l),
(521,620,l),
(521,707,l),
(34,707,l),
(34,604,l),
(459,604,l),
(415,666,l)
);
}
);
userData = {
com.hugojourdan.ColorFlow = {
"0" = 0;
"1" = 0;
"10" = 0;
"11" = 0;
"2" = 0;
"3" = 0;
"4" = 0;
"5" = 0;
"6" = 0;
"7" = 0;
"8" = 0;
"9" = 0;
};
};
width = 544;
},
{
layerId = m005;
shapes = (
{
closed = 1;
nodes = (
(70,0,l),
(216,0,l),
(527,611,l),
(527,707,l),
(32,707,l),
(32,592,l),
(465,592,l),
(410,662,l)
);
}
);
userData = {
com.hugojourdan.ColorFlow = {
"0" = 0;
"1" = 0;
"10" = 0;
"11" = 0;
"2" = 0;
"3" = 0;
"4" = 0;
"5" = 0;
"6" = 0;
"7" = 0;
"8" = 0;
"9" = 0;
};
};
width = 549;
},
{
layerId = "1E3F0FE2-7EB2-4B39-B562-A9E797F546FD";
shapes = (
{
closed = 1;
nodes = (
(80,0,l),
(199,0,l),
(516,628,l),
(516,707,l),
(36,707,l),
(36,614,l),
(453,614,l),
(421,670,l)
);
}
);
width = 540;
}
);
note = cid13008;
unicode = 55;
}
{
color = 0;
glyphname = eight;
kernRight = KO_eight;
layers = (
{
layerId = m003;
shapes = (
{
closed = 1;
nodes = (
(462,-10,o),
(537,62,o),
(538,183,cs),
(538,280,o),
(477,353,o),
(393,367,c),
(393,371,l),
(466,389,o),
(508,452,o),
(509,534,cs),
(510,640,o),
(440,717,o),
(294,717,cs),
(147,717,o),
(77,640,o),
(77,534,cs),
(77,451,o),
(120,389,o),
(193,371,c),
(193,367,l),
(108,353,o),
(51,280,o),
(50,183,cs),
(50,62,o),
(124,-10,o),
(294,-10,cs)
);
},
{
closed = 1;
nodes = (
(166,42,o),
(108,99,o),
(108,191,cs),
(108,282,o),
(173,339,o),
(294,339,cs),
(414,339,o),
(480,282,o),
(480,191,cs),
(480,99,o),
(422,42,o),
(294,42,cs)
);
},
{
closed = 1;
nodes = (
(189,391,o),
(135,443,o),
(135,527,cs),
(135,612,o),
(186,665,o),
(294,665,cs),
(400,665,o),
(453,612,o),
(453,527,cs),
(453,443,o),
(398,391,o),
(294,391,cs)
);
}
);
userData = {
com.hugojourdan.ColorFlow = {
"0" = 0;
"1" = 0;
"10" = 0;
"11" = 0;
"2" = 0;
"3" = 0;
"4" = 0;
"5" = 0;
"6" = 0;
"7" = 0;
"8" = 0;
"9" = 0;
};
};
width = 588;
},
{
layerId = m01;
shapes = (
{
closed = 1;
nodes = (
(470,-10,o),
(552,67,o),
(552,188,cs),
(552,284,o),
(487,354,o),
(407,367,c),
(407,371,l),
(476,388,o),
(524,447,o),
(524,529,cs),
(524,643,o),
(449,717,o),
(300,717,cs),
(151,717,o),
(76,643,o),
(76,529,cs),
(76,447,o),
(122,388,o),
(192,371,c),
(192,367,l),
(111,354,o),
(49,284,o),
(49,188,cs),
(49,67,o),
(128,-10,o),
(300,-10,cs)
);
},
{
closed = 1;
nodes = (
(183,64,o),
(133,113,o),
(133,196,cs),
(133,279,o),
(190,328,o),
(300,328,cs),
(409,328,o),
(468,279,o),
(468,196,cs),
(468,113,o),
(417,64,o),
(300,64,cs)
);
},
{
closed = 1;
nodes = (
(206,402,o),
(159,446,o),
(159,522,cs),
(159,598,o),
(203,643,o),
(300,643,cs),
(395,643,o),
(441,598,o),
(441,522,cs),
(441,446,o),
(393,402,o),
(300,402,cs)
);
}
);
userData = {
com.hugojourdan.ColorFlow = {
"0" = 0;
"1" = 0;
"10" = 0;
"11" = 0;
"2" = 0;
"3" = 0;
"4" = 0;
"5" = 0;
"6" = 0;
"7" = 0;
"8" = 0;
"9" = 0;
};
};
width = 601;
},
{
layerId = "54FF0D0B-6EB9-4889-908D-B8898FFCE7DE";
shapes = (
{
closed = 1;
nodes = (
(474,-10,o),
(558,70,o),
(558,191,cs),
(558,287,o),
(491,355,o),
(413,368,c),
(413,371,l),
(481,388,o),
(531,445,o),
(531,527,cs),
(531,641,o),
(453,717,o),
(303,717,cs),
(152,717,o),
(75,641,o),
(75,527,cs),
(75,445,o),
(122,388,o),
(191,371,c),
(191,368,l),
(112,355,o),
(48,287,o),
(48,191,cs),
(48,70,o),
(129,-10,o),
(303,-10,cs)
);
},
{
closed = 1;
nodes = (
(191,73,o),
(145,120,o),
(145,199,cs),
(145,278,o),
(198,325,o),
(303,325,cs),
(406,325,o),
(461,278,o),
(461,199,cs),
(461,120,o),
(414,73,o),
(303,73,cs)
);
},
{
closed = 1;
nodes = (
(214,406,o),
(171,448,o),
(171,520,cs),
(171,592,o),
(211,634,o),
(303,634,cs),
(392,634,o),
(435,592,o),
(435,520,cs),
(435,448,o),
(390,406,o),
(303,406,cs)
);
}
);
userData = {
com.hugojourdan.ColorFlow = {
"0" = 0;
"1" = 0;
"10" = 0;
"11" = 0;
"2" = 0;
"3" = 0;
"4" = 0;
"5" = 0;
"6" = 0;
"7" = 0;
"8" = 0;
"9" = 0;
};
};
width = 606;
},
{
layerId = "E7059794-B319-4C6D-9648-9B840A1B2BBD";
shapes = (
{
closed = 1;
nodes = (
(481,-10,o),
(571,75,o),
(571,196,cs),
(570,291,o),
(500,357,o),
(426,368,c),
(426,371,l),
(490,388,o),
(544,441,o),
(544,522,cs),
(543,636,o),
(461,717,o),
(308,717,cs),
(155,717,o),
(73,636,o),
(73,522,cs),
(73,441,o),
(123,388,o),
(189,371,c),
(189,368,l),
(114,357,o),
(45,291,o),
(46,196,cs),
(47,75,o),
(132,-10,o),
(308,-10,cs)
);
},
{
closed = 1;
nodes = (
(207,93,o),
(169,134,o),
(169,205,cs),
(169,275,o),
(215,316,o),
(308,316,cs),
(401,316,o),
(448,275,o),
(448,205,cs),
(448,134,o),
(409,93,o),
(308,93,cs)
);
},
{
closed = 1;
nodes = (
(231,415,o),
(194,452,o),
(194,515,cs),
(194,578,o),
(228,614,o),
(308,614,cs),
(387,614,o),
(422,578,o),
(422,515,cs),
(422,452,o),
(385,415,o),
(308,415,cs)
);
}
);
userData = {
com.hugojourdan.ColorFlow = {
"0" = 0;
"1" = 0;
"10" = 0;
"11" = 0;
"2" = 0;
"3" = 0;
"4" = 0;
"5" = 0;
"6" = 0;
"7" = 0;
"8" = 0;
"9" = 0;
};
};
width = 616;
},
{
layerId = m005;
shapes = (
{
closed = 1;
nodes = (
(485,-10,o),
(578,77,o),
(577,198,cs),
(576,293,o),
(505,357,o),
(433,368,c),
(433,371,l),
(495,387,o),
(550,438,o),
(550,519,cs),
(549,633,o),
(465,717,o),
(311,717,cs),
(157,717,o),
(72,633,o),
(72,519,cs),
(72,439,o),
(124,387,o),
(188,371,c),
(188,368,l),
(115,357,o),
(44,293,o),
(45,198,cs),
(46,77,o),
(134,-10,o),
(311,-10,cs)
);
},
{
closed = 1;
nodes = (
(215,104,o),
(181,141,o),
(181,207,cs),
(181,273,o),
(223,310,o),
(311,310,cs),
(398,310,o),
(441,273,o),
(441,207,cs),
(441,141,o),
(406,104,o),
(311,104,cs)
);
},
{
closed = 1;
nodes = (
(239,420,o),
(206,453,o),
(206,512,cs),
(206,571,o),
(236,603,o),
(311,603,cs),
(384,603,o),
(416,571,o),
(416,512,cs),
(416,453,o),
(382,420,o),
(311,420,cs)
);
}
);
userData = {
com.hugojourdan.ColorFlow = {
"0" = 0;
"1" = 0;
"10" = 0;
"11" = 0;
"2" = 0;
"3" = 0;
"4" = 0;
"5" = 0;
"6" = 0;
"7" = 0;
"8" = 0;
"9" = 0;
};
};
width = 622;
},
{
layerId = "1E3F0FE2-7EB2-4B39-B562-A9E797F546FD";
shapes = (
{
closed = 1;
nodes = (
(478,-10,o),
(565,73,o),
(565,194,cs),
(564,290,o),
(496,356,o),
(420,368,c),
(420,371,l),
(486,388,o),
(538,443,o),
(538,525,cs),
(537,639,o),
(457,717,o),
(306,717,cs),
(154,717,o),
(74,639,o),
(74,525,cs),
(74,443,o),
(123,388,o),
(190,371,c),
(190,368,l),
(113,356,o),
(47,288,o),
(47,194,cs),
(48,72,o),
(131,-10,o),
(306,-10,cs)
);
},
{
closed = 1;
nodes = (
(199,83,o),
(157,127,o),
(157,202,cs),
(157,277,o),
(207,321,o),
(306,321,cs),
(404,321,o),
(455,277,o),
(455,202,cs),
(455,127,o),
(412,83,o),
(306,83,cs)
);
},
{
closed = 1;
nodes = (
(223,411,o),
(183,450,o),
(183,518,cs),
(183,585,o),
(220,624,o),
(306,624,cs),
(390,624,o),
(429,585,o),
(429,518,cs),
(429,450,o),
(388,411,o),
(306,411,cs)
);
}
);
width = 611;
}
);
note = cid13009;
unicode = 56;
}
{
color = 0;
glyphname = colon;
layers = (
{
layerId = m003;
shapes = (
{
closed = 1;
nodes = (
(90,476,l),
(179,476,l),
(179,569,l),
(90,569,l)
);
},
{
closed = 1;
nodes = (
(90,56,l),
(179,56,l),
(179,149,l),
(90,149,l)
);
}
);
userData = {
com.hugojourdan.ColorFlow = {
"0" = 0;
"1" = 0;
"10" = 0;
"11" = 0;
"2" = 0;
"3" = 0;
"4" = 0;
"5" = 0;
"6" = 0;
"7" = 0;
"8" = 0;
"9" = 0;
};
};
width = 269;
},
{
layerId = m01;
shapes = (
{
closed = 1;
nodes = (
(85,463,l),
(193,463,l),
(193,573,l),
(85,573,l)
);
},
{
closed = 1;
nodes = (
(85,52,l),
(193,52,l),
(193,162,l),
(85,162,l)
);
}
);
userData = {
com.hugojourdan.ColorFlow = {
"0" = 0;
"1" = 0;
"10" = 0;
"11" = 0;
"2" = 0;
"3" = 0;
"4" = 0;
"5" = 0;
"6" = 0;
"7" = 0;
"8" = 0;
"9" = 0;
};
};
width = 278;
},
{
layerId = "54FF0D0B-6EB9-4889-908D-B8898FFCE7DE";
shapes = (
{
closed = 1;
nodes = (
(80,455,l),
(199,455,l),
(199,575,l),
(80,575,l)
);
},
{
closed = 1;
nodes = (
(80,51,l),
(199,51,l),
(199,170,l),
(80,170,l)
);
}
);
userData = {
com.hugojourdan.ColorFlow = {
"0" = 0;
"1" = 0;
"10" = 0;
"11" = 0;
"2" = 0;
"3" = 0;
"4" = 0;
"5" = 0;
"6" = 0;
"7" = 0;
"8" = 0;
"9" = 0;
};
};
width = 279;
},
{
layerId = "E7059794-B319-4C6D-9648-9B840A1B2BBD";
shapes = (
{
closed = 1;
nodes = (
(73,440,l),
(210,440,l),
(210,577,l),
(73,577,l)
);
},
{
closed = 1;
nodes = (
(73,49,l),
(210,49,l),
(210,185,l),
(73,185,l)
);
}
);
userData = {
com.hugojourdan.ColorFlow = {
"0" = 0;
"1" = 0;
"10" = 0;
"11" = 0;
"2" = 0;
"3" = 0;
"4" = 0;
"5" = 0;
"6" = 0;
"7" = 0;
"8" = 0;
"9" = 0;
};
};
width = 283;
},
{
layerId = m005;
shapes = (
{
closed = 1;
nodes = (
(70,433,l),
(216,433,l),
(216,577,l),
(70,577,l)
);
},
{
closed = 1;
nodes = (
(70,48,l),
(216,48,l),
(216,192,l),
(70,192,l)
);
}
);
userData = {
com.hugojourdan.ColorFlow = {
"0" = 0;
"1" = 0;
"10" = 0;
"11" = 0;
"2" = 0;
"3" = 0;
"4" = 0;
"5" = 0;
"6" = 0;
"7" = 0;
"8" = 0;
"9" = 0;
};
};
width = 286;
},
{
layerId = "1E3F0FE2-7EB2-4B39-B562-A9E797F546FD";
shapes = (
{
closed = 1;
nodes = (
(77,448,l),
(205,448,l),
(205,576,l),
(77,576,l)
);
},
{
closed = 1;
nodes = (
(77,50,l),
(205,50,l),
(205,178,l),
(77,178,l)
);
}
);
width = 281;
}
);
unicode = 58;
}
{
color = 0;
glyphname = less;
layers = (
{
layerId = m003;
shapes = (
{
closed = 1;
nodes = (
(70,297,l),
(479,61,l),
(479,119,l),
(143,313,l),
(143,319,l),
(479,513,l),
(479,571,l),
(70,335,l)
);
}
);
userData = {
com.hugojourdan.ColorFlow = {
"0" = 0;
"1" = 0;
"10" = 0;
"11" = 0;
"2" = 0;
"3" = 0;
"4" = 0;
"5" = 0;
"6" = 0;
"7" = 0;
"8" = 0;
"9" = 0;
};
};
width = 549;
},
{
layerId = m01;
shapes = (
{
closed = 1;
nodes = (
(68,287,l),
(501,41,l),
(501,121,l),
(163,314,l),
(163,322,l),
(501,515,l),
(501,595,l),
(68,349,l)
);
}
);
userData = {
com.hugojourdan.ColorFlow = {
"0" = 0;
"1" = 0;
"10" = 0;
"11" = 0;
"2" = 0;
"3" = 0;
"4" = 0;
"5" = 0;
"6" = 0;
"7" = 0;
"8" = 0;
"9" = 0;
};
};
width = 569;
},
{
layerId = "54FF0D0B-6EB9-4889-908D-B8898FFCE7DE";
shapes = (
{
closed = 1;
nodes = (
(66,281,l),
(511,28,l),
(511,119,l),
(170,313,l),
(170,322,l),
(511,517,l),
(511,608,l),
(66,355,l)
);
}
);
userData = {
com.hugojourdan.ColorFlow = {
"0" = 0;
"1" = 0;
"10" = 0;
"11" = 0;
"2" = 0;
"3" = 0;
"4" = 0;
"5" = 0;
"6" = 0;
"7" = 0;
"8" = 0;
"9" = 0;
};
};
width = 577;
},
{
layerId = "E7059794-B319-4C6D-9648-9B840A1B2BBD";
shapes = (
{
closed = 1;
nodes = (
(63,271,l),
(531,5,l),
(531,114,l),
(184,312,l),
(184,323,l),
(531,520,l),
(531,629,l),
(63,363,l)
);
}
);
userData = {
com.hugojourdan.ColorFlow = {
"0" = 0;
"1" = 0;
"10" = 0;
"11" = 0;
"2" = 0;
"3" = 0;
"4" = 0;
"5" = 0;
"6" = 0;
"7" = 0;
"8" = 0;
"9" = 0;
};
};
width = 594;
},
{
layerId = m005;
shapes = (
{
closed = 1;
nodes = (
(62,268,l),
(541,-4,l),
(541,112,l),
(191,311,l),
(191,323,l),
(541,521,l),
(541,637,l),
(62,366,l)
);
}
);
userData = {
com.hugojourdan.ColorFlow = {
"0" = 0;
"1" = 0;
"10" = 0;
"11" = 0;
"2" = 0;
"3" = 0;
"4" = 0;
"5" = 0;
"6" = 0;
"7" = 0;
"8" = 0;
"9" = 0;
};
};
width = 603;
},
{
layerId = "1E3F0FE2-7EB2-4B39-B562-A9E797F546FD";
shapes = (
{
closed = 1;
nodes = (
(65,276,l),
(521,17,l),
(521,117,l),
(177,313,l),
(177,323,l),
(521,519,l),
(521,619,l),
(65,359,l)
);
}
);
width = 586;
}
);
unicode = 60;
}
{
color = 0;
glyphname = at;
layers = (
{
layerId = m003;
shapes = (
{
closed = 1;
nodes = (
(461,-99,ls),
(241,-99,o),
(116,42,o),
(116,256,cs),
(116,459,o),
(250,610,o),
(453,610,cs),
(657,611,o),
(794,480,o),
(793,287,cs),
(793,168,o),
(748,90,o),
(678,90,cs),
(636,90,o),
(609,118,o),
(609,172,cs),
(608,457,l),
(557,457,l),
(557,358,l),
(569,358,l),
(555,406,o),
(518,464,o),
(438,464,cs),
(334,464,o),
(267,393,o),
(268,256,cs),
(269,119,o),
(334,48,o),
(438,47,cs),
(518,46,o),
(557,108,o),
(572,157,c),
(560,157,l),
(562,86,o),
(612,43,o),
(676,43,cs),
(775,43,o),
(844,138,o),
(844,288,cs),
(844,502,o),
(684,659,o),
(453,658,cs),
(227,659,o),
(64,490,o),
(65,256,cs),
(65,12,o),
(218,-147,o),
(461,-147,cs),
(671,-147,l),
(671,-99,l)
);
},
{
closed = 1;
nodes = (
(319,362,o),
(357,415,o),
(440,415,cs),
(522,415,o),
(558,362,o),
(558,256,cs),
(558,150,o),
(522,96,o),
(440,96,cs),
(357,96,o),
(319,150,o),
(319,256,cs)
);
}
);
userData = {
com.hugojourdan.ColorFlow = {
"0" = 0;
"1" = 0;
"10" = 0;
"11" = 0;
"2" = 0;
"3" = 0;
"4" = 0;
"5" = 0;
"6" = 0;
"7" = 0;
"8" = 0;
"9" = 0;
};
};
width = 909;
},
{
layerId = m01;
shapes = (
{
closed = 1;
nodes = (
(469,-81,ls),
(246,-81,o),
(129,54,o),
(129,256,cs),
(129,446,o),
(258,593,o),
(451,593,cs),
(643,593,o),
(777,466,o),
(776,284,cs),
(776,181,o),
(735,111,o),
(673,111,cs),
(636,111,o),
(617,135,o),
(617,179,cs),
(616,450,l),
(546,450,l),
(546,361,l),
(556,361,l),
(542,417,o),
(497,458,o),
(432,458,cs),
(331,458,o),
(261,393,o),
(262,256,cs),
(263,119,o),
(330,53,o),
(432,53,cs),
(499,53,o),
(545,98,o),
(560,155,c),
(550,155,l),
(558,94,o),
(604,49,o),
(668,49,cs),
(768,49,o),
(840,138,o),
(840,286,cs),
(840,500,o),
(681,656,o),
(451,655,cs),
(224,656,o),
(62,488,o),
(63,256,cs),
(63,13,o),
(210,-144,o),
(469,-144,cs),
(669,-144,l),
(669,-81,l)
);
},
{
closed = 1;
nodes = (
(329,350,o),
(362,397,o),
(438,397,cs),
(505,397,o),
(547,350,o),
(546,256,cs),
(545,162,o),
(505,114,o),
(438,114,cs),
(362,114,o),
(329,162,o),
(329,256,cs)
);
}
);
userData = {
com.hugojourdan.ColorFlow = {
"0" = 0;
"1" = 0;
"10" = 0;
"11" = 0;
"2" = 0;
"3" = 0;
"4" = 0;
"5" = 0;
"6" = 0;
"7" = 0;
"8" = 0;
"9" = 0;
};
};
width = 903;
},
{
layerId = "54FF0D0B-6EB9-4889-908D-B8898FFCE7DE";
shapes = (
{
closed = 1;
nodes = (
(463,-71,ls),
(250,-71,o),
(138,61,o),
(138,256,cs),
(138,439,o),
(263,583,o),
(450,583,cs),
(636,583,o),
(767,459,o),
(766,283,cs),
(766,188,o),
(728,123,o),
(671,123,cs),
(637,123,o),
(623,144,o),
(623,183,cs),
(622,448,l),
(539,448,l),
(539,366,l),
(550,366,l),
(537,417,o),
(493,457,o),
(429,457,cs),
(330,457,o),
(257,395,o),
(258,256,cs),
(258,118,o),
(328,55,o),
(429,55,cs),
(496,55,o),
(540,99,o),
(554,151,c),
(544,151,l),
(553,88,o),
(600,50,o),
(665,50,cs),
(766,50,o),
(840,137,o),
(840,285,cs),
(840,499,o),
(681,656,o),
(450,655,cs),
(222,656,o),
(60,488,o),
(61,256,cs),
(61,13,o),
(206,-144,o),
(463,-144,cs),
(669,-144,l),
(669,-71,l)
);
},
{
closed = 1;
nodes = (
(336,343,o),
(366,387,o),
(438,387,cs),
(501,387,o),
(540,345,o),
(539,256,cs),
(538,167,o),
(501,125,o),
(438,125,cs),
(366,125,o),
(336,168,o),
(336,256,cs)
);
}
);
userData = {
com.hugojourdan.ColorFlow = {
"0" = 0;
"1" = 0;
"10" = 0;
"11" = 0;
"2" = 0;
"3" = 0;
"4" = 0;
"5" = 0;
"6" = 0;
"7" = 0;
"8" = 0;
"9" = 0;
};
};
width = 901;
},
{
layerId = "E7059794-B319-4C6D-9648-9B840A1B2BBD";
shapes = (
{
closed = 1;
nodes = (
(457,-55,ls),
(255,-55,o),
(152,71,o),
(152,256,cs),
(152,428,o),
(271,567,o),
(449,567,cs),
(625,567,o),
(752,448,o),
(751,281,cs),
(751,198,o),
(718,140,o),
(668,140,cs),
(639,140,o),
(631,157,o),
(631,188,cs),
(631,445,l),
(529,445,l),
(529,373,l),
(541,373,l),
(529,417,o),
(487,455,o),
(425,455,cs),
(329,455,o),
(251,397,o),
(251,256,cs),
(251,117,o),
(325,57,o),
(425,57,cs),
(491,57,o),
(532,100,o),
(545,144,c),
(534,144,l),
(545,82,o),
(593,52,o),
(660,52,cs),
(763,52,o),
(840,136,o),
(840,284,cs),
(840,498,o),
(680,655,o),
(449,655,cs),
(219,655,o),
(57,487,o),
(58,256,cs),
(57,12,o),
(199,-143,o),
(457,-143,cs),
(670,-143,l),
(670,-55,l)
);
},
{
closed = 1;
nodes = (
(346,333,o),
(371,371,o),
(437,371,cs),
(495,371,o),
(529,337,o),
(528,256,cs),
(526,174,o),
(495,141,o),
(437,141,cs),
(371,141,o),
(346,176,o),
(346,256,cs)
);
}
);
userData = {
com.hugojourdan.ColorFlow = {
"0" = 0;
"1" = 0;
"10" = 0;
"11" = 0;
"2" = 0;
"3" = 0;
"4" = 0;
"5" = 0;
"6" = 0;
"7" = 0;
"8" = 0;
"9" = 0;
};
};
width = 898;
},
{
layerId = m005;
shapes = (
{
closed = 1;
nodes = (
(456,-50,ls),
(257,-50,o),
(156,74,o),
(156,256,cs),
(156,424,o),
(273,562,o),
(448,562,cs),
(621,562,o),
(747,444,o),
(746,280,cs),
(746,201,o),
(714,146,o),
(667,146,cs),
(639,146,o),
(634,161,o),
(634,190,cs),
(634,444,l),
(525,444,l),
(525,375,l),
(538,375,l),
(526,417,o),
(485,454,o),
(423,454,cs),
(328,454,o),
(249,398,o),
(249,256,cs),
(249,116,o),
(324,58,o),
(423,58,cs),
(489,58,o),
(529,100,o),
(542,142,c),
(531,142,l),
(542,81,o),
(591,52,o),
(658,52,cs),
(762,52,o),
(840,135,o),
(840,283,cs),
(840,497,o),
(680,655,o),
(448,655,cs),
(218,655,o),
(56,487,o),
(57,256,cs),
(56,12,o),
(197,-143,o),
(456,-143,cs),
(671,-143,l),
(671,-50,l)
);
},
{
closed = 1;
nodes = (
(349,330,o),
(373,366,o),
(437,366,cs),
(493,366,o),
(525,334,o),
(525,256,cs),
(521,176,o),
(493,146,o),
(437,146,cs),
(373,146,o),
(349,179,o),
(349,256,cs)
);
}
);
userData = {
com.hugojourdan.ColorFlow = {
"0" = 0;
"1" = 0;
"10" = 0;
"11" = 0;
"2" = 0;
"3" = 0;
"4" = 0;
"5" = 0;
"6" = 0;
"7" = 0;
"8" = 0;
"9" = 0;
};
};
width = 897;
},
{
layerId = "1E3F0FE2-7EB2-4B39-B562-A9E797F546FD";
shapes = (
{
closed = 1;
nodes = (
(460,-63,ls),
(253,-63,o),
(145,66,o),
(145,256,cs),
(145,434,o),
(267,575,o),
(450,575,cs),
(631,575,o),
(760,454,o),
(759,282,cs),
(759,193,o),
(723,132,o),
(670,132,cs),
(638,132,o),
(627,151,o),
(627,186,cs),
(627,447,l),
(534,447,l),
(534,370,l),
(546,370,l),
(533,418,o),
(490,456,o),
(427,456,cs),
(330,456,o),
(254,397,o),
(255,256,cs),
(255,118,o),
(327,56,o),
(427,56,cs),
(494,56,o),
(536,99,o),
(550,148,c),
(539,148,l),
(549,85,o),
(597,51,o),
(663,51,cs),
(765,51,o),
(840,137,o),
(840,285,cs),
(840,499,o),
(680,655,o),
(450,655,cs),
(220,656,o),
(59,488,o),
(60,256,cs),
(59,12,o),
(203,-143,o),
(460,-143,cs),
(670,-143,l),
(670,-63,l)
);
},
{
closed = 1;
nodes = (
(341,338,o),
(369,379,o),
(438,379,cs),
(498,379,o),
(535,341,o),
(534,256,cs),
(532,170,o),
(498,133,o),
(438,133,cs),
(369,133,o),
(341,172,o),
(341,256,cs)
);
}
);
width = 900;
}
);
unicode = 64;
}
{
color = 0;
glyphname = A;
kernLeft = KO_A;
kernRight = KO_A;
layers = (
{
anchors = (
{
name = bottom;
pos = (312,0);
},
{
name = ogonek;
pos = (585,0);
},
{
name = top;
pos = (312,626);
}
);
layerId = m003;
shapes = (
{
closed = 1;
nodes = (
(534,0,l),
(598,0,l),
(346,707,l),
(278,707,l),
(25,0,l),
(86,0,l),
(308,630,l),
(312,630,l)
);
},
{
closed = 1;
nodes = (
(473,264,l),
(150,264,l),
(150,212,l),
(473,212,l)
);
}
);
userData = {
com.hugojourdan.ColorFlow = {
"0" = 0;
"1" = 0;
"10" = 0;
"11" = 0;
"2" = 0;
"3" = 0;
"4" = 0;
"5" = 0;
"6" = 0;
"7" = 0;
"8" = 0;
"9" = 0;
};
};
width = 623;
},
{
anchors = (
{
name = bottom;
pos = (327,0);
},
{
name = ogonek;
pos = (610,0);
},
{
name = top;
pos = (327,645);
}
);
layerId = m01;
shapes = (
{
closed = 1;
nodes = (
(546,0,l),
(632,0,l),
(372,707,l),
(282,707,l),
(22,0,l),
(107,0,l),
(323,612,l),
(329,612,l)
);
},
{
closed = 1;
nodes = (
(500,269,l),
(153,269,l),
(153,195,l),
(500,195,l)
);
}
);
userData = {
com.hugojourdan.ColorFlow = {
"0" = 0;
"1" = 0;
"10" = 0;
"11" = 0;
"2" = 0;
"3" = 0;
"4" = 0;
"5" = 0;
"6" = 0;
"7" = 0;
"8" = 0;
"9" = 0;
};
};
width = 654;
},
{
anchors = (
{
name = bottom;
pos = (332,0);
},
{
name = ogonek;
pos = (618,0);
},
{
name = top;
pos = (332,653);
}
);
layerId = "54FF0D0B-6EB9-4889-908D-B8898FFCE7DE";
shapes = (
{
closed = 1;
nodes = (
(542,0,l),
(644,0,l),
(381,707,l),
(283,707,l),
(20,0,l),
(118,0,l),
(327,584,l),
(333,584,l)
);
},
{
closed = 1;
nodes = (
(511,274,l),
(150,274,l),
(150,188,l),
(511,188,l)
);
}
);
userData = {
com.hugojourdan.ColorFlow = {
"0" = 0;
"1" = 0;
"10" = 0;
"11" = 0;
"2" = 0;
"3" = 0;
"4" = 0;
"5" = 0;
"6" = 0;
"7" = 0;
"8" = 0;
"9" = 0;
};
};
width = 664;
},
{
anchors = (
{
name = bottom;
pos = (344,0);
},
{
name = ogonek;
pos = (639,0);
},
{
name = top;
pos = (344,673);
}
);
layerId = "E7059794-B319-4C6D-9648-9B840A1B2BBD";
shapes = (
{
closed = 1;
nodes = (
(542,0,l),
(671,0,l),
(408,707,l),
(281,707,l),
(17,0,l),
(140,0,l),
(340,556,l),
(344,556,l)
);
},
{
closed = 1;
nodes = (
(532,283,l),
(155,283,l),
(155,177,l),
(532,177,l)
);
}
);
userData = {
com.hugojourdan.ColorFlow = {
"0" = 0;
"1" = 0;
"10" = 0;
"11" = 0;
"2" = 0;
"3" = 0;
"4" = 0;
"5" = 0;
"6" = 0;
"7" = 0;
"8" = 0;
"9" = 0;
};
};
width = 688;
},
{
anchors = (
{
name = bottom;
pos = (352,0);
},
{
name = ogonek;
pos = (658,0);
},
{
name = top;
pos = (352,683);
}
);
layerId = m005;
shapes = (
{
closed = 1;
nodes = (
(546,0,l),
(687,0,l),
(426,707,l),
(278,707,l),
(16,0,l),
(151,0,l),
(349,556,l),
(352,556,l)
);
},
{
closed = 1;
nodes = (
(543,288,l),
(163,288,l),
(163,173,l),
(543,173,l)
);
}
);
userData = {
com.hugojourdan.ColorFlow = {
"0" = 0;
"1" = 0;
"10" = 0;
"11" = 0;
"2" = 0;
"3" = 0;
"4" = 0;
"5" = 0;
"6" = 0;
"7" = 0;
"8" = 0;
"9" = 0;
};
};
width = 703;
},
{
anchors = (
{
name = bottom;
pos = (338,0);
},
{
name = ogonek;
pos = (629,0);
},
{
name = top;
pos = (338,663);
}
);
layerId = "1E3F0FE2-7EB2-4B39-B562-A9E797F546FD";
shapes = (
{
closed = 1;
nodes = (
(542,0,l),
(658,0,l),
(395,707,l),
(282,707,l),
(19,0,l),
(129,0,l),
(334,570,l),
(339,570,l)
);
},
{
closed = 1;
nodes = (
(522,279,l),
(153,279,l),
(153,183,l),
(522,183,l)
);
}
);
width = 676;
}
);
note = cid00003;
unicode = 65;
}
{
color = 0;
glyphname = D;
kernLeft = KO_H;
kernRight = KO_D;
layers = (
{
anchors = (
{
name = bottom;
pos = (304,0);
},
{
name = center;
pos = (169,354);
},
{
name = top;
pos = (304,626);
}
);
layerId = m003;
shapes = (
{
closed = 1;
nodes = (
(297,0,ls),
(512,0,o),
(619,124,o),
(619,354,cs),
(619,585,o),
(512,707,o),
(307,707,cs),
(88,707,l),
(88,0,l)
);
},
{
closed = 1;
nodes = (
(148,52,l),
(148,655,l),
(300,655,ls),
(493,655,o),
(559,542,o),
(559,354,cs),
(559,167,o),
(493,52,o),
(292,52,cs)
);
}
);
userData = {
com.hugojourdan.ColorFlow = {
"0" = 0;
"1" = 0;
"10" = 0;
"11" = 0;
"2" = 0;
"3" = 0;
"4" = 0;
"5" = 0;
"6" = 0;
"7" = 0;
"8" = 0;
"9" = 0;
};
};
width = 677;
},
{
anchors = (
{
name = bottom;
pos = (316,0);
},
{
name = center;
pos = (173,354);
},
{
name = top;
pos = (316,645);
}
);
layerId = m01;
shapes = (
{
closed = 1;
nodes = (
(304,0,ls),
(531,0,o),
(638,124,o),
(638,354,cs),
(638,585,o),
(531,707,o),
(314,707,cs),
(83,707,l),
(83,0,l)
);
},
{
closed = 1;
nodes = (
(167,74,l),
(167,633,l),
(307,633,ls),
(488,633,o),
(554,542,o),
(554,354,cs),
(554,167,o),
(488,74,o),
(299,74,cs)
);
}
);
userData = {
com.hugojourdan.ColorFlow = {
"0" = 0;
"1" = 0;
"10" = 0;
"11" = 0;
"2" = 0;
"3" = 0;
"4" = 0;
"5" = 0;
"6" = 0;
"7" = 0;
"8" = 0;
"9" = 0;
};
};
width = 691;
},
{
anchors = (
{
name = bottom;
pos = (317,0);
},
{
name = center;
pos = (174,354);
},
{
name = top;
pos = (317,653);
}
);
layerId = "54FF0D0B-6EB9-4889-908D-B8898FFCE7DE";
shapes = (
{
closed = 1;
nodes = (
(308,0,ls),
(536,0,o),
(644,127,o),
(644,354,cs),
(644,582,o),
(536,707,o),
(318,707,cs),
(80,707,l),
(80,0,l)
);
},
{
closed = 1;
nodes = (
(179,83,l),
(179,624,l),
(311,624,ls),
(483,624,o),
(546,534,o),
(546,354,cs),
(546,175,o),
(483,83,o),
(303,83,cs)
);
}
);
userData = {
com.hugojourdan.ColorFlow = {
"0" = 0;
"1" = 0;
"10" = 0;
"11" = 0;
"2" = 0;
"3" = 0;
"4" = 0;
"5" = 0;
"6" = 0;
"7" = 0;
"8" = 0;
"9" = 0;
};
};
width = 694;
},
{
anchors = (
{
name = bottom;
pos = (321,0);
},
{
name = center;
pos = (176,354);
},
{
name = top;
pos = (321,673);
}
);
layerId = "E7059794-B319-4C6D-9648-9B840A1B2BBD";
shapes = (
{
closed = 1;
nodes = (
(316,0,ls),
(545,0,o),
(656,133,o),
(656,354,cs),
(656,576,o),
(545,707,o),
(325,707,cs),
(76,707,l),
(76,0,l)
);
},
{
closed = 1;
nodes = (
(202,104,l),
(202,604,l),
(319,604,ls),
(475,604,o),
(531,520,o),
(531,354,cs),
(531,189,o),
(475,104,o),
(310,104,cs)
);
}
);
userData = {
com.hugojourdan.ColorFlow = {
"0" = 0;
"1" = 0;
"10" = 0;
"11" = 0;
"2" = 0;
"3" = 0;
"4" = 0;
"5" = 0;
"6" = 0;
"7" = 0;
"8" = 0;
"9" = 0;
};
};
width = 702;
},
{
anchors = (
{
name = bottom;
pos = (324,0);
},
{
name = center;
pos = (177,354);
},
{
name = top;
pos = (324,683);
}
);
layerId = m005;
shapes = (
{
closed = 1;
nodes = (
(320,0,ls),
(550,0,o),
(662,135,o),
(662,354,cs),
(662,573,o),
(550,707,o),
(329,707,cs),
(75,707,l),
(75,0,l)
);
},
{
closed = 1;
nodes = (
(213,115,l),
(213,592,l),
(323,592,ls),
(472,592,o),
(524,513,o),
(524,354,cs),
(524,195,o),
(472,115,o),
(314,115,cs)
);
}
);
userData = {
com.hugojourdan.ColorFlow = {
"0" = 0;
"1" = 0;
"10" = 0;
"11" = 0;
"2" = 0;
"3" = 0;
"4" = 0;
"5" = 0;
"6" = 0;
"7" = 0;
"8" = 0;
"9" = 0;
};
};
width = 707;
},
{
anchors = (
{
name = bottom;
pos = (319,0);
},
{
name = center;
pos = (175,354);
},
{
name = top;
pos = (319,663);
}
);
layerId = "1E3F0FE2-7EB2-4B39-B562-A9E797F546FD";
shapes = (
{
closed = 1;
nodes = (
(312,0,ls),
(541,0,o),
(650,130,o),
(650,354,cs),
(650,579,o),
(541,707,o),
(322,707,cs),
(78,707,l),
(78,0,l)
);
},
{
closed = 1;
nodes = (
(191,94,l),
(191,614,l),
(315,614,ls),
(479,614,o),
(539,527,o),
(539,354,cs),
(539,182,o),
(479,94,o),
(307,94,cs)
);
}
);
width = 698;
}
);
note = cid00049;
unicode = 68;
}
{
color = 0;
glyphname = G;
kernLeft = KO_O;
kernRight = KO_G;
layers = (
{
anchors = (
{
name = bottom;
pos = (362,0);
},
{
name = top;
pos = (362,626);
}
);
layerId = m003;
shapes = (
{
closed = 1;
nodes = (
(582,209,o),
(565,44,o),
(362,44,cs),
(204,44,o),
(118,140,o),
(118,354,cs),
(118,568,o),
(204,663,o),
(362,663,cs),
(474,663,o),
(549,618,o),
(571,503,c),
(633,503,l),
(605,648,o),
(499,717,o),
(362,717,cs),
(169,717,o),
(58,587,o),
(58,354,cs),
(58,121,o),
(169,-10,o),
(362,-10,cs),
(556,-10,o),
(641,121,o),
(641,272,cs),
(641,352,l),
(380,352,l),
(380,300,l),
(581,300,l)
);
}
);
userData = {
com.hugojourdan.ColorFlow = {
"0" = 0;
"1" = 0;
"10" = 0;
"11" = 0;
"2" = 0;
"3" = 0;
"4" = 0;
"5" = 0;
"6" = 0;
"7" = 0;
"8" = 0;
"9" = 0;
};
};
width = 696;
},
{
anchors = (
{
name = bottom;
pos = (363,0);
},
{
name = top;
pos = (363,645);
}
);
layerId = m01;
shapes = (
{
closed = 1;
nodes = (
(566,195,o),
(542,65,o),
(363,65,cs),
(216,65,o),
(137,155,o),
(137,354,cs),
(137,552,o),
(216,643,o),
(363,643,cs),
(471,643,o),
(538,597,o),
(556,493,c),
(643,493,l),
(620,639,o),
(509,717,o),
(363,717,cs),
(165,717,o),
(53,588,o),
(53,354,cs),
(53,119,o),
(165,-10,o),
(363,-10,cs),
(564,-10,o),
(649,122,o),
(649,277,cs),
(649,355,l),
(376,355,l),
(376,282,l),
(565,282,l)
);
}
);
userData = {
com.hugojourdan.ColorFlow = {
"0" = 0;
"1" = 0;
"10" = 0;
"11" = 0;
"2" = 0;
"3" = 0;
"4" = 0;
"5" = 0;
"6" = 0;
"7" = 0;
"8" = 0;
"9" = 0;
};
};
width = 700;
},
{
anchors = (
{
name = bottom;
pos = (367,0);
},
{
name = top;
pos = (367,653);
}
);
layerId = "54FF0D0B-6EB9-4889-908D-B8898FFCE7DE";
shapes = (
{
closed = 1;
nodes = (
(558,193,o),
(531,75,o),
(365,75,cs),
(223,75,o),
(149,164,o),
(149,354,cs),
(149,543,o),
(223,633,o),
(365,633,cs),
(471,633,o),
(534,586,o),
(550,488,c),
(651,488,l),
(630,634,o),
(517,717,o),
(365,717,cs),
(163,717,o),
(50,589,o),
(50,354,cs),
(50,119,o),
(163,-10,o),
(365,-10,cs),
(570,-10,o),
(656,123,o),
(656,280,cs),
(656,363,l),
(375,363,l),
(375,278,l),
(558,278,l)
);
}
);
userData = {
com.hugojourdan.ColorFlow = {
"0" = 0;
"1" = 0;
"10" = 0;
"11" = 0;
"2" = 0;
"3" = 0;
"4" = 0;
"5" = 0;
"6" = 0;
"7" = 0;
"8" = 0;
"9" = 0;
};
};
width = 704;
},
{
anchors = (
{
name = bottom;
pos = (365,0);
},
{
name = top;
pos = (365,673);
}
);
layerId = "E7059794-B319-4C6D-9648-9B840A1B2BBD";
shapes = (
{
closed = 1;
nodes = (
(540,190,o),
(509,95,o),
(367,95,cs),
(236,95,o),
(172,180,o),
(172,354,cs),
(172,527,o),
(236,613,o),
(367,613,cs),
(469,613,o),
(523,565,o),
(536,479,c),
(661,479,l),
(646,625,o),
(527,717,o),
(367,717,cs),
(161,717,o),
(46,590,o),
(46,354,cs),
(46,118,o),
(161,-10,o),
(367,-10,cs),
(579,-10,o),
(665,125,o),
(665,285,cs),
(665,377,l),
(373,377,l),
(373,271,l),
(541,271,l)
);
}
);
userData = {
com.hugojourdan.ColorFlow = {
"0" = 0;
"1" = 0;
"10" = 0;
"11" = 0;
"2" = 0;
"3" = 0;
"4" = 0;
"5" = 0;
"6" = 0;
"7" = 0;
"8" = 0;
"9" = 0;
};
};
width = 709;
},
{
anchors = (
{
name = bottom;
pos = (365,0);
},
{
name = top;
pos = (365,683);
}
);
layerId = m005;
shapes = (
{
closed = 1;
nodes = (
(530,188,o),
(497,105,o),
(367,105,cs),
(243,105,o),
(183,187,o),
(183,354,cs),
(183,520,o),
(243,602,o),
(367,602,cs),
(466,602,o),
(517,555,o),
(528,474,c),
(664,474,l),
(651,621,o),
(530,717,o),
(367,717,cs),
(160,717,o),
(45,590,o),
(45,354,cs),
(45,117,o),
(160,-10,o),
(367,-10,cs),
(581,-10,o),
(667,125,o),
(667,287,cs),
(667,383,l),
(371,383,l),
(371,268,l),
(532,268,l)
);
}
);
userData = {
com.hugojourdan.ColorFlow = {
"0" = 0;
"1" = 0;
"10" = 0;
"11" = 0;
"2" = 0;
"3" = 0;
"4" = 0;
"5" = 0;
"6" = 0;
"7" = 0;
"8" = 0;
"9" = 0;
};
};
width = 710;
},
{
anchors = (
{
name = bottom;
pos = (366,0);
},
{
name = top;
pos = (366,663);
}
);
layerId = "1E3F0FE2-7EB2-4B39-B562-A9E797F546FD";
shapes = (
{
closed = 1;
nodes = (
(549,191,o),
(520,85,o),
(366,85,cs),
(230,85,o),
(161,172,o),
(161,354,cs),
(161,535,o),
(230,623,o),
(366,623,cs),
(470,623,o),
(529,575,o),
(543,484,c),
(656,484,l),
(638,630,o),
(522,717,o),
(366,717,cs),
(162,717,o),
(48,590,o),
(48,354,cs),
(48,119,o),
(162,-10,o),
(366,-10,cs),
(575,-10,o),
(661,124,o),
(661,283,cs),
(661,370,l),
(374,370,l),
(374,275,l),
(550,275,l)
);
}
);
width = 707;
}
);
note = cid00099;
unicode = 71;
}
{
color = 0;
glyphname = K;
kernLeft = KO_H;
kernRight = KO_K;
layers = (
{
anchors = (
{
name = bottom;
pos = (300,0);
},
{
name = top;
pos = (300,626);
}
);
layerId = m003;
shapes = (
{
closed = 1;
nodes = (
(248,385,l),
(506,0,l),
(578,0,l),
(291,427,l)
);
},
{
closed = 1;
nodes = (
(148,707,l),
(88,707,l),
(88,0,l),
(148,0,l)
);
},
{
closed = 1;
nodes = (
(559,707,l),
(486,707,l),
(133,278,l),
(133,195,l)
);
}
);
userData = {
com.hugojourdan.ColorFlow = {
"0" = 0;
"1" = 0;
"10" = 0;
"11" = 0;
"2" = 0;
"3" = 0;
"4" = 0;
"5" = 0;
"6" = 0;
"7" = 0;
"8" = 0;
"9" = 0;
};
};
width = 600;
},
{
anchors = (
{
name = bottom;
pos = (309,0);
},
{
name = top;
pos = (309,645);
}
);
layerId = m01;
shapes = (
{
closed = 1;
nodes = (
(263,348,l),
(496,0,l),
(598,0,l),
(321,412,l)
);
},
{
closed = 1;
nodes = (
(167,707,l),
(83,707,l),
(83,0,l),
(167,0,l)
);
},
{
closed = 1;
nodes = (
(581,707,l),
(480,707,l),
(146,301,l),
(146,189,l)
);
}
);
userData = {
com.hugojourdan.ColorFlow = {
"0" = 0;
"1" = 0;
"10" = 0;
"11" = 0;
"2" = 0;
"3" = 0;
"4" = 0;
"5" = 0;
"6" = 0;
"7" = 0;
"8" = 0;
"9" = 0;
};
};
width = 618;
},
{
anchors = (
{
name = bottom;
pos = (315,0);
},
{
name = top;
pos = (315,653);
}
);
layerId = "54FF0D0B-6EB9-4889-908D-B8898FFCE7DE";
shapes = (
{
closed = 1;
nodes = (
(257,349,l),
(493,0,l),
(611,0,l),
(324,425,l)
);
},
{
closed = 1;
nodes = (
(179,707,l),
(80,707,l),
(80,0,l),
(179,0,l)
);
},
{
closed = 1;
nodes = (
(596,707,l),
(477,707,l),
(149,309,l),
(149,180,l)
);
}
);
userData = {
com.hugojourdan.ColorFlow = {
"0" = 0;
"1" = 0;
"10" = 0;
"11" = 0;
"2" = 0;
"3" = 0;
"4" = 0;
"5" = 0;
"6" = 0;
"7" = 0;
"8" = 0;
"9" = 0;
};
};
width = 629;
},
{
anchors = (
{
name = bottom;
pos = (325,0);
},
{
name = top;
pos = (325,673);
}
);
layerId = "E7059794-B319-4C6D-9648-9B840A1B2BBD";
shapes = (
{
closed = 1;
nodes = (
(248,349,l),
(487,0,l),
(636,0,l),
(330,447,l)
);
},
{
closed = 1;
nodes = (
(202,707,l),
(76,707,l),
(76,0,l),
(202,0,l)
);
},
{
closed = 1;
nodes = (
(623,707,l),
(473,707,l),
(155,324,l),
(155,162,l)
);
}
);
userData = {
com.hugojourdan.ColorFlow = {
"0" = 0;
"1" = 0;
"10" = 0;
"11" = 0;
"2" = 0;
"3" = 0;
"4" = 0;
"5" = 0;
"6" = 0;
"7" = 0;
"8" = 0;
"9" = 0;
};
};
width = 649;
},
{
anchors = (
{
name = bottom;
pos = (330,0);
},
{
name = top;
pos = (330,683);
}
);
layerId = m005;
shapes = (
{
closed = 1;
nodes = (
(244,349,l),
(485,0,l),
(647,0,l),
(333,457,l)
);
},
{
closed = 1;
nodes = (
(213,707,l),
(75,707,l),
(75,0,l),
(213,0,l)
);
},
{
closed = 1;
nodes = (
(636,707,l),
(471,707,l),
(158,330,l),
(158,154,l)
);
}
);
userData = {
com.hugojourdan.ColorFlow = {
"0" = 0;
"1" = 0;
"10" = 0;
"11" = 0;
"2" = 0;
"3" = 0;
"4" = 0;
"5" = 0;
"6" = 0;
"7" = 0;
"8" = 0;
"9" = 0;
};
};
width = 659;
},
{
anchors = (
{
name = bottom;
pos = (320,0);
},
{
name = top;
pos = (320,663);
}
);
layerId = "1E3F0FE2-7EB2-4B39-B562-A9E797F546FD";
shapes = (
{
closed = 1;
nodes = (
(253,349,l),
(490,0,l),
(624,0,l),
(327,436,l)
);
},
{
closed = 1;
nodes = (
(191,707,l),
(78,707,l),
(78,0,l),
(191,0,l)
);
},
{
closed = 1;
nodes = (
(610,707,l),
(475,707,l),
(152,317,l),
(152,171,l)
);
}
);
width = 639;
}
);
note = cid00140;
unicode = 75;
}
{
color = 0;
glyphname = L;
kernLeft = KO_H;
kernRight = KO_L;
layers = (
{
anchors = (
{
name = bottom;
pos = (286,0);
},
{
name = top;
pos = (118,626);
},
{
name = topright;
pos = (491,707);
}
);
layerId = m003;
shapes = (
{
closed = 1;
nodes = (
(88,0,l),
(485,0,l),
(485,52,l),
(148,52,l),
(148,707,l),
(88,707,l)
);
}
);
userData = {
com.hugojourdan.ColorFlow = {
"0" = 0;
"1" = 0;
"10" = 0;
"11" = 0;
"2" = 0;
"3" = 0;
"4" = 0;
"5" = 0;
"6" = 0;
"7" = 0;
"8" = 0;
"9" = 0;
};
};
width = 511;
},
{
anchors = (
{
name = bottom;
pos = (292,0);
},
{
name = top;
pos = (126,645);
},
{
name = topright;
pos = (503,707);
}
);
layerId = m01;
shapes = (
{
closed = 1;
nodes = (
(83,0,l),
(500,0,l),
(500,74,l),
(167,74,l),
(167,707,l),
(83,707,l)
);
}
);
userData = {
com.hugojourdan.ColorFlow = {
"0" = 0;
"1" = 0;
"10" = 0;
"11" = 0;
"2" = 0;
"3" = 0;
"4" = 0;
"5" = 0;
"6" = 0;
"7" = 0;
"8" = 0;
"9" = 0;
};
};
width = 523;
},
{
anchors = (
{
name = bottom;
pos = (292,0);
},
{
name = top;
pos = (129,653);
},
{
name = topright;
pos = (504,707);
}
);
layerId = "54FF0D0B-6EB9-4889-908D-B8898FFCE7DE";
shapes = (
{
closed = 1;
nodes = (
(80,0,l),
(503,0,l),
(503,86,l),
(179,86,l),
(179,707,l),
(80,707,l)
);
}
);
userData = {
com.hugojourdan.ColorFlow = {
"0" = 0;
"1" = 0;
"10" = 0;
"11" = 0;
"2" = 0;
"3" = 0;
"4" = 0;
"5" = 0;
"6" = 0;
"7" = 0;
"8" = 0;
"9" = 0;
};
};
width = 524;
},
{
anchors = (
{
name = bottom;
pos = (293,0);
},
{
name = top;
pos = (139,673);
},
{
name = topright;
pos = (506,707);
}
);
layerId = "E7059794-B319-4C6D-9648-9B840A1B2BBD";
shapes = (
{
closed = 1;
nodes = (
(76,0,l),
(508,0,l),
(508,106,l),
(202,106,l),
(202,707,l),
(76,707,l)
);
}
);
userData = {
com.hugojourdan.ColorFlow = {
"0" = 0;
"1" = 0;
"10" = 0;
"11" = 0;
"2" = 0;
"3" = 0;
"4" = 0;
"5" = 0;
"6" = 0;
"7" = 0;
"8" = 0;
"9" = 0;
};
};
width = 526;
},
{
anchors = (
{
name = bottom;
pos = (305,0);
},
{
name = top;
pos = (144,683);
},
{
name = topright;
pos = (509,707);
}
);
layerId = m005;
shapes = (
{
closed = 1;
nodes = (
(75,0,l),
(511,0,l),
(511,115,l),
(213,115,l),
(213,707,l),
(75,707,l)
);
}
);
userData = {
com.hugojourdan.ColorFlow = {
"0" = 0;
"1" = 0;
"10" = 0;
"11" = 0;
"2" = 0;
"3" = 0;
"4" = 0;
"5" = 0;
"6" = 0;
"7" = 0;
"8" = 0;
"9" = 0;
};
};
width = 529;
},
{
anchors = (
{
name = bottom;
pos = (293,0);
},
{
name = top;
pos = (134,663);
},
{
name = topright;
pos = (505,707);
}
);
layerId = "1E3F0FE2-7EB2-4B39-B562-A9E797F546FD";
shapes = (
{
closed = 1;
nodes = (
(78,0,l),
(506,0,l),
(506,96,l),
(191,96,l),
(191,707,l),
(78,707,l)
);
}
);
width = 525;
}
);
note = cid00147;
unicode = 76;
userData = {
KernOnName = L;
};
}
{
color = 0;
glyphname = N;
kernLeft = KO_H;
kernRight = KO_H;
layers = (
{
anchors = (
{
name = bottom;
pos = (353,0);
},
{
name = top;
pos = (353,626);
}
);
layerId = m003;
shapes = (
{
closed = 1;
nodes = (
(617,707,l),
(558,707,l),
(558,101,l),
(550,101,l),
(156,707,l),
(88,707,l),
(88,0,l),
(147,0,l),
(147,607,l),
(155,607,l),
(550,0,l),
(617,0,l)
);
}
);
userData = {
com.hugojourdan.ColorFlow = {
"0" = 0;
"1" = 0;
"10" = 0;
"11" = 0;
"2" = 0;
"3" = 0;
"4" = 0;
"5" = 0;
"6" = 0;
"7" = 0;
"8" = 0;
"9" = 0;
};
};
width = 705;
},
{
anchors = (
{
name = bottom;
pos = (353,0);
},
{
name = top;
pos = (353,645);
}
);
layerId = m01;
shapes = (
{
closed = 1;
nodes = (
(622,707,l),
(540,707,l),
(540,139,l),
(533,139,l),
(168,707,l),
(83,707,l),
(83,0,l),
(165,0,l),
(165,568,l),
(172,568,l),
(537,0,l),
(622,0,l)
);
}
);
userData = {
com.hugojourdan.ColorFlow = {
"0" = 0;
"1" = 0;
"10" = 0;
"11" = 0;
"2" = 0;
"3" = 0;
"4" = 0;
"5" = 0;
"6" = 0;
"7" = 0;
"8" = 0;
"9" = 0;
};
};
width = 705;
},
{
anchors = (
{
name = bottom;
pos = (354,0);
},
{
name = top;
pos = (354,653);
}
);
layerId = "54FF0D0B-6EB9-4889-908D-B8898FFCE7DE";
shapes = (
{
closed = 1;
nodes = (
(628,707,l),
(532,707,l),
(532,160,l),
(527,160,l),
(177,707,l),
(80,707,l),
(80,0,l),
(177,0,l),
(177,547,l),
(182,547,l),
(532,0,l),
(628,0,l)
);
}
);
userData = {
com.hugojourdan.ColorFlow = {
"0" = 0;
"1" = 0;
"10" = 0;
"11" = 0;
"2" = 0;
"3" = 0;
"4" = 0;
"5" = 0;
"6" = 0;
"7" = 0;
"8" = 0;
"9" = 0;
};
};
width = 708;
},
{
anchors = (
{
name = bottom;
pos = (359,0);
},
{
name = top;
pos = (359,673);
}
);
layerId = "E7059794-B319-4C6D-9648-9B840A1B2BBD";
shapes = (
{
closed = 1;
nodes = (
(641,707,l),
(519,707,l),
(519,198,l),
(516,198,l),
(194,707,l),
(76,707,l),
(76,0,l),
(199,0,l),
(199,509,l),
(202,509,l),
(523,0,l),
(641,0,l)
);
}
);
userData = {
com.hugojourdan.ColorFlow = {
"0" = 0;
"1" = 0;
"10" = 0;
"11" = 0;
"2" = 0;
"3" = 0;
"4" = 0;
"5" = 0;
"6" = 0;
"7" = 0;
"8" = 0;
"9" = 0;
};
};
width = 717;
},
{
anchors = (
{
name = bottom;
pos = (361,0);
},
{
name = top;
pos = (361,683);
}
);
layerId = m005;
shapes = (
{
closed = 1;
nodes = (
(647,707,l),
(514,707,l),
(514,215,l),
(512,215,l),
(202,707,l),
(75,707,l),
(75,0,l),
(210,0,l),
(210,491,l),
(212,491,l),
(520,0,l),
(647,0,l)
);
}
);
userData = {
com.hugojourdan.ColorFlow = {
"0" = 0;
"1" = 0;
"10" = 0;
"11" = 0;
"2" = 0;
"3" = 0;
"4" = 0;
"5" = 0;
"6" = 0;
"7" = 0;
"8" = 0;
"9" = 0;
};
};
width = 722;
},
{
anchors = (
{
name = bottom;
pos = (357,0);
},
{
name = top;
pos = (357,663);
}
);
layerId = "1E3F0FE2-7EB2-4B39-B562-A9E797F546FD";
shapes = (
{
closed = 1;
nodes = (
(635,707,l),
(526,707,l),
(526,179,l),
(522,179,l),
(186,707,l),
(78,707,l),
(78,0,l),
(188,0,l),
(188,528,l),
(192,528,l),
(528,0,l),
(635,0,l)
);
}
);
width = 713;
}
);
note = cid00164;
unicode = 78;
}
{
color = 0;
glyphname = P;
kernLeft = KO_H;
kernRight = KO_P;
layers = (
{
anchors = (
{
name = bottom;
pos = (301,0);
},
{
name = top;
pos = (301,626);
}
);
layerId = m003;
shapes = (
{
closed = 1;
nodes = (
(88,0,l),
(148,0,l),
(148,274,l),
(326,274,ls),
(493,274,o),
(561,360,o),
(561,492,cs),
(561,623,o),
(493,707,o),
(324,707,cs),
(88,707,l)
);
},
{
closed = 1;
nodes = (
(148,326,l),
(148,655,l),
(320,655,ls),
(463,655,o),
(501,594,o),
(501,492,cs),
(501,391,o),
(462,326,o),
(322,326,cs)
);
}
);
userData = {
com.hugojourdan.ColorFlow = {
"0" = 0;
"1" = 0;
"10" = 0;
"11" = 0;
"2" = 0;
"3" = 0;
"4" = 0;
"5" = 0;
"6" = 0;
"7" = 0;
"8" = 0;
"9" = 0;
};
};
width = 602;
},
{
anchors = (
{
name = bottom;
pos = (302,0);
},
{
name = top;
pos = (302,645);
}
);
layerId = m01;
shapes = (
{
closed = 1;
nodes = (
(83,0,l),
(167,0,l),
(167,261,l),
(320,261,ls),
(501,261,o),
(564,355,o),
(564,485,cs),
(564,615,o),
(501,707,o),
(319,707,cs),
(83,707,l)
);
},
{
closed = 1;
nodes = (
(167,335,l),
(167,633,l),
(315,633,ls),
(454,633,o),
(480,579,o),
(480,485,cs),
(480,392,o),
(453,335,o),
(316,335,cs)
);
}
);
userData = {
com.hugojourdan.ColorFlow = {
"0" = 0;
"1" = 0;
"10" = 0;
"11" = 0;
"2" = 0;
"3" = 0;
"4" = 0;
"5" = 0;
"6" = 0;
"7" = 0;
"8" = 0;
"9" = 0;
};
};
width = 604;
},
{
anchors = (
{
name = bottom;
pos = (306,0);
},
{
name = top;
pos = (306,653);
}
);
layerId = "54FF0D0B-6EB9-4889-908D-B8898FFCE7DE";
shapes = (
{
closed = 1;
nodes = (
(80,0,l),
(179,0,l),
(179,255,l),
(324,255,ls),
(507,255,o),
(572,353,o),
(572,482,cs),
(572,611,o),
(507,707,o),
(323,707,cs),
(80,707,l)
);
},
{
closed = 1;
nodes = (
(179,340,l),
(179,622,l),
(319,622,ls),
(449,622,o),
(474,571,o),
(474,482,cs),
(474,393,o),
(448,340,o),
(320,340,cs)
);
}
);
userData = {
com.hugojourdan.ColorFlow = {
"0" = 0;
"1" = 0;
"10" = 0;
"11" = 0;
"2" = 0;
"3" = 0;
"4" = 0;
"5" = 0;
"6" = 0;
"7" = 0;
"8" = 0;
"9" = 0;
};
};
width = 611;
},
{
anchors = (
{
name = bottom;
pos = (312,0);
},
{
name = top;
pos = (312,673);
}
);
layerId = "E7059794-B319-4C6D-9648-9B840A1B2BBD";
shapes = (
{
closed = 1;
nodes = (
(76,0,l),
(202,0,l),
(202,243,l),
(329,243,ls),
(515,243,o),
(586,348,o),
(586,475,cs),
(586,604,o),
(515,707,o),
(329,707,cs),
(76,707,l)
);
},
{
closed = 1;
nodes = (
(202,348,l),
(202,601,l),
(325,601,ls),
(437,601,o),
(460,556,o),
(460,475,cs),
(460,395,o),
(437,348,o),
(325,348,cs)
);
}
);
userData = {
com.hugojourdan.ColorFlow = {
"0" = 0;
"1" = 0;
"10" = 0;
"11" = 0;
"2" = 0;
"3" = 0;
"4" = 0;
"5" = 0;
"6" = 0;
"7" = 0;
"8" = 0;
"9" = 0;
};
};
width = 623;
},
{
anchors = (
{
name = bottom;
pos = (314,0);
},
{
name = top;
pos = (314,683);
}
);
layerId = m005;
shapes = (
{
closed = 1;
nodes = (
(75,0,l),
(213,0,l),
(213,237,l),
(330,237,ls),
(518,237,o),
(591,346,o),
(591,472,cs),
(591,600,o),
(518,707,o),
(330,707,cs),
(75,707,l)
);
},
{
closed = 1;
nodes = (
(213,352,l),
(213,592,l),
(326,592,ls),
(431,592,o),
(453,549,o),
(453,472,cs),
(453,395,o),
(431,352,o),
(326,352,cs)
);
}
);
userData = {
com.hugojourdan.ColorFlow = {
"0" = 0;
"1" = 0;
"10" = 0;
"11" = 0;
"2" = 0;
"3" = 0;
"4" = 0;
"5" = 0;
"6" = 0;
"7" = 0;
"8" = 0;
"9" = 0;
};
};
width = 628;
},
{
anchors = (
{
name = bottom;
pos = (309,0);
},
{
name = top;
pos = (309,663);
}
);
layerId = "1E3F0FE2-7EB2-4B39-B562-A9E797F546FD";
shapes = (
{
closed = 1;
nodes = (
(78,0,l),
(191,0,l),
(191,249,l),
(327,249,ls),
(511,249,o),
(579,351,o),
(579,479,cs),
(579,608,o),
(511,707,o),
(326,707,cs),
(78,707,l)
);
},
{
closed = 1;
nodes = (
(191,344,l),
(191,612,l),
(322,612,ls),
(443,612,o),
(467,564,o),
(467,479,cs),
(467,394,o),
(443,344,o),
(323,344,cs)
);
}
);
width = 617;
}
);
note = cid00214;
unicode = 80;
}
{
color = 0;
glyphname = Q;
kernLeft = KO_O;
kernRight = KO_Q;
layers = (
{
anchors = (
{
name = bottom;
pos = (355,0);
},
{
name = top;
pos = (355,626);
}
);
layerId = m003;
shapes = (
{
closed = 1;
nodes = (
(564,-62,l),
(630,-62,l),
(422,205,l),
(358,205,l)
);
},
{
closed = 1;
nodes = (
(652,587,o),
(550,717,o),
(355,717,cs),
(160,717,o),
(58,587,o),
(58,354,cs),
(58,121,o),
(160,-10,o),
(355,-10,cs),
(550,-10,o),
(652,121,o),
(652,354,cs)
);
},
{
closed = 1;
nodes = (
(592,142,o),
(515,44,o),
(355,44,cs),
(195,44,o),
(118,142,o),
(118,354,cs),
(118,566,o),
(195,663,o),
(355,663,cs),
(515,663,o),
(592,566,o),
(592,354,cs)
);
}
);
userData = {
com.hugojourdan.ColorFlow = {
"0" = 0;
"1" = 0;
"10" = 0;
"11" = 0;
"2" = 0;
"3" = 0;
"4" = 0;
"5" = 0;
"6" = 0;
"7" = 0;
"8" = 0;
"9" = 0;
};
};
width = 710;
},
{
anchors = (
{
name = bottom;
pos = (359,0);
},
{
name = top;
pos = (359,645);
}
);
layerId = m01;
shapes = (
{
closed = 1;
nodes = (
(550,-67,l),
(645,-67,l),
(431,214,l),
(337,214,l)
);
},
{
closed = 1;
nodes = (
(665,588,o),
(557,717,o),
(359,717,cs),
(159,717,o),
(53,588,o),
(53,354,cs),
(53,119,o),
(159,-10,o),
(359,-10,cs),
(557,-10,o),
(665,119,o),
(665,354,cs)
);
},
{
closed = 1;
nodes = (
(581,155,o),
(508,64,o),
(359,64,cs),
(210,64,o),
(137,155,o),
(137,354,cs),
(137,552,o),
(210,643,o),
(359,643,cs),
(508,643,o),
(581,552,o),
(581,354,cs)
);
}
);
userData = {
com.hugojourdan.ColorFlow = {
"0" = 0;
"1" = 0;
"10" = 0;
"11" = 0;
"2" = 0;
"3" = 0;
"4" = 0;
"5" = 0;
"6" = 0;
"7" = 0;
"8" = 0;
"9" = 0;
};
};
width = 718;
},
{
anchors = (
{
name = bottom;
pos = (362,0);
},
{
name = top;
pos = (362,653);
}
);
layerId = "54FF0D0B-6EB9-4889-908D-B8898FFCE7DE";
shapes = (
{
closed = 1;
nodes = (
(543,-70,l),
(654,-70,l),
(436,219,l),
(325,219,l)
);
},
{
closed = 1;
nodes = (
(673,589,o),
(563,717,o),
(362,717,cs),
(159,717,o),
(50,589,o),
(50,354,cs),
(50,119,o),
(159,-10,o),
(362,-10,cs),
(563,-10,o),
(673,119,o),
(673,354,cs)
);
},
{
closed = 1;
nodes = (
(574,163,o),
(505,74,o),
(362,74,cs),
(219,74,o),
(149,163,o),
(149,354,cs),
(149,545,o),
(219,633,o),
(362,633,cs),
(505,633,o),
(574,545,o),
(574,354,cs)
);
}
);
userData = {
com.hugojourdan.ColorFlow = {
"0" = 0;
"1" = 0;
"10" = 0;
"11" = 0;
"2" = 0;
"3" = 0;
"4" = 0;
"5" = 0;
"6" = 0;
"7" = 0;
"8" = 0;
"9" = 0;
};
};
width = 723;
},
{
anchors = (
{
name = bottom;
pos = (366,0);
},
{
name = top;
pos = (366,673);
}
);
layerId = "E7059794-B319-4C6D-9648-9B840A1B2BBD";
shapes = (
{
closed = 1;
nodes = (
(528,-74,l),
(668,-74,l),
(443,228,l),
(303,228,l)
);
},
{
closed = 1;
nodes = (
(685,590,o),
(571,717,o),
(366,717,cs),
(160,717,o),
(46,590,o),
(46,354,cs),
(46,118,o),
(160,-10,o),
(366,-10,cs),
(571,-10,o),
(685,118,o),
(685,354,cs)
);
},
{
closed = 1;
nodes = (
(559,176,o),
(497,95,o),
(366,95,cs),
(235,95,o),
(172,176,o),
(172,354,cs),
(172,531,o),
(235,613,o),
(366,613,cs),
(497,613,o),
(559,531,o),
(559,354,cs)
);
}
);
userData = {
com.hugojourdan.ColorFlow = {
"0" = 0;
"1" = 0;
"10" = 0;
"11" = 0;
"2" = 0;
"3" = 0;
"4" = 0;
"5" = 0;
"6" = 0;
"7" = 0;
"8" = 0;
"9" = 0;
};
};
width = 731;
},
{
anchors = (
{
name = bottom;
pos = (367,0);
},
{
name = top;
pos = (367,683);
}
);
layerId = m005;
shapes = (
{
closed = 1;
nodes = (
(520,-76,l),
(673,-76,l),
(446,232,l),
(292,232,l)
);
},
{
closed = 1;
nodes = (
(689,590,o),
(572,717,o),
(367,717,cs),
(160,717,o),
(45,590,o),
(45,354,cs),
(45,117,o),
(160,-10,o),
(367,-10,cs),
(572,-10,o),
(689,117,o),
(689,354,cs)
);
},
{
closed = 1;
nodes = (
(551,182,o),
(492,105,o),
(367,105,cs),
(243,105,o),
(183,182,o),
(183,354,cs),
(183,525,o),
(243,602,o),
(367,602,cs),
(492,602,o),
(551,525,o),
(551,354,cs)
);
}
);
userData = {
com.hugojourdan.ColorFlow = {
"0" = 0;
"1" = 0;
"10" = 0;
"11" = 0;
"2" = 0;
"3" = 0;
"4" = 0;
"5" = 0;
"6" = 0;
"7" = 0;
"8" = 0;
"9" = 0;
};
};
width = 734;
},
{
anchors = (
{
name = bottom;
pos = (364,0);
},
{
name = top;
pos = (364,663);
}
);
layerId = "1E3F0FE2-7EB2-4B39-B562-A9E797F546FD";
shapes = (
{
closed = 1;
nodes = (
(536,-72,l),
(661,-72,l),
(440,224,l),
(314,224,l)
);
},
{
closed = 1;
nodes = (
(679,590,o),
(567,717,o),
(364,717,cs),
(160,717,o),
(48,590,o),
(48,354,cs),
(48,119,o),
(160,-10,o),
(364,-10,cs),
(567,-10,o),
(679,119,o),
(679,354,cs)
);
},
{
closed = 1;
nodes = (
(567,170,o),
(501,85,o),
(364,85,cs),
(227,85,o),
(161,170,o),
(161,354,cs),
(161,538,o),
(227,623,o),
(364,623,cs),
(501,623,o),
(567,538,o),
(567,354,cs)
);
}
);
width = 727;
}
);
note = cid00219;
unicode = 81;
}
{
color = 0;
glyphname = R;
kernLeft = KO_H;
kernRight = KO_R;
layers = (
{
anchors = (
{
name = bottom;
pos = (300,0);
},
{
name = top;
pos = (300,626);
}
);
layerId = m003;
shapes = (
{
closed = 1;
nodes = (
(338,313,l),
(515,0,l),
(582,0,l),
(398,324,l)
);
},
{
closed = 1;
nodes = (
(148,343,l),
(148,655,l),
(320,655,ls),
(461,655,o),
(501,603,o),
(501,500,cs),
(501,397,o),
(461,343,o),
(320,343,cs)
);
},
{
closed = 1;
nodes = (
(509,291,o),
(561,362,o),
(561,500,cs),
(561,631,o),
(496,707,o),
(324,707,cs),
(88,707,l),
(88,0,l),
(148,0,l),
(148,291,l),
(325,291,ls)
);
}
);
userData = {
com.hugojourdan.ColorFlow = {
"0" = 0;
"1" = 0;
"10" = 0;
"11" = 0;
"2" = 0;
"3" = 0;
"4" = 0;
"5" = 0;
"6" = 0;
"7" = 0;
"8" = 0;
"9" = 0;
};
};
width = 620;
},
{
anchors = (
{
name = bottom;
pos = (307,0);
},
{
name = top;
pos = (307,645);
}
);
layerId = m01;
shapes = (
{
closed = 1;
nodes = (
(332,304,l),
(501,0,l),
(598,0,l),
(418,319,l)
);
},
{
closed = 1;
nodes = (
(167,353,l),
(167,633,l),
(321,633,ls),
(459,633,o),
(486,587,o),
(486,493,cs),
(486,399,o),
(459,353,o),
(321,353,cs)
);
},
{
closed = 1;
nodes = (
(524,279,o),
(570,363,o),
(570,493,cs),
(570,623,o),
(511,707,o),
(325,707,cs),
(83,707,l),
(83,0,l),
(167,0,l),
(167,279,l),
(326,279,ls)
);
}
);
userData = {
com.hugojourdan.ColorFlow = {
"0" = 0;
"1" = 0;
"10" = 0;
"11" = 0;
"2" = 0;
"3" = 0;
"4" = 0;
"5" = 0;
"6" = 0;
"7" = 0;
"8" = 0;
"9" = 0;
};
};
width = 634;
},
{
anchors = (
{
name = bottom;
pos = (301,0);
},
{
name = top;
pos = (301,653);
}
);
layerId = "54FF0D0B-6EB9-4889-908D-B8898FFCE7DE";
shapes = (
{
closed = 1;
nodes = (
(324,310,l),
(494,0,l),
(607,0,l),
(424,327,l)
);
},
{
closed = 1;
nodes = (
(179,358,l),
(179,622,l),
(322,622,ls),
(451,622,o),
(477,578,o),
(477,489,cs),
(477,401,o),
(451,358,o),
(322,358,cs)
);
},
{
closed = 1;
nodes = (
(527,273,o),
(575,364,o),
(575,489,cs),
(575,619,o),
(514,707,o),
(326,707,cs),
(80,707,l),
(80,0,l),
(179,0,l),
(179,273,l),
(327,273,ls)
);
}
);
userData = {
com.hugojourdan.ColorFlow = {
"0" = 0;
"1" = 0;
"10" = 0;
"11" = 0;
"2" = 0;
"3" = 0;
"4" = 0;
"5" = 0;
"6" = 0;
"7" = 0;
"8" = 0;
"9" = 0;
};
};
width = 641;
},
{
anchors = (
{
name = bottom;
pos = (308,0);
},
{
name = top;
pos = (308,673);
}
);
layerId = "E7059794-B319-4C6D-9648-9B840A1B2BBD";
shapes = (
{
closed = 1;
nodes = (
(310,321,l),
(482,0,l),
(625,0,l),
(436,342,l)
);
},
{
closed = 1;
nodes = (
(202,367,l),
(202,601,l),
(325,601,ls),
(438,601,o),
(460,562,o),
(460,482,cs),
(460,403,o),
(438,367,o),
(325,367,cs)
);
},
{
closed = 1;
nodes = (
(534,261,o),
(586,365,o),
(586,482,cs),
(586,611,o),
(521,707,o),
(329,707,cs),
(76,707,l),
(76,0,l),
(202,0,l),
(202,261,l),
(330,261,ls)
);
}
);
userData = {
com.hugojourdan.ColorFlow = {
"0" = 0;
"1" = 0;
"10" = 0;
"11" = 0;
"2" = 0;
"3" = 0;
"4" = 0;
"5" = 0;
"6" = 0;
"7" = 0;
"8" = 0;
"9" = 0;
};
};
width = 655;
},
{
anchors = (
{
name = bottom;
pos = (311,0);
},
{
name = top;
pos = (311,683);
}
);
layerId = m005;
shapes = (
{
closed = 1;
nodes = (
(304,325,l),
(477,0,l),
(633,0,l),
(442,348,l)
);
},
{
closed = 1;
nodes = (
(213,371,l),
(213,592,l),
(326,592,ls),
(432,592,o),
(453,555,o),
(453,479,cs),
(453,404,o),
(433,371,o),
(327,371,cs)
);
},
{
closed = 1;
nodes = (
(537,256,o),
(591,365,o),
(591,479,cs),
(591,607,o),
(524,707,o),
(330,707,cs),
(75,707,l),
(75,0,l),
(213,0,l),
(213,256,l),
(331,256,ls)
);
}
);
userData = {
com.hugojourdan.ColorFlow = {
"0" = 0;
"1" = 0;
"10" = 0;
"11" = 0;
"2" = 0;
"3" = 0;
"4" = 0;
"5" = 0;
"6" = 0;
"7" = 0;
"8" = 0;
"9" = 0;
};
};
width = 661;
},
{
anchors = (
{
name = bottom;
pos = (305,0);
},
{
name = top;
pos = (305,663);
}
);
layerId = "1E3F0FE2-7EB2-4B39-B562-A9E797F546FD";
shapes = (
{
closed = 1;
nodes = (
(317,316,l),
(488,0,l),
(616,0,l),
(430,335,l)
);
},
{
closed = 1;
nodes = (
(191,363,l),
(191,612,l),
(324,612,ls),
(445,612,o),
(469,570,o),
(469,486,cs),
(469,402,o),
(445,363,o),
(324,363,cs)
);
},
{
closed = 1;
nodes = (
(531,267,o),
(581,365,o),
(581,486,cs),
(581,615,o),
(518,707,o),
(328,707,cs),
(78,707,l),
(78,0,l),
(191,0,l),
(191,267,l),
(329,267,ls)
);
}
);
width = 648;
}
);
note = cid00221;
unicode = 82;
}
{
color = 0;
glyphname = S;
kernLeft = KO_S;
kernRight = KO_S;
layers = (
{
anchors = (
{
name = bottom;
pos = (291,0);
},
{
name = top;
pos = (291,626);
}
);
layerId = m003;
shapes = (
{
closed = 1;
nodes = (
(532,554,l),
(523,651,o),
(437,717,o),
(298,717,cs),
(153,717,o),
(64,644,o),
(64,527,cs),
(64,431,o),
(125,380,o),
(235,350,cs),
(331,324,ls),
(413,302,o),
(486,276,o),
(486,186,cs),
(486,86,o),
(416,40,o),
(293,40,cs),
(192,40,o),
(119,65,o),
(107,161,c),
(45,161,l),
(55,54,o),
(138,-13,o),
(293,-13,cs),
(466,-13,o),
(546,71,o),
(546,184,cs),
(546,315,o),
(428,352,o),
(350,373,cs),
(273,394,ls),
(214,410,o),
(124,431,o),
(124,532,cs),
(124,619,o),
(179,664,o),
(295,664,cs),
(396,664,o),
(461,637,o),
(472,554,c)
);
}
);
userData = {
com.hugojourdan.ColorFlow = {
"0" = 0;
"1" = 0;
"10" = 0;
"11" = 0;
"2" = 0;
"3" = 0;
"4" = 0;
"5" = 0;
"6" = 0;
"7" = 0;
"8" = 0;
"9" = 0;
};
};
width = 581;
},
{
anchors = (
{
name = bottom;
pos = (297,0);
},
{
name = top;
pos = (297,645);
}
);
layerId = m01;
shapes = (
{
closed = 1;
nodes = (
(544,539,l),
(538,644,o),
(451,717,o),
(305,717,cs),
(159,717,o),
(63,644,o),
(63,521,cs),
(63,423,o),
(130,369,o),
(243,338,cs),
(333,313,ls),
(409,292,o),
(475,269,o),
(475,192,cs),
(475,104,o),
(411,61,o),
(300,61,cs),
(204,61,o),
(137,88,o),
(128,175,c),
(44,175,l),
(53,59,o),
(138,-13,o),
(300,-13,cs),
(475,-13,o),
(559,71,o),
(559,190,cs),
(559,324,o),
(434,362,o),
(356,384,cs),
(284,404,ls),
(230,419,o),
(145,440,o),
(145,525,cs),
(145,603,o),
(196,643,o),
(302,643,cs),
(397,643,o),
(454,614,o),
(463,539,c)
);
}
);
userData = {
com.hugojourdan.ColorFlow = {
"0" = 0;
"1" = 0;
"10" = 0;
"11" = 0;
"2" = 0;
"3" = 0;
"4" = 0;
"5" = 0;
"6" = 0;
"7" = 0;
"8" = 0;
"9" = 0;
};
};
width = 593;
},
{
anchors = (
{
name = bottom;
pos = (300,0);
},
{
name = top;
pos = (300,653);
}
);
layerId = "54FF0D0B-6EB9-4889-908D-B8898FFCE7DE";
shapes = (
{
closed = 1;
nodes = (
(552,531,l),
(547,641,o),
(459,717,o),
(309,717,cs),
(162,717,o),
(62,644,o),
(62,518,cs),
(62,419,o),
(132,364,o),
(247,332,cs),
(334,307,ls),
(407,287,o),
(468,265,o),
(468,196,cs),
(468,114,o),
(408,71,o),
(304,71,cs),
(211,71,o),
(150,101,o),
(143,183,c),
(43,183,l),
(52,62,o),
(138,-13,o),
(304,-13,cs),
(480,-13,o),
(566,72,o),
(566,194,cs),
(566,329,o),
(437,369,o),
(359,391,cs),
(290,410,ls),
(239,425,o),
(159,445,o),
(159,522,cs),
(159,593,o),
(206,633,o),
(306,633,cs),
(397,633,o),
(448,602,o),
(456,531,c)
);
}
);
userData = {
com.hugojourdan.ColorFlow = {
"0" = 0;
"1" = 0;
"10" = 0;
"11" = 0;
"2" = 0;
"3" = 0;
"4" = 0;
"5" = 0;
"6" = 0;
"7" = 0;
"8" = 0;
"9" = 0;
};
};
width = 599;
},
{
anchors = (
{
name = bottom;
pos = (306,0);
},
{
name = top;
pos = (306,673);
}
);
layerId = "E7059794-B319-4C6D-9648-9B840A1B2BBD";
shapes = (
{
closed = 1;
nodes = (
(565,516,l),
(564,634,o),
(472,717,o),
(315,717,cs),
(167,717,o),
(61,644,o),
(61,512,cs),
(61,411,o),
(136,354,o),
(255,320,cs),
(336,297,ls),
(402,277,o),
(454,258,o),
(454,202,cs),
(454,133,o),
(403,92,o),
(310,92,cs),
(222,92,o),
(174,124,o),
(169,198,c),
(42,198,l),
(49,68,o),
(137,-13,o),
(310,-13,cs),
(488,-13,o),
(579,72,o),
(579,200,cs),
(579,339,o),
(442,380,o),
(364,402,cs),
(300,421,ls),
(254,434,o),
(184,454,o),
(184,515,cs),
(184,575,o),
(225,613,o),
(312,613,cs),
(398,613,o),
(436,579,o),
(442,516,c)
);
}
);
userData = {
com.hugojourdan.ColorFlow = {
"0" = 0;
"1" = 0;
"10" = 0;
"11" = 0;
"2" = 0;
"3" = 0;
"4" = 0;
"5" = 0;
"6" = 0;
"7" = 0;
"8" = 0;
"9" = 0;
};
};
width = 611;
},
{
anchors = (
{
name = bottom;
pos = (308,0);
},
{
name = top;
pos = (308,683);
}
);
layerId = m005;
shapes = (
{
closed = 1;
nodes = (
(571,509,l),
(571,631,o),
(478,717,o),
(317,717,cs),
(169,717,o),
(60,644,o),
(60,509,cs),
(60,407,o),
(138,350,o),
(258,315,cs),
(336,292,ls),
(400,273,o),
(448,255,o),
(448,204,cs),
(448,141,o),
(400,102,o),
(312,102,cs),
(227,102,o),
(184,134,o),
(180,204,c),
(41,204,l),
(47,70,o),
(136,-13,o),
(312,-13,cs),
(491,-13,o),
(585,72,o),
(585,202,cs),
(585,343,o),
(444,384,o),
(366,407,cs),
(304,425,ls),
(261,437,o),
(195,458,o),
(195,512,cs),
(195,567,o),
(233,602,o),
(314,602,cs),
(398,602,o),
(431,569,o),
(436,509,c)
);
}
);
userData = {
com.hugojourdan.ColorFlow = {
"0" = 0;
"1" = 0;
"10" = 0;
"11" = 0;
"2" = 0;
"3" = 0;
"4" = 0;
"5" = 0;
"6" = 0;
"7" = 0;
"8" = 0;
"9" = 0;
};
};
width = 616;
},
{
anchors = (
{
name = bottom;
pos = (303,0);
},
{
name = top;
pos = (303,663);
}
);
layerId = "1E3F0FE2-7EB2-4B39-B562-A9E797F546FD";
shapes = (
{
closed = 1;
nodes = (
(559,524,l),
(556,638,o),
(466,717,o),
(312,717,cs),
(165,717,o),
(62,644,o),
(62,515,cs),
(62,415,o),
(134,359,o),
(251,326,cs),
(335,302,ls),
(405,282,o),
(461,262,o),
(461,199,cs),
(461,124,o),
(406,82,o),
(307,82,cs),
(217,82,o),
(162,113,o),
(156,191,c),
(43,191,l),
(51,65,o),
(138,-13,o),
(307,-13,cs),
(484,-13,o),
(573,72,o),
(573,197,cs),
(573,334,o),
(440,375,o),
(362,397,cs),
(295,416,ls),
(247,430,o),
(172,450,o),
(172,519,cs),
(172,584,o),
(216,623,o),
(309,623,cs),
(398,623,o),
(442,591,o),
(449,524,c)
);
}
);
width = 605;
}
);
note = cid00231;
unicode = 83;
}
{
color = 0;
glyphname = V;
kernLeft = KO_V;
kernRight = KO_V;
layers = (
{
anchors = (
{
name = bottom;
pos = (323,0);
},
{
name = top;
pos = (323,626);
}
);
layerId = m003;
shapes = (
{
closed = 1;
nodes = (
(88,707,l),
(24,707,l),
(281,0,l),
(364,0,l),
(622,707,l),
(559,707,l),
(326,69,l),
(320,69,l)
);
}
);
userData = {
com.hugojourdan.ColorFlow = {
"0" = 0;
"1" = 0;
"10" = 0;
"11" = 0;
"2" = 0;
"3" = 0;
"4" = 0;
"5" = 0;
"6" = 0;
"7" = 0;
"8" = 0;
"9" = 0;
};
};
width = 646;
},
{
anchors = (
{
name = bottom;
pos = (331,0);
},
{
name = top;
pos = (331,645);
}
);
layerId = m01;
shapes = (
{
closed = 1;
nodes = (
(113,707,l),
(22,707,l),
(280,0,l),
(380,0,l),
(639,707,l),
(549,707,l),
(334,88,l),
(327,88,l)
);
}
);
userData = {
com.hugojourdan.ColorFlow = {
"0" = 0;
"1" = 0;
"10" = 0;
"11" = 0;
"2" = 0;
"3" = 0;
"4" = 0;
"5" = 0;
"6" = 0;
"7" = 0;
"8" = 0;
"9" = 0;
};
};
width = 661;
},
{
anchors = (
{
name = bottom;
pos = (334,0);
},
{
name = top;
pos = (334,653);
}
);
layerId = "54FF0D0B-6EB9-4889-908D-B8898FFCE7DE";
shapes = (
{
closed = 1;
nodes = (
(126,707,l),
(20,707,l),
(279,0,l),
(388,0,l),
(648,707,l),
(543,707,l),
(337,112,l),
(331,112,l)
);
}
);
userData = {
com.hugojourdan.ColorFlow = {
"0" = 0;
"1" = 0;
"10" = 0;
"11" = 0;
"2" = 0;
"3" = 0;
"4" = 0;
"5" = 0;
"6" = 0;
"7" = 0;
"8" = 0;
"9" = 0;
};
};
width = 668;
},
{
anchors = (
{
name = bottom;
pos = (341,0);
},
{
name = top;
pos = (341,673);
}
);
layerId = "E7059794-B319-4C6D-9648-9B840A1B2BBD";
shapes = (
{
closed = 1;
nodes = (
(150,707,l),
(17,707,l),
(277,0,l),
(404,0,l),
(664,707,l),
(532,707,l),
(342,156,l),
(339,156,l)
);
}
);
userData = {
com.hugojourdan.ColorFlow = {
"0" = 0;
"1" = 0;
"10" = 0;
"11" = 0;
"2" = 0;
"3" = 0;
"4" = 0;
"5" = 0;
"6" = 0;
"7" = 0;
"8" = 0;
"9" = 0;
};
};
width = 681;
},
{
anchors = (
{
name = bottom;
pos = (344,0);
},
{
name = top;
pos = (344,683);
}
);
layerId = m005;
shapes = (
{
closed = 1;
nodes = (
(160,707,l),
(16,707,l),
(276,0,l),
(411,0,l),
(672,707,l),
(527,707,l),
(344,176,l),
(342,176,l)
);
}
);
userData = {
com.hugojourdan.ColorFlow = {
"0" = 0;
"1" = 0;
"10" = 0;
"11" = 0;
"2" = 0;
"3" = 0;
"4" = 0;
"5" = 0;
"6" = 0;
"7" = 0;
"8" = 0;
"9" = 0;
};
};
width = 688;
},
{
anchors = (
{
name = bottom;
pos = (338,0);
},
{
name = top;
pos = (338,663);
}
);
layerId = "1E3F0FE2-7EB2-4B39-B562-A9E797F546FD";
shapes = (
{
closed = 1;
nodes = (
(138,707,l),
(19,707,l),
(278,0,l),
(396,0,l),
(656,707,l),
(538,707,l),
(340,134,l),
(335,134,l)
);
}
);
width = 675;
}
);
note = cid00288;
unicode = 86;
}
{
color = 0;
glyphname = X;
kernLeft = KO_X;
kernRight = KO_X;
layers = (
{
anchors = (
{
name = bottom;
pos = (295,0);
},
{
name = top;
pos = (295,626);
}
);
layerId = m003;
shapes = (
{
closed = 1;
nodes = (
(327,346,l),
(560,707,l),
(494,707,l),
(288,388,l)
);
},
{
closed = 1;
nodes = (
(261,367,l),
(27,0,l),
(93,0,l),
(301,326,l)
);
},
{
closed = 1;
nodes = (
(281,331,l),
(492,0,l),
(564,0,l),
(329,357,l),
(297,397,l),
(96,707,l),
(26,707,l),
(255,351,l)
);
}
);
userData = {
com.hugojourdan.ColorFlow = {
"0" = 0;
"1" = 0;
"10" = 0;
"11" = 0;
"2" = 0;
"3" = 0;
"4" = 0;
"5" = 0;
"6" = 0;
"7" = 0;
"8" = 0;
"9" = 0;
};
};
width = 590;
},
{
anchors = (
{
name = bottom;
pos = (309,0);
},
{
name = top;
pos = (309,645);
}
);
layerId = m01;
shapes = (
{
closed = 1;
nodes = (
(359,344,l),
(592,707,l),
(494,707,l),
(302,402,l)
);
},
{
closed = 1;
nodes = (
(260,367,l),
(24,0,l),
(122,0,l),
(316,307,l)
);
},
{
closed = 1;
nodes = (
(300,306,l),
(493,0,l),
(594,0,l),
(362,357,l),
(310,413,l),
(124,707,l),
(24,707,l),
(254,351,l)
);
}
);
userData = {
com.hugojourdan.ColorFlow = {
"0" = 0;
"1" = 0;
"10" = 0;
"11" = 0;
"2" = 0;
"3" = 0;
"4" = 0;
"5" = 0;
"6" = 0;
"7" = 0;
"8" = 0;
"9" = 0;
};
};
width = 618;
},
{
anchors = (
{
name = bottom;
pos = (316,0);
},
{
name = top;
pos = (316,653);
}
);
layerId = "54FF0D0B-6EB9-4889-908D-B8898FFCE7DE";
shapes = (
{
closed = 1;
nodes = (
(375,343,l),
(608,707,l),
(494,707,l),
(310,410,l)
);
},
{
closed = 1;
nodes = (
(259,367,l),
(22,0,l),
(137,0,l),
(323,297,l)
);
},
{
closed = 1;
nodes = (
(310,293,l),
(493,0,l),
(610,0,l),
(380,357,l),
(317,422,l),
(139,707,l),
(22,707,l),
(253,351,l)
);
}
);
userData = {
com.hugojourdan.ColorFlow = {
"0" = 0;
"1" = 0;
"10" = 0;
"11" = 0;
"2" = 0;
"3" = 0;
"4" = 0;
"5" = 0;
"6" = 0;
"7" = 0;
"8" = 0;
"9" = 0;
};
};
width = 632;
},
{
anchors = (
{
name = bottom;
pos = (330,0);
},
{
name = top;
pos = (330,673);
}
);
layerId = "E7059794-B319-4C6D-9648-9B840A1B2BBD";
shapes = (
{
closed = 1;
nodes = (
(406,341,l),
(639,707,l),
(495,707,l),
(324,425,l)
);
},
{
closed = 1;
nodes = (
(258,368,l),
(20,0,l),
(165,0,l),
(339,281,l)
);
},
{
closed = 1;
nodes = (
(328,271,l),
(494,0,l),
(640,0,l),
(413,357,l),
(332,435,l),
(166,707,l),
(20,707,l),
(251,351,l)
);
}
);
userData = {
com.hugojourdan.ColorFlow = {
"0" = 0;
"1" = 0;
"10" = 0;
"11" = 0;
"2" = 0;
"3" = 0;
"4" = 0;
"5" = 0;
"6" = 0;
"7" = 0;
"8" = 0;
"9" = 0;
};
};
width = 660;
},
{
anchors = (
{
name = bottom;
pos = (337,0);
},
{
name = top;
pos = (337,683);
}
);
layerId = m005;
shapes = (
{
closed = 1;
nodes = (
(421,340,l),
(654,707,l),
(495,707,l),
(330,431,l)
);
},
{
closed = 1;
nodes = (
(258,368,l),
(19,0,l),
(178,0,l),
(347,274,l)
);
},
{
closed = 1;
nodes = (
(335,262,l),
(495,0,l),
(654,0,l),
(428,357,l),
(340,439,l),
(179,707,l),
(19,707,l),
(251,351,l)
);
}
);
userData = {
com.hugojourdan.ColorFlow = {
"0" = 0;
"1" = 0;
"10" = 0;
"11" = 0;
"2" = 0;
"3" = 0;
"4" = 0;
"5" = 0;
"6" = 0;
"7" = 0;
"8" = 0;
"9" = 0;
};
};
width = 673;
},
{
anchors = (
{
name = bottom;
pos = (323,0);
},
{
name = top;
pos = (323,663);
}
);
layerId = "1E3F0FE2-7EB2-4B39-B562-A9E797F546FD";
shapes = (
{
closed = 1;
nodes = (
(391,342,l),
(624,707,l),
(495,707,l),
(317,418,l)
);
},
{
closed = 1;
nodes = (
(259,368,l),
(21,0,l),
(151,0,l),
(331,289,l)
);
},
{
closed = 1;
nodes = (
(319,282,l),
(494,0,l),
(625,0,l),
(397,357,l),
(325,429,l),
(153,707,l),
(21,707,l),
(252,351,l)
);
}
);
width = 646;
}
);
note = cid00300;
unicode = 88;
}
{
color = 0;
glyphname = Y;
kernLeft = KO_Y;
kernRight = KO_Y;
layers = (
{
anchors = (
{
name = bottom;
pos = (304,0);
},
{
name = top;
pos = (304,626);
},
{
name = topleft;
pos = (20,707);
}
);
layerId = m003;
shapes = (
{
closed = 1;
nodes = (
(20,707,l),
(277,295,l),
(277,0,l),
(334,0,l),
(334,295,l),
(587,707,l),
(522,707,l),
(308,347,l),
(303,347,l),
(89,707,l)
);
}
);
userData = {
com.hugojourdan.ColorFlow = {
"0" = 0;
"1" = 0;
"10" = 0;
"11" = 0;
"2" = 0;
"3" = 0;
"4" = 0;
"5" = 0;
"6" = 0;
"7" = 0;
"8" = 0;
"9" = 0;
};
};
width = 607;
},
{
anchors = (
{
name = bottom;
pos = (317,0);
},
{
name = top;
pos = (317,645);
},
{
name = topleft;
pos = (20,707);
}
);
layerId = m01;
shapes = (
{
closed = 1;
nodes = (
(18,707,l),
(276,292,l),
(276,0,l),
(360,0,l),
(360,292,l),
(616,707,l),
(520,707,l),
(320,371,l),
(316,371,l),
(116,707,l)
);
}
);
userData = {
com.hugojourdan.ColorFlow = {
"0" = 0;
"1" = 0;
"10" = 0;
"11" = 0;
"2" = 0;
"3" = 0;
"4" = 0;
"5" = 0;
"6" = 0;
"7" = 0;
"8" = 0;
"9" = 0;
};
};
width = 634;
},
{
anchors = (
{
name = bottom;
pos = (324,0);
},
{
name = top;
pos = (324,653);
},
{
name = topleft;
pos = (20,707);
}
);
layerId = "54FF0D0B-6EB9-4889-908D-B8898FFCE7DE";
shapes = (
{
closed = 1;
nodes = (
(16,707,l),
(275,291,l),
(275,0,l),
(374,0,l),
(374,291,l),
(631,707,l),
(518,707,l),
(326,384,l),
(322,384,l),
(130,707,l)
);
}
);
userData = {
com.hugojourdan.ColorFlow = {
"0" = 0;
"1" = 0;
"10" = 0;
"11" = 0;
"2" = 0;
"3" = 0;
"4" = 0;
"5" = 0;
"6" = 0;
"7" = 0;
"8" = 0;
"9" = 0;
};
};
width = 647;
},
{
anchors = (
{
name = bottom;
pos = (336,0);
},
{
name = top;
pos = (336,673);
},
{
name = topleft;
pos = (20,707);
}
);
layerId = "E7059794-B319-4C6D-9648-9B840A1B2BBD";
shapes = (
{
closed = 1;
nodes = (
(13,707,l),
(273,288,l),
(273,0,l),
(399,0,l),
(399,288,l),
(658,707,l),
(515,707,l),
(337,408,l),
(334,408,l),
(156,707,l)
);
}
);
userData = {
com.hugojourdan.ColorFlow = {
"0" = 0;
"1" = 0;
"10" = 0;
"11" = 0;
"2" = 0;
"3" = 0;
"4" = 0;
"5" = 0;
"6" = 0;
"7" = 0;
"8" = 0;
"9" = 0;
};
};
width = 671;
},
{
anchors = (
{
name = bottom;
pos = (342,0);
},
{
name = top;
pos = (342,683);
},
{
name = topleft;
pos = (20,707);
}
);
layerId = m005;
shapes = (
{
closed = 1;
nodes = (
(12,707,l),
(272,286,l),
(272,0,l),
(410,0,l),
(410,286,l),
(671,707,l),
(514,707,l),
(342,419,l),
(340,419,l),
(168,707,l)
);
}
);
userData = {
com.hugojourdan.ColorFlow = {
"0" = 0;
"1" = 0;
"10" = 0;
"11" = 0;
"2" = 0;
"3" = 0;
"4" = 0;
"5" = 0;
"6" = 0;
"7" = 0;
"8" = 0;
"9" = 0;
};
};
width = 683;
},
{
anchors = (
{
name = bottom;
pos = (330,0);
},
{
name = top;
pos = (330,663);
},
{
name = topleft;
pos = (20,707);
}
);
layerId = "1E3F0FE2-7EB2-4B39-B562-A9E797F546FD";
shapes = (
{
closed = 1;
nodes = (
(15,707,l),
(274,290,l),
(274,0,l),
(387,0,l),
(387,290,l),
(645,707,l),
(517,707,l),
(332,396,l),
(328,396,l),
(143,707,l)
);
}
);
width = 659;
}
);
note = cid00303;
unicode = 89;
}
{
color = 0;
glyphname = Z;
kernLeft = KO_Z;
kernRight = KO_Z;
layers = (
{
anchors = (
{
name = bottom;
pos = (274,0);
},
{
name = center;
pos = (274,354);
},
{
name = top;
pos = (274,626);
}
);
layerId = m003;
shapes = (
{
closed = 1;
nodes = (
(41,0,l),
(515,0,l),
(515,54,l),
(83,54,l),
(87,27,l),
(512,667,l),
(512,707,l),
(37,707,l),
(37,654,l),
(477,654,l),
(462,678,l),
(41,40,l)
);
}
);
userData = {
com.hugojourdan.ColorFlow = {
"0" = 0;
"1" = 0;
"10" = 0;
"11" = 0;
"2" = 0;
"3" = 0;
"4" = 0;
"5" = 0;
"6" = 0;
"7" = 0;
"8" = 0;
"9" = 0;
};
};
width = 548;
},
{
anchors = (
{
name = bottom;
pos = (281,0);
},
{
name = center;
pos = (281,354);
},
{
name = top;
pos = (281,645);
}
);
layerId = m01;
shapes = (
{
closed = 1;
nodes = (
(40,0,l),
(529,0,l),
(529,74,l),
(102,74,l),
(114,35,l),
(526,651,l),
(526,707,l),
(36,707,l),
(36,633,l),
(468,633,l),
(449,669,l),
(40,56,l)
);
}
);
userData = {
com.hugojourdan.ColorFlow = {
"0" = 0;
"1" = 0;
"10" = 0;
"11" = 0;
"2" = 0;
"3" = 0;
"4" = 0;
"5" = 0;
"6" = 0;
"7" = 0;
"8" = 0;
"9" = 0;
};
};
width = 561;
},
{
anchors = (
{
name = bottom;
pos = (284,0);
},
{
name = center;
pos = (284,354);
},
{
name = top;
pos = (284,653);
}
);
layerId = "54FF0D0B-6EB9-4889-908D-B8898FFCE7DE";
shapes = (
{
closed = 1;
nodes = (
(39,0,l),
(537,0,l),
(537,86,l),
(112,86,l),
(129,40,l),
(533,642,l),
(533,707,l),
(35,707,l),
(35,622,l),
(463,622,l),
(442,665,l),
(39,65,l)
);
}
);
userData = {
com.hugojourdan.ColorFlow = {
"0" = 0;
"1" = 0;
"10" = 0;
"11" = 0;
"2" = 0;
"3" = 0;
"4" = 0;
"5" = 0;
"6" = 0;
"7" = 0;
"8" = 0;
"9" = 0;
};
};
width = 568;
},
{
anchors = (
{
name = bottom;
pos = (290,0);
},
{
name = center;
pos = (290,354);
},
{
name = top;
pos = (290,673);
}
);
layerId = "E7059794-B319-4C6D-9648-9B840A1B2BBD";
shapes = (
{
closed = 1;
nodes = (
(38,0,l),
(550,0,l),
(550,106,l),
(130,106,l),
(155,48,l),
(546,626,l),
(546,707,l),
(34,707,l),
(34,601,l),
(453,601,l),
(428,656,l),
(38,81,l)
);
}
);
userData = {
com.hugojourdan.ColorFlow = {
"0" = 0;
"1" = 0;
"10" = 0;
"11" = 0;
"2" = 0;
"3" = 0;
"4" = 0;
"5" = 0;
"6" = 0;
"7" = 0;
"8" = 0;
"9" = 0;
};
};
width = 580;
},
{
anchors = (
{
name = bottom;
pos = (293,0);
},
{
name = center;
pos = (293,354);
},
{
name = top;
pos = (293,683);
}
);
layerId = m005;
shapes = (
{
closed = 1;
nodes = (
(37,0,l),
(556,0,l),
(556,115,l),
(138,115,l),
(166,52,l),
(552,619,l),
(552,707,l),
(33,707,l),
(33,592,l),
(448,592,l),
(421,652,l),
(37,88,l)
);
}
);
userData = {
com.hugojourdan.ColorFlow = {
"0" = 0;
"1" = 0;
"10" = 0;
"11" = 0;
"2" = 0;
"3" = 0;
"4" = 0;
"5" = 0;
"6" = 0;
"7" = 0;
"8" = 0;
"9" = 0;
};
};
width = 585;
},
{
anchors = (
{
name = bottom;
pos = (287,0);
},
{
name = center;
pos = (287,354);
},
{
name = top;
pos = (287,663);
}
);
layerId = "1E3F0FE2-7EB2-4B39-B562-A9E797F546FD";
shapes = (
{
closed = 1;
nodes = (
(39,0,l),
(544,0,l),
(544,96,l),
(121,96,l),
(142,44,l),
(540,634,l),
(540,707,l),
(35,707,l),
(35,612,l),
(458,612,l),
(435,661,l),
(39,73,l)
);
}
);
width = 574;
}
);
note = cid00314;
unicode = 90;
}
{
color = 0;
glyphname = bracketleft;
layers = (
{
hints = (
{
horizontal = 1;
place = (-120,76);
type = Stem;
},
{
horizontal = 1;
place = (624,76);
type = Stem;
},
{
place = (111,84);
type = Stem;
}
);
layerId = m003;
shapes = (
{
closed = 1;
nodes = (
(168,-153,l),
(223,-153,l),
(223,788,l),
(168,788,l)
);
},
{
closed = 1;
nodes = (
(186,736,l),
(392,736,l),
(392,788,l),
(186,788,l)
);
},
{
closed = 1;
nodes = (
(186,-153,l),
(392,-153,l),
(392,-100,l),
(186,-100,l)
);
}
);
userData = {
com.hugojourdan.ColorFlow = {
"0" = 0;
"1" = 0;
"10" = 0;
"11" = 0;
"2" = 0;
"3" = 0;
"4" = 0;
"5" = 0;
"6" = 0;
"7" = 0;
"8" = 0;
"9" = 0;
};
};
width = 422;
},
{
hints = (
{
horizontal = 1;
place = (-120,91);
type = Stem;
},
{
horizontal = 1;
place = (610,91);
type = Stem;
},
{
place = (104,104);
type = Stem;
}
);
layerId = m01;
shapes = (
{
closed = 1;
nodes = (
(162,-156,l),
(232,-156,l),
(232,788,l),
(162,788,l)
);
},
{
closed = 1;
nodes = (
(193,721,l),
(399,721,l),
(399,788,l),
(193,788,l)
);
},
{
closed = 1;
nodes = (
(193,-156,l),
(399,-156,l),
(399,-89,l),
(193,-89,l)
);
}
);
userData = {
com.hugojourdan.ColorFlow = {
"0" = 0;
"1" = 0;
"10" = 0;
"11" = 0;
"2" = 0;
"3" = 0;
"4" = 0;
"5" = 0;
"6" = 0;
"7" = 0;
"8" = 0;
"9" = 0;
};
};
width = 424;
},
{
hints = (
{
horizontal = 1;
place = (-120,98);
type = Stem;
},
{
horizontal = 1;
place = (603,98);
type = Stem;
},
{
place = (101,114);
type = Stem;
}
);
layerId = "54FF0D0B-6EB9-4889-908D-B8898FFCE7DE";
shapes = (
{
closed = 1;
nodes = (
(159,-157,l),
(240,-157,l),
(240,788,l),
(159,788,l)
);
},
{
closed = 1;
nodes = (
(197,710,l),
(402,710,l),
(402,788,l),
(197,788,l)
);
},
{
closed = 1;
nodes = (
(197,-157,l),
(402,-157,l),
(402,-79,l),
(197,-79,l)
);
}
);
userData = {
com.hugojourdan.ColorFlow = {
"0" = 0;
"1" = 0;
"10" = 0;
"11" = 0;
"2" = 0;
"3" = 0;
"4" = 0;
"5" = 0;
"6" = 0;
"7" = 0;
"8" = 0;
"9" = 0;
};
};
width = 425;
},
{
hints = (
{
horizontal = 1;
place = (-120,105);
type = Stem;
},
{
horizontal = 1;
place = (595,105);
type = Stem;
},
{
place = (97,123);
type = Stem;
}
);
layerId = "E7059794-B319-4C6D-9648-9B840A1B2BBD";
shapes = (
{
closed = 1;
nodes = (
(155,-158,l),
(254,-158,l),
(254,788,l),
(155,788,l)
);
},
{
closed = 1;
nodes = (
(200,693,l),
(405,693,l),
(405,788,l),
(200,788,l)
);
},
{
closed = 1;
nodes = (
(200,-158,l),
(405,-158,l),
(405,-63,l),
(200,-63,l)
);
}
);
userData = {
com.hugojourdan.ColorFlow = {
"0" = 0;
"1" = 0;
"10" = 0;
"11" = 0;
"2" = 0;
"3" = 0;
"4" = 0;
"5" = 0;
"6" = 0;
"7" = 0;
"8" = 0;
"9" = 0;
};
};
width = 424;
},
{
hints = (
{
horizontal = 1;
place = (-120,105);
type = Stem;
},
{
horizontal = 1;
place = (595,105);
type = Stem;
},
{
place = (97,123);
type = Stem;
}
);
layerId = m005;
shapes = (
{
closed = 1;
nodes = (
(155,-158,l),
(260,-158,l),
(260,788,l),
(155,788,l)
);
},
{
closed = 1;
nodes = (
(200,688,l),
(405,688,l),
(405,788,l),
(200,788,l)
);
},
{
closed = 1;
nodes = (
(200,-158,l),
(405,-158,l),
(405,-58,l),
(200,-58,l)
);
}
);
userData = {
com.hugojourdan.ColorFlow = {
"0" = 0;
"1" = 0;
"10" = 0;
"11" = 0;
"2" = 0;
"3" = 0;
"4" = 0;
"5" = 0;
"6" = 0;
"7" = 0;
"8" = 0;
"9" = 0;
};
};
width = 423;
},
{
hints = (
{
horizontal = 1;
place = (-120,102);
type = Stem;
},
{
horizontal = 1;
place = (599,102);
type = Stem;
},
{
place = (99,119);
type = Stem;
}
);
layerId = "1E3F0FE2-7EB2-4B39-B562-A9E797F546FD";
shapes = (
{
closed = 1;
nodes = (
(157,-157,l),
(247,-157,l),
(247,788,l),
(157,788,l)
);
},
{
closed = 1;
nodes = (
(199,702,l),
(404,702,l),
(404,788,l),
(199,788,l)
);
},
{
closed = 1;
nodes = (
(199,-157,l),
(404,-157,l),
(404,-71,l),
(199,-71,l)
);
}
);
width = 425;
}
);
unicode = 91;
}
{
color = 0;
glyphname = backslash;
layers = (
{
layerId = m003;
shapes = (
{
closed = 1;
nodes = (
(305,-106,l),
(75,745,l),
(19,745,l),
(249,-106,l)
);
}
);
userData = {
com.hugojourdan.ColorFlow = {
"0" = 0;
"1" = 0;
"10" = 0;
"11" = 0;
"2" = 0;
"3" = 0;
"4" = 0;
"5" = 0;
"6" = 0;
"7" = 0;
"8" = 0;
"9" = 0;
};
};
width = 324;
},
{
layerId = m01;
shapes = (
{
closed = 1;
nodes = (
(322,-106,l),
(92,745,l),
(17,745,l),
(247,-106,l)
);
}
);
userData = {
com.hugojourdan.ColorFlow = {
"0" = 0;
"1" = 0;
"10" = 0;
"11" = 0;
"2" = 0;
"3" = 0;
"4" = 0;
"5" = 0;
"6" = 0;
"7" = 0;
"8" = 0;
"9" = 0;
};
};
width = 339;
},
{
layerId = "54FF0D0B-6EB9-4889-908D-B8898FFCE7DE";
shapes = (
{
closed = 1;
nodes = (
(337,-106,l),
(107,745,l),
(16,745,l),
(246,-106,l)
);
}
);
userData = {
com.hugojourdan.ColorFlow = {
"0" = 0;
"1" = 0;
"10" = 0;
"11" = 0;
"2" = 0;
"3" = 0;
"4" = 0;
"5" = 0;
"6" = 0;
"7" = 0;
"8" = 0;
"9" = 0;
};
};
width = 353;
},
{
layerId = "E7059794-B319-4C6D-9648-9B840A1B2BBD";
shapes = (
{
closed = 1;
nodes = (
(360,-106,l),
(131,745,l),
(14,745,l),
(243,-106,l)
);
}
);
userData = {
com.hugojourdan.ColorFlow = {
"0" = 0;
"1" = 0;
"10" = 0;
"11" = 0;
"2" = 0;
"3" = 0;
"4" = 0;
"5" = 0;
"6" = 0;
"7" = 0;
"8" = 0;
"9" = 0;
};
};
width = 374;
},
{
layerId = m005;
shapes = (
{
closed = 1;
nodes = (
(368,-106,l),
(139,745,l),
(13,745,l),
(242,-106,l)
);
}
);
userData = {
com.hugojourdan.ColorFlow = {
"0" = 0;
"1" = 0;
"10" = 0;
"11" = 0;
"2" = 0;
"3" = 0;
"4" = 0;
"5" = 0;
"6" = 0;
"7" = 0;
"8" = 0;
"9" = 0;
};
};
width = 381;
},
{
layerId = "1E3F0FE2-7EB2-4B39-B562-A9E797F546FD";
shapes = (
{
closed = 1;
nodes = (
(349,-106,l),
(119,745,l),
(15,745,l),
(245,-106,l)
);
}
);
width = 364;
}
);
unicode = 92;
}
{
color = 0;
glyphname = bracketright;
layers = (
{
hints = (
{
horizontal = 1;
place = (-120,76);
type = Stem;
},
{
horizontal = 1;
place = (624,76);
type = Stem;
},
{
place = (239,84);
type = Stem;
}
);
layerId = m003;
shapes = (
{
closed = 1;
nodes = (
(199,788,l),
(199,-153,l),
(254,-153,l),
(254,788,l)
);
},
{
closed = 1;
nodes = (
(30,788,l),
(30,736,l),
(236,736,l),
(236,788,l)
);
},
{
closed = 1;
nodes = (
(30,-100,l),
(30,-153,l),
(236,-153,l),
(236,-100,l)
);
}
);
userData = {
com.hugojourdan.ColorFlow = {
"0" = 0;
"1" = 0;
"10" = 0;
"11" = 0;
"2" = 0;
"3" = 0;
"4" = 0;
"5" = 0;
"6" = 0;
"7" = 0;
"8" = 0;
"9" = 0;
};
};
width = 422;
},
{
hints = (
{
horizontal = 1;
place = (-120,91);
type = Stem;
},
{
horizontal = 1;
place = (610,91);
type = Stem;
},
{
place = (234,104);
type = Stem;
}
);
layerId = m01;
shapes = (
{
closed = 1;
nodes = (
(192,788,l),
(192,-156,l),
(262,-156,l),
(262,788,l)
);
},
{
closed = 1;
nodes = (
(25,788,l),
(25,721,l),
(230,721,l),
(230,788,l)
);
},
{
closed = 1;
nodes = (
(25,-89,l),
(25,-156,l),
(230,-156,l),
(230,-89,l)
);
}
);
userData = {
com.hugojourdan.ColorFlow = {
"0" = 0;
"1" = 0;
"10" = 0;
"11" = 0;
"2" = 0;
"3" = 0;
"4" = 0;
"5" = 0;
"6" = 0;
"7" = 0;
"8" = 0;
"9" = 0;
};
};
width = 423;
},
{
hints = (
{
horizontal = 1;
place = (-120,98);
type = Stem;
},
{
horizontal = 1;
place = (603,98);
type = Stem;
},
{
place = (232,114);
type = Stem;
}
);
layerId = "54FF0D0B-6EB9-4889-908D-B8898FFCE7DE";
shapes = (
{
closed = 1;
nodes = (
(185,788,l),
(185,-157,l),
(266,-157,l),
(266,788,l)
);
},
{
closed = 1;
nodes = (
(23,788,l),
(23,710,l),
(228,710,l),
(228,788,l)
);
},
{
closed = 1;
nodes = (
(23,-79,l),
(23,-157,l),
(228,-157,l),
(228,-79,l)
);
}
);
userData = {
com.hugojourdan.ColorFlow = {
"0" = 0;
"1" = 0;
"10" = 0;
"11" = 0;
"2" = 0;
"3" = 0;
"4" = 0;
"5" = 0;
"6" = 0;
"7" = 0;
"8" = 0;
"9" = 0;
};
};
width = 424;
},
{
hints = (
{
horizontal = 1;
place = (-120,105);
type = Stem;
},
{
horizontal = 1;
place = (595,105);
type = Stem;
},
{
place = (229,123);
type = Stem;
}
);
layerId = "E7059794-B319-4C6D-9648-9B840A1B2BBD";
shapes = (
{
closed = 1;
nodes = (
(171,788,l),
(171,-158,l),
(269,-158,l),
(269,788,l)
);
},
{
closed = 1;
nodes = (
(19,788,l),
(19,693,l),
(224,693,l),
(224,788,l)
);
},
{
closed = 1;
nodes = (
(19,-63,l),
(19,-158,l),
(224,-158,l),
(224,-63,l)
);
}
);
userData = {
com.hugojourdan.ColorFlow = {
"0" = 0;
"1" = 0;
"10" = 0;
"11" = 0;
"2" = 0;
"3" = 0;
"4" = 0;
"5" = 0;
"6" = 0;
"7" = 0;
"8" = 0;
"9" = 0;
};
};
width = 424;
},
{
hints = (
{
horizontal = 1;
place = (-120,105);
type = Stem;
},
{
horizontal = 1;
place = (595,105);
type = Stem;
},
{
place = (229,123);
type = Stem;
}
);
layerId = m005;
shapes = (
{
closed = 1;
nodes = (
(163,788,l),
(163,-158,l),
(268,-158,l),
(268,788,l)
);
},
{
closed = 1;
nodes = (
(18,788,l),
(18,688,l),
(223,688,l),
(223,788,l)
);
},
{
closed = 1;
nodes = (
(18,-58,l),
(18,-158,l),
(223,-158,l),
(223,-58,l)
);
}
);
userData = {
com.hugojourdan.ColorFlow = {
"0" = 0;
"1" = 0;
"10" = 0;
"11" = 0;
"2" = 0;
"3" = 0;
"4" = 0;
"5" = 0;
"6" = 0;
"7" = 0;
"8" = 0;
"9" = 0;
};
};
width = 423;
},
{
hints = (
{
horizontal = 1;
place = (-120,102);
type = Stem;
},
{
horizontal = 1;
place = (599,102);
type = Stem;
},
{
place = (231,119);
type = Stem;
}
);
layerId = "1E3F0FE2-7EB2-4B39-B562-A9E797F546FD";
shapes = (
{
closed = 1;
nodes = (
(178,788,l),
(178,-157,l),
(268,-157,l),
(268,788,l)
);
},
{
closed = 1;
nodes = (
(21,788,l),
(21,702,l),
(226,702,l),
(226,788,l)
);
},
{
closed = 1;
nodes = (
(21,-71,l),
(21,-157,l),
(226,-157,l),
(226,-71,l)
);
}
);
width = 424;
}
);
unicode = 93;
}
{
color = 0;
glyphname = asciicircum;
layers = (
{
layerId = m003;
shapes = (
{
closed = 1;
nodes = (
(137,396,l),
(322,693,l),
(278,693,l),
(463,396,l),
(524,396,l),
(324,712,l),
(276,712,l),
(76,396,l)
);
}
);
userData = {
com.hugojourdan.ColorFlow = {
"0" = 0;
"1" = 0;
"10" = 0;
"11" = 0;
"2" = 0;
"3" = 0;
"4" = 0;
"5" = 0;
"6" = 0;
"7" = 0;
"8" = 0;
"9" = 0;
};
};
width = 600;
},
{
layerId = m01;
shapes = (
{
closed = 1;
nodes = (
(149,394,l),
(328,684,l),
(273,684,l),
(452,394,l),
(535,394,l),
(335,712,l),
(266,712,l),
(66,394,l)
);
}
);
userData = {
com.hugojourdan.ColorFlow = {
"0" = 0;
"1" = 0;
"10" = 0;
"11" = 0;
"2" = 0;
"3" = 0;
"4" = 0;
"5" = 0;
"6" = 0;
"7" = 0;
"8" = 0;
"9" = 0;
};
};
width = 600;
},
{
layerId = "54FF0D0B-6EB9-4889-908D-B8898FFCE7DE";
shapes = (
{
closed = 1;
nodes = (
(155,393,l),
(332,680,l),
(269,680,l),
(446,393,l),
(540,393,l),
(340,712,l),
(261,712,l),
(61,393,l)
);
}
);
userData = {
com.hugojourdan.ColorFlow = {
"0" = 0;
"1" = 0;
"10" = 0;
"11" = 0;
"2" = 0;
"3" = 0;
"4" = 0;
"5" = 0;
"6" = 0;
"7" = 0;
"8" = 0;
"9" = 0;
};
};
width = 600;
},
{
layerId = "E7059794-B319-4C6D-9648-9B840A1B2BBD";
shapes = (
{
closed = 1;
nodes = (
(167,391,l),
(338,673,l),
(262,673,l),
(434,391,l),
(548,391,l),
(348,712,l),
(253,712,l),
(53,391,l)
);
}
);
userData = {
com.hugojourdan.ColorFlow = {
"0" = 0;
"1" = 0;
"10" = 0;
"11" = 0;
"2" = 0;
"3" = 0;
"4" = 0;
"5" = 0;
"6" = 0;
"7" = 0;
"8" = 0;
"9" = 0;
};
};
width = 600;
},
{
layerId = m005;
shapes = (
{
closed = 1;
nodes = (
(172,390,l),
(341,671,l),
(259,671,l),
(428,390,l),
(550,390,l),
(350,712,l),
(250,712,l),
(50,390,l)
);
}
);
userData = {
com.hugojourdan.ColorFlow = {
"0" = 0;
"1" = 0;
"10" = 0;
"11" = 0;
"2" = 0;
"3" = 0;
"4" = 0;
"5" = 0;
"6" = 0;
"7" = 0;
"8" = 0;
"9" = 0;
};
};
width = 600;
},
{
layerId = "1E3F0FE2-7EB2-4B39-B562-A9E797F546FD";
shapes = (
{
closed = 1;
nodes = (
(161,392,l),
(335,677,l),
(266,677,l),
(440,392,l),
(544,392,l),
(344,712,l),
(257,712,l),
(57,392,l)
);
}
);
width = 600;
}
);
unicode = 94;
}
{
color = 0;
glyphname = grave;
layers = (
{
layerId = m003;
shapes = (
{
closed = 1;
nodes = (
(255,605,l),
(315,605,l),
(223,760,l),
(150,760,l)
);
}
);
userData = {
com.hugojourdan.ColorFlow = {
"0" = 0;
"1" = 0;
"10" = 0;
"11" = 0;
"2" = 0;
"3" = 0;
"4" = 0;
"5" = 0;
"6" = 0;
"7" = 0;
"8" = 0;
"9" = 0;
};
};
width = 465;
},
{
layerId = m01;
shapes = (
{
closed = 1;
nodes = (
(245,603,l),
(329,603,l),
(245,759,l),
(140,759,l)
);
}
);
userData = {
com.hugojourdan.ColorFlow = {
"0" = 0;
"1" = 0;
"10" = 0;
"11" = 0;
"2" = 0;
"3" = 0;
"4" = 0;
"5" = 0;
"6" = 0;
"7" = 0;
"8" = 0;
"9" = 0;
};
};
width = 470;
},
{
layerId = "54FF0D0B-6EB9-4889-908D-B8898FFCE7DE";
shapes = (
{
closed = 1;
nodes = (
(241,602,l),
(337,602,l),
(256,759,l),
(135,759,l)
);
}
);
userData = {
com.hugojourdan.ColorFlow = {
"0" = 0;
"1" = 0;
"10" = 0;
"11" = 0;
"2" = 0;
"3" = 0;
"4" = 0;
"5" = 0;
"6" = 0;
"7" = 0;
"8" = 0;
"9" = 0;
};
};
width = 473;
},
{
layerId = "E7059794-B319-4C6D-9648-9B840A1B2BBD";
shapes = (
{
closed = 1;
nodes = (
(234,600,l),
(348,600,l),
(273,758,l),
(128,758,l)
);
}
);
userData = {
com.hugojourdan.ColorFlow = {
"0" = 0;
"1" = 0;
"10" = 0;
"11" = 0;
"2" = 0;
"3" = 0;
"4" = 0;
"5" = 0;
"6" = 0;
"7" = 0;
"8" = 0;
"9" = 0;
};
};
width = 477;
},
{
layerId = m005;
shapes = (
{
closed = 1;
nodes = (
(232,599,l),
(352,599,l),
(279,758,l),
(126,758,l)
);
}
);
userData = {
com.hugojourdan.ColorFlow = {
"0" = 0;
"1" = 0;
"10" = 0;
"11" = 0;
"2" = 0;
"3" = 0;
"4" = 0;
"5" = 0;
"6" = 0;
"7" = 0;
"8" = 0;
"9" = 0;
};
};
width = 478;
},
{
layerId = "1E3F0FE2-7EB2-4B39-B562-A9E797F546FD";
shapes = (
{
closed = 1;
nodes = (
(238,601,l),
(343,601,l),
(265,759,l),
(132,759,l)
);
}
);
width = 475;
}
);
unicode = 96;
}
{
color = 0;
glyphname = a;
kernLeft = KO_a;
kernRight = KO_a;
layers = (
{
anchors = (
{
name = bottom;
pos = (269,0);
},
{
name = ogonek;
pos = (482,0);
},
{
name = top;
pos = (269,505);
}
);
layerId = m003;
name = Regular;
shapes = (
{
closed = 1;
nodes = (
(512,52,l),
(455,52,l),
(455,332,ls),
(455,448,o),
(392,511,o),
(269,511,cs),
(149,511,o),
(83,457,o),
(74,369,c),
(133,369,l),
(141,424,o),
(186,461,o),
(266,461,cs),
(354,461,o),
(398,420,o),
(398,340,cs),
(398,285,l),
(234,285,ls),
(116,285,o),
(50,232,o),
(50,141,cs),
(50,45,o),
(110,-10,o),
(218,-10,cs),
(301,-10,o),
(372,23,o),
(405,96,c),
(398,96,l),
(398,20,o),
(423,0,o),
(465,0,cs),
(512,0,l)
);
},
{
closed = 1;
nodes = (
(112,199,o),
(155,235,o),
(235,235,cs),
(398,235,l),
(398,184,ls),
(398,93,o),
(335,41,o),
(228,41,cs),
(150,41,o),
(108,78,o),
(110,142,cs)
);
}
);
userData = {
com.hugojourdan.ColorFlow = {
"0" = 0;
"1" = 0;
"10" = 0;
"11" = 0;
"2" = 0;
"3" = 0;
"4" = 0;
"5" = 0;
"6" = 0;
"7" = 0;
"8" = 0;
"9" = 0;
};
};
width = 538;
},
{
anchors = (
{
name = bottom;
pos = (274,0);
},
{
name = ogonek;
pos = (487,0);
},
{
name = top;
pos = (274,505);
}
);
layerId = m01;
name = Regular;
shapes = (
{
closed = 1;
nodes = (
(522,70,l),
(473,70,l),
(473,332,ls),
(473,483,o),
(367,515,o),
(272,515,cs),
(156,515,o),
(76,464,o),
(64,365,c),
(145,365,l),
(153,426,o),
(188,447,o),
(269,447,cs),
(364,447,o),
(393,415,o),
(393,340,cs),
(393,291,l),
(237,291,ls),
(139,291,o),
(46,256,o),
(46,144,cs),
(46,36,o),
(105,-10,o),
(221,-10,cs),
(327,-10,o),
(377,40,o),
(398,105,c),
(391,115,l),
(390,30,o),
(420,0,o),
(469,0,cs),
(522,0,l)
);
},
{
closed = 1;
nodes = (
(124,203,o),
(162,231,o),
(238,231,cs),
(393,231,l),
(393,186,ls),
(393,109,o),
(329,58,o),
(230,58,cs),
(156,58,o),
(124,79,o),
(124,141,cs)
);
}
);
userData = {
com.hugojourdan.ColorFlow = {
"0" = 0;
"1" = 0;
"10" = 0;
"11" = 0;
"2" = 0;
"3" = 0;
"4" = 0;
"5" = 0;
"6" = 0;
"7" = 0;
"8" = 0;
"9" = 0;
};
};
width = 547;
},
{
anchors = (
{
name = bottom;
pos = (275,0);
},
{
name = ogonek;
pos = (489,0);
},
{
name = top;
pos = (275,505);
}
);
layerId = "54FF0D0B-6EB9-4889-908D-B8898FFCE7DE";
name = Regular;
shapes = (
{
closed = 1;
nodes = (
(525,81,l),
(480,81,l),
(480,335,ls),
(480,485,o),
(369,518,o),
(273,518,cs),
(155,518,o),
(70,463,o),
(60,362,c),
(155,362,l),
(163,417,o),
(197,440,o),
(270,440,cs),
(354,440,o),
(386,409,o),
(386,343,cs),
(386,298,l),
(239,298,ls),
(141,298,o),
(42,264,o),
(42,146,cs),
(42,38,o),
(107,-10,o),
(223,-10,cs),
(327,-10,o),
(376,41,o),
(397,108,c),
(385,113,l),
(386,37,o),
(414,0,o),
(468,0,cs),
(525,0,l)
);
},
{
closed = 1;
nodes = (
(134,200,o),
(170,228,o),
(240,228,cs),
(386,228,l),
(386,188,ls),
(386,117,o),
(327,68,o),
(232,68,cs),
(165,68,o),
(134,91,o),
(134,145,cs)
);
}
);
userData = {
com.hugojourdan.ColorFlow = {
"0" = 0;
"1" = 0;
"10" = 0;
"11" = 0;
"2" = 0;
"3" = 0;
"4" = 0;
"5" = 0;
"6" = 0;
"7" = 0;
"8" = 0;
"9" = 0;
};
};
width = 549;
},
{
anchors = (
{
name = bottom;
pos = (280,0);
},
{
name = ogonek;
pos = (503,0);
},
{
name = top;
pos = (280,505);
}
);
layerId = "E7059794-B319-4C6D-9648-9B840A1B2BBD";
name = Regular;
shapes = (
{
closed = 1;
nodes = (
(537,99,l),
(494,99,l),
(494,338,ls),
(494,490,o),
(372,525,o),
(280,525,cs),
(159,525,o),
(63,465,o),
(56,360,c),
(178,360,l),
(184,407,o),
(213,431,o),
(277,431,cs),
(343,431,o),
(374,403,o),
(374,346,cs),
(374,311,l),
(246,311,ls),
(148,311,o),
(37,279,o),
(37,150,cs),
(37,40,o),
(113,-10,o),
(227,-10,cs),
(322,-10,o),
(374,38,o),
(397,110,c),
(374,110,l),
(376,46,o),
(407,0,o),
(467,0,cs),
(537,0,l)
);
},
{
closed = 1;
nodes = (
(155,199,o),
(185,225,o),
(247,225,cs),
(374,225,l),
(374,193,ls),
(374,127,o),
(325,84,o),
(240,84,cs),
(182,84,o),
(155,107,o),
(155,153,cs)
);
}
);
userData = {
com.hugojourdan.ColorFlow = {
"0" = 0;
"1" = 0;
"10" = 0;
"11" = 0;
"2" = 0;
"3" = 0;
"4" = 0;
"5" = 0;
"6" = 0;
"7" = 0;
"8" = 0;
"9" = 0;
};
};
width = 559;
},
{
anchors = (
{
name = bottom;
pos = (284,0);
},
{
name = ogonek;
pos = (511,0);
},
{
name = top;
pos = (284,505);
}
);
layerId = m005;
name = Regular;
shapes = (
{
closed = 1;
nodes = (
(546,105,l),
(500,105,l),
(500,338,ls),
(500,494,o),
(373,529,o),
(286,529,cs),
(164,529,o),
(62,468,o),
(56,360,c),
(190,360,l),
(196,407,o),
(219,429,o),
(283,429,cs),
(343,429,o),
(369,402,o),
(369,346,cs),
(369,317,l),
(252,317,ls),
(153,317,o),
(36,285,o),
(36,151,cs),
(36,41,o),
(118,-10,o),
(228,-10,cs),
(316,-10,o),
(372,35,o),
(398,108,c),
(369,108,l),
(371,47,o),
(406,0,o),
(468,0,cs),
(546,0,l)
);
},
{
closed = 1;
nodes = (
(166,202,o),
(192,226,o),
(253,226,cs),
(369,226,l),
(369,196,ls),
(369,130,o),
(325,90,o),
(246,90,cs),
(190,90,o),
(166,112,o),
(166,157,cs)
);
}
);
userData = {
com.hugojourdan.ColorFlow = {
"0" = 0;
"1" = 0;
"10" = 0;
"11" = 0;
"2" = 0;
"3" = 0;
"4" = 0;
"5" = 0;
"6" = 0;
"7" = 0;
"8" = 0;
"9" = 0;
};
};
width = 568;
},
{
associatedMasterId = "E7059794-B319-4C6D-9648-9B840A1B2BBD";
layerId = "6B43D2AA-955B-4FAA-B6F9-CD1C9A045C07";
name = "24년 9월 12일 15:57";
shapes = (
{
closed = 1;
nodes = (
(586,99,l),
(543,99,l),
(446,110,l),
(423,110,l),
(425,46,o),
(456,0,o),
(516,0,cs),
(586,0,l)
);
},
{
closed = 1;
nodes = (
(422,164,l),
(437,99,l),
(544,0,l),
(544,514,l),
(422,514,l)
);
},
{
closed = 1;
nodes = (
(407,-10,o),
(465,104,o),
(465,257,cs),
(465,410,o),
(407,525,o),
(259,525,cs),
(135,525,o),
(38,445,o),
(38,257,cs),
(38,80,o),
(126,-10,o),
(259,-10,cs)
);
},
{
closed = 1;
nodes = (
(204,87,o),
(160,142,o),
(160,257,cs),
(160,373,o),
(204,428,o),
(293,428,cs),
(380,428,o),
(423,373,o),
(423,257,cs),
(423,142,o),
(380,87,o),
(293,87,cs)
);
}
);
width = 608;
},
{
anchors = (
{
name = bottom;
pos = (278,0);
},
{
name = ogonek;
pos = (496,0);
},
{
name = top;
pos = (278,505);
}
);
layerId = "1E3F0FE2-7EB2-4B39-B562-A9E797F546FD";
name = Regular;
shapes = (
{
closed = 1;
nodes = (
(531,90,l),
(487,90,l),
(487,337,ls),
(487,488,o),
(371,522,o),
(277,522,cs),
(157,522,o),
(67,465,o),
(58,361,c),
(167,361,l),
(174,412,o),
(205,436,o),
(274,436,cs),
(349,436,o),
(380,406,o),
(380,345,cs),
(380,305,l),
(243,305,ls),
(145,305,o),
(40,272,o),
(40,148,cs),
(40,39,o),
(110,-10,o),
(225,-10,cs),
(325,-10,o),
(375,40,o),
(397,109,c),
(380,112,l),
(381,42,o),
(411,0,o),
(468,0,cs),
(531,0,l)
);
},
{
closed = 1;
nodes = (
(145,200,o),
(178,227,o),
(244,227,cs),
(380,227,l),
(380,191,ls),
(380,122,o),
(326,76,o),
(236,76,cs),
(174,76,o),
(145,99,o),
(145,149,cs)
);
}
);
width = 554;
}
);
note = cid00416;
unicode = 97;
userData = {
KernOnName = a;
};
}
{
color = 0;
glyphname = b;
kernLeft = KO_h;
kernRight = KO_b;
layers = (
{
anchors = (
{
name = bottom;
pos = (291,0);
},
{
name = top;
pos = (112,707);
}
);
layerId = m003;
name = Regular;
shapes = (
{
closed = 1;
nodes = (
(83,717,l),
(83,0,l),
(140,0,l),
(140,717,l)
);
},
{
closed = 1;
nodes = (
(454,-10,o),
(530,82,o),
(530,249,cs),
(530,417,o),
(454,511,o),
(318,511,cs),
(186,511,o),
(113,417,o),
(113,249,cs),
(113,82,o),
(186,-10,o),
(318,-10,cs)
);
},
{
closed = 1;
nodes = (
(197,41,o),
(140,115,o),
(140,249,cs),
(140,384,o),
(197,460,o),
(299,460,cs),
(411,460,o),
(473,384,o),
(473,249,cs),
(473,115,o),
(411,41,o),
(299,41,cs)
);
}
);
userData = {
com.hugojourdan.ColorFlow = {
"0" = 0;
"1" = 0;
"10" = 0;
"11" = 0;
"2" = 0;
"3" = 0;
"4" = 0;
"5" = 0;
"6" = 0;
"7" = 0;
"8" = 0;
"9" = 0;
};
};
width = 581;
},
{
anchors = (
{
name = bottom;
pos = (295,0);
},
{
name = top;
pos = (118,707);
}
);
layerId = m01;
name = Regular;
shapes = (
{
closed = 1;
nodes = (
(78,717,l),
(78,0,l),
(158,0,l),
(158,717,l)
);
},
{
closed = 1;
nodes = (
(464,-10,o),
(542,82,o),
(542,252,cs),
(542,422,o),
(464,515,o),
(325,515,cs),
(188,515,o),
(131,402,o),
(131,252,cs),
(131,102,o),
(188,-10,o),
(325,-10,cs)
);
},
{
closed = 1;
nodes = (
(198,60,o),
(158,137,o),
(158,252,cs),
(158,367,o),
(198,445,o),
(307,445,cs),
(421,445,o),
(462,367,o),
(462,252,cs),
(462,137,o),
(421,60,o),
(307,60,cs)
);
}
);
userData = {
com.hugojourdan.ColorFlow = {
"0" = 0;
"1" = 0;
"10" = 0;
"11" = 0;
"2" = 0;
"3" = 0;
"4" = 0;
"5" = 0;
"6" = 0;
"7" = 0;
"8" = 0;
"9" = 0;
};
};
width = 589;
},
{
anchors = (
{
name = bottom;
pos = (299,0);
},
{
name = top;
pos = (123,707);
}
);
layerId = "54FF0D0B-6EB9-4889-908D-B8898FFCE7DE";
name = Regular;
shapes = (
{
closed = 1;
nodes = (
(75,717,l),
(75,0,l),
(170,0,l),
(170,717,l)
);
},
{
closed = 1;
nodes = (
(472,-10,o),
(554,81,o),
(554,254,cs),
(554,431,o),
(469,518,o),
(334,518,cs),
(196,518,o),
(138,405,o),
(138,254,cs),
(138,102,o),
(196,-10,o),
(334,-10,cs)
);
},
{
closed = 1;
nodes = (
(212,70,o),
(170,137,o),
(170,254,cs),
(170,371,o),
(212,438,o),
(312,438,cs),
(416,438,o),
(459,371,o),
(459,254,cs),
(459,137,o),
(416,70,o),
(312,70,cs)
);
}
);
userData = {
com.hugojourdan.ColorFlow = {
"0" = 0;
"1" = 0;
"10" = 0;
"11" = 0;
"2" = 0;
"3" = 0;
"4" = 0;
"5" = 0;
"6" = 0;
"7" = 0;
"8" = 0;
"9" = 0;
};
};
width = 597;
},
{
anchors = (
{
name = bottom;
pos = (308,0);
},
{
name = top;
pos = (132,707);
}
);
layerId = "E7059794-B319-4C6D-9648-9B840A1B2BBD";
name = Regular;
shapes = (
{
closed = 1;
nodes = (
(71,718,l),
(71,0,l),
(193,0,l),
(193,718,l)
);
},
{
closed = 1;
nodes = (
(489,-10,o),
(577,80,o),
(577,257,cs),
(577,445,o),
(480,525,o),
(356,525,cs),
(208,525,o),
(150,410,o),
(150,257,cs),
(150,104,o),
(208,-10,o),
(356,-10,cs)
);
},
{
closed = 1;
nodes = (
(235,87,o),
(193,142,o),
(193,257,cs),
(193,373,o),
(235,428,o),
(322,428,cs),
(411,428,o),
(455,373,o),
(455,257,cs),
(455,142,o),
(411,87,o),
(322,87,cs)
);
}
);
userData = {
com.hugojourdan.ColorFlow = {
"0" = 0;
"1" = 0;
"10" = 0;
"11" = 0;
"2" = 0;
"3" = 0;
"4" = 0;
"5" = 0;
"6" = 0;
"7" = 0;
"8" = 0;
"9" = 0;
};
};
width = 615;
},
{
anchors = (
{
name = bottom;
pos = (313,0);
},
{
name = top;
pos = (136,707);
}
);
layerId = m005;
name = Regular;
shapes = (
{
closed = 1;
nodes = (
(70,719,l),
(70,0,l),
(204,0,l),
(204,719,l)
);
},
{
closed = 1;
nodes = (
(498,-10,o),
(588,81,o),
(588,258,cs),
(588,450,o),
(487,529,o),
(368,529,cs),
(213,529,o),
(154,411,o),
(154,258,cs),
(154,106,o),
(213,-10,o),
(368,-10,cs)
);
},
{
closed = 1;
nodes = (
(244,94,o),
(204,148,o),
(204,259,cs),
(204,370,o),
(244,425,o),
(327,425,cs),
(412,425,o),
(454,370,o),
(454,259,cs),
(454,148,o),
(412,94,o),
(327,94,cs)
);
}
);
userData = {
com.hugojourdan.ColorFlow = {
"0" = 0;
"1" = 0;
"10" = 0;
"11" = 0;
"2" = 0;
"3" = 0;
"4" = 0;
"5" = 0;
"6" = 0;
"7" = 0;
"8" = 0;
"9" = 0;
};
};
width = 625;
},
{
anchors = (
{
name = bottom;
pos = (304,0);
},
{
name = top;
pos = (128,707);
}
);
layerId = "1E3F0FE2-7EB2-4B39-B562-A9E797F546FD";
name = Regular;
shapes = (
{
closed = 1;
nodes = (
(73,718,l),
(73,0,l),
(182,0,l),
(182,718,l)
);
},
{
closed = 1;
nodes = (
(481,-10,o),
(566,81,o),
(566,256,cs),
(566,438,o),
(475,522,o),
(345,522,cs),
(202,522,o),
(144,408,o),
(144,256,cs),
(144,103,o),
(202,-10,o),
(345,-10,cs)
);
},
{
closed = 1;
nodes = (
(224,79,o),
(182,140,o),
(182,256,cs),
(182,372,o),
(224,433,o),
(317,433,cs),
(414,433,o),
(457,372,o),
(457,256,cs),
(457,140,o),
(414,79,o),
(317,79,cs)
);
}
);
width = 606;
}
);
unicode = 98;
userData = {
KernOnName = b;
};
}
{
color = 0;
glyphname = c;
kernLeft = KO_c;
kernRight = KO_c;
layers = (
{
anchors = (
{
name = bottom;
pos = (279,0);
},
{
name = top;
pos = (279,505);
}
);
layerId = m003;
shapes = (
{
closed = 1;
nodes = (
(403,-10,o),
(468,48,o),
(484,132,c),
(423,132,l),
(410,68,o),
(370,41,o),
(284,41,cs),
(171,41,o),
(108,115,o),
(108,251,cs),
(108,387,o),
(171,460,o),
(284,460,cs),
(374,460,o),
(410,422,o),
(423,363,c),
(483,363,l),
(465,455,o),
(394,511,o),
(283,511,cs),
(134,511,o),
(51,419,o),
(51,251,cs),
(51,83,o),
(128,-10,o),
(285,-10,cs)
);
}
);
userData = {
com.hugojourdan.ColorFlow = {
"0" = 0;
"1" = 0;
"10" = 0;
"11" = 0;
"2" = 0;
"3" = 0;
"4" = 0;
"5" = 0;
"6" = 0;
"7" = 0;
"8" = 0;
"9" = 0;
};
};
width = 532;
},
{
anchors = (
{
name = bottom;
pos = (284,0);
},
{
name = top;
pos = (284,505);
}
);
layerId = m01;
shapes = (
{
closed = 1;
nodes = (
(416,-10,o),
(489,59,o),
(500,146,c),
(419,146,l),
(410,88,o),
(372,60,o),
(289,60,cs),
(167,60,o),
(127,139,o),
(127,252,cs),
(127,365,o),
(167,445,o),
(289,445,cs),
(375,445,o),
(410,408,o),
(418,356,c),
(498,356,l),
(486,452,o),
(405,515,o),
(288,515,cs),
(130,515,o),
(47,422,o),
(47,252,cs),
(47,82,o),
(126,-10,o),
(290,-10,cs)
);
}
);
userData = {
com.hugojourdan.ColorFlow = {
"0" = 0;
"1" = 0;
"10" = 0;
"11" = 0;
"2" = 0;
"3" = 0;
"4" = 0;
"5" = 0;
"6" = 0;
"7" = 0;
"8" = 0;
"9" = 0;
};
};
width = 544;
},
{
anchors = (
{
name = bottom;
pos = (284,0);
},
{
name = top;
pos = (284,505);
}
);
layerId = "54FF0D0B-6EB9-4889-908D-B8898FFCE7DE";
shapes = (
{
closed = 1;
nodes = (
(420,-10,o),
(498,66,o),
(506,154,c),
(410,154,l),
(403,100,o),
(368,71,o),
(289,71,cs),
(176,71,o),
(138,139,o),
(138,254,cs),
(138,368,o),
(176,437,o),
(289,437,cs),
(371,437,o),
(403,399,o),
(409,351,c),
(504,351,l),
(495,449,o),
(408,518,o),
(288,518,cs),
(129,518,o),
(43,422,o),
(43,254,cs),
(43,86,o),
(125,-10,o),
(290,-10,cs)
);
}
);
userData = {
com.hugojourdan.ColorFlow = {
"0" = 0;
"1" = 0;
"10" = 0;
"11" = 0;
"2" = 0;
"3" = 0;
"4" = 0;
"5" = 0;
"6" = 0;
"7" = 0;
"8" = 0;
"9" = 0;
};
};
width = 546;
},
{
anchors = (
{
name = bottom;
pos = (277,0);
},
{
name = top;
pos = (277,505);
}
);
layerId = "E7059794-B319-4C6D-9648-9B840A1B2BBD";
shapes = (
{
closed = 1;
nodes = (
(431,-10,o),
(517,77,o),
(519,169,c),
(397,169,l),
(393,120,o),
(364,89,o),
(291,89,cs),
(194,89,o),
(160,144,o),
(160,257,cs),
(160,371,o),
(194,426,o),
(291,426,cs),
(365,426,o),
(393,385,o),
(395,344,c),
(517,344,l),
(514,447,o),
(417,525,o),
(290,525,cs),
(129,525,o),
(38,427,o),
(38,257,cs),
(38,88,o),
(125,-10,o),
(292,-10,cs)
);
}
);
userData = {
com.hugojourdan.ColorFlow = {
"0" = 0;
"1" = 0;
"10" = 0;
"11" = 0;
"2" = 0;
"3" = 0;
"4" = 0;
"5" = 0;
"6" = 0;
"7" = 0;
"8" = 0;
"9" = 0;
};
};
width = 554;
},
{
anchors = (
{
name = bottom;
pos = (281,0);
},
{
name = top;
pos = (281,505);
}
);
layerId = m005;
shapes = (
{
closed = 1;
nodes = (
(437,-10,o),
(527,82,o),
(527,175,c),
(393,175,l),
(390,129,o),
(363,95,o),
(294,95,cs),
(204,95,o),
(171,148,o),
(171,259,cs),
(171,370,o),
(204,424,o),
(294,424,cs),
(364,424,o),
(390,380,o),
(390,342,c),
(524,342,l),
(524,447,o),
(422,529,o),
(293,529,cs),
(130,529,o),
(37,432,o),
(37,259,cs),
(37,86,o),
(127,-10,o),
(295,-10,cs)
);
}
);
userData = {
com.hugojourdan.ColorFlow = {
"0" = 0;
"1" = 0;
"10" = 0;
"11" = 0;
"2" = 0;
"3" = 0;
"4" = 0;
"5" = 0;
"6" = 0;
"7" = 0;
"8" = 0;
"9" = 0;
};
};
width = 561;
},
{
anchors = (
{
name = bottom;
pos = (281,0);
},
{
name = top;
pos = (281,505);
}
);
layerId = "1E3F0FE2-7EB2-4B39-B562-A9E797F546FD";
shapes = (
{
closed = 1;
nodes = (
(426,-10,o),
(508,72,o),
(513,162,c),
(404,162,l),
(398,109,o),
(366,80,o),
(290,80,cs),
(185,80,o),
(149,142,o),
(149,256,cs),
(149,370,o),
(185,432,o),
(290,432,cs),
(368,432,o),
(398,392,o),
(402,348,c),
(511,348,l),
(505,448,o),
(413,522,o),
(289,522,cs),
(129,522,o),
(41,425,o),
(41,256,cs),
(41,87,o),
(125,-10,o),
(291,-10,cs)
);
}
);
width = 550;
}
);
note = cid00461;
unicode = 99;
userData = {
KernOnName = c;
};
}
{
color = 0;
glyphname = d;
kernLeft = KO_a;
kernRight = KO_d;
layers = (
{
anchors = (
{
name = bottom;
pos = (291,0);
},
{
name = top;
pos = (469,707);
}
);
layerId = m003;
name = Regular;
shapes = (
{
closed = 1;
nodes = (
(441,0,l),
(498,0,l),
(498,717,l),
(441,717,l)
);
},
{
closed = 1;
nodes = (
(395,-10,o),
(468,82,o),
(468,249,cs),
(468,417,o),
(395,511,o),
(263,511,cs),
(127,511,o),
(51,417,o),
(51,249,cs),
(51,82,o),
(127,-10,o),
(263,-10,cs)
);
},
{
closed = 1;
nodes = (
(170,41,o),
(108,115,o),
(108,249,cs),
(108,384,o),
(170,460,o),
(282,460,cs),
(384,460,o),
(441,384,o),
(441,249,cs),
(441,115,o),
(384,41,o),
(282,41,cs)
);
}
);
userData = {
com.hugojourdan.ColorFlow = {
"0" = 0;
"1" = 0;
"10" = 0;
"11" = 0;
"2" = 0;
"3" = 0;
"4" = 0;
"5" = 0;
"6" = 0;
"7" = 0;
"8" = 0;
"9" = 0;
};
};
width = 581;
},
{
anchors = (
{
name = bottom;
pos = (295,0);
},
{
name = top;
pos = (471,707);
}
);
layerId = m01;
name = Regular;
shapes = (
{
closed = 1;
nodes = (
(431,0,l),
(511,0,l),
(511,717,l),
(431,717,l)
);
},
{
closed = 1;
nodes = (
(401,-10,o),
(458,102,o),
(458,252,cs),
(458,402,o),
(401,515,o),
(264,515,cs),
(125,515,o),
(47,422,o),
(47,252,cs),
(47,82,o),
(125,-10,o),
(264,-10,cs)
);
},
{
closed = 1;
nodes = (
(168,60,o),
(127,137,o),
(127,252,cs),
(127,367,o),
(168,445,o),
(282,445,cs),
(391,445,o),
(431,367,o),
(431,252,cs),
(431,137,o),
(391,60,o),
(282,60,cs)
);
}
);
userData = {
com.hugojourdan.ColorFlow = {
"0" = 0;
"1" = 0;
"10" = 0;
"11" = 0;
"2" = 0;
"3" = 0;
"4" = 0;
"5" = 0;
"6" = 0;
"7" = 0;
"8" = 0;
"9" = 0;
};
};
width = 589;
},
{
anchors = (
{
name = bottom;
pos = (299,0);
},
{
name = top;
pos = (474,707);
}
);
layerId = "54FF0D0B-6EB9-4889-908D-B8898FFCE7DE";
name = Regular;
shapes = (
{
closed = 1;
nodes = (
(427,0,l),
(522,0,l),
(522,717,l),
(427,717,l)
);
},
{
closed = 1;
nodes = (
(401,-10,o),
(459,102,o),
(459,254,cs),
(459,405,o),
(401,518,o),
(263,518,cs),
(128,518,o),
(43,431,o),
(43,254,cs),
(43,81,o),
(125,-10,o),
(263,-10,cs)
);
},
{
closed = 1;
nodes = (
(181,70,o),
(138,137,o),
(138,254,cs),
(138,371,o),
(181,438,o),
(285,438,cs),
(385,438,o),
(427,371,o),
(427,254,cs),
(427,137,o),
(385,70,o),
(285,70,cs)
);
}
);
userData = {
com.hugojourdan.ColorFlow = {
"0" = 0;
"1" = 0;
"10" = 0;
"11" = 0;
"2" = 0;
"3" = 0;
"4" = 0;
"5" = 0;
"6" = 0;
"7" = 0;
"8" = 0;
"9" = 0;
};
};
width = 597;
},
{
anchors = (
{
name = bottom;
pos = (308,0);
},
{
name = top;
pos = (484,707);
}
);
layerId = "E7059794-B319-4C6D-9648-9B840A1B2BBD";
name = Regular;
shapes = (
{
closed = 1;
nodes = (
(422,0,l),
(544,0,l),
(544,718,l),
(422,718,l)
);
},
{
closed = 1;
nodes = (
(407,-10,o),
(465,104,o),
(465,257,cs),
(465,410,o),
(407,525,o),
(259,525,cs),
(135,525,o),
(38,445,o),
(38,257,cs),
(38,80,o),
(126,-10,o),
(259,-10,cs)
);
},
{
closed = 1;
nodes = (
(204,87,o),
(160,142,o),
(160,257,cs),
(160,373,o),
(204,428,o),
(293,428,cs),
(380,428,o),
(422,373,o),
(422,257,cs),
(422,142,o),
(380,87,o),
(293,87,cs)
);
}
);
userData = {
com.hugojourdan.ColorFlow = {
"0" = 0;
"1" = 0;
"10" = 0;
"11" = 0;
"2" = 0;
"3" = 0;
"4" = 0;
"5" = 0;
"6" = 0;
"7" = 0;
"8" = 0;
"9" = 0;
};
};
width = 615;
},
{
anchors = (
{
name = bottom;
pos = (313,0);
},
{
name = top;
pos = (488,707);
}
);
layerId = m005;
name = Regular;
shapes = (
{
closed = 1;
nodes = (
(421,0,l),
(555,0,l),
(555,719,l),
(421,719,l)
);
},
{
closed = 1;
nodes = (
(412,-10,o),
(471,106,o),
(471,258,cs),
(471,411,o),
(412,529,o),
(257,529,cs),
(138,529,o),
(37,450,o),
(37,258,cs),
(37,81,o),
(127,-10,o),
(257,-10,cs)
);
},
{
closed = 1;
nodes = (
(213,94,o),
(171,148,o),
(171,259,cs),
(171,370,o),
(213,425,o),
(298,425,cs),
(381,425,o),
(421,370,o),
(421,259,cs),
(421,148,o),
(381,94,o),
(298,94,cs)
);
}
);
userData = {
com.hugojourdan.ColorFlow = {
"0" = 0;
"1" = 0;
"10" = 0;
"11" = 0;
"2" = 0;
"3" = 0;
"4" = 0;
"5" = 0;
"6" = 0;
"7" = 0;
"8" = 0;
"9" = 0;
};
};
width = 625;
},
{
anchors = (
{
name = bottom;
pos = (304,0);
},
{
name = top;
pos = (479,707);
}
);
layerId = "1E3F0FE2-7EB2-4B39-B562-A9E797F546FD";
name = Regular;
shapes = (
{
closed = 1;
nodes = (
(425,0,l),
(533,0,l),
(533,718,l),
(425,718,l)
);
},
{
closed = 1;
nodes = (
(404,-10,o),
(462,103,o),
(462,256,cs),
(462,408,o),
(404,522,o),
(261,522,cs),
(132,522,o),
(41,438,o),
(41,256,cs),
(41,81,o),
(126,-10,o),
(261,-10,cs)
);
},
{
closed = 1;
nodes = (
(193,79,o),
(149,140,o),
(149,256,cs),
(149,372,o),
(193,433,o),
(289,433,cs),
(383,433,o),
(425,372,o),
(425,256,cs),
(425,140,o),
(383,79,o),
(289,79,cs)
);
}
);
width = 606;
}
);
note = cid00471;
unicode = 100;
}
{
color = 0;
glyphname = e;
kernLeft = KO_e;
kernRight = KO_e;
layers = (
{
anchors = (
{
name = bottom;
pos = (273,0);
},
{
name = ogonek;
pos = (391,10);
},
{
name = top;
pos = (273,505);
}
);
layerId = m003;
shapes = (
{
closed = 1;
nodes = (
(70,229,l),
(493,229,l),
(493,251,ls),
(493,442,o),
(395,511,o),
(278,511,cs),
(131,511,o),
(51,419,o),
(51,251,cs),
(51,83,o),
(130,-10,o),
(285,-10,cs),
(413,-10,o),
(458,44,o),
(483,120,c),
(420,120,l),
(405,72,o),
(369,40,o),
(285,40,cs),
(156,40,o),
(108,115,o),
(108,251,cs),
(108,387,o),
(160,461,o),
(278,461,cs),
(386,461,o),
(436,387,o),
(436,276,c),
(71,276,l)
);
}
);
userData = {
com.hugojourdan.ColorFlow = {
"0" = 0;
"1" = 0;
"10" = 0;
"11" = 0;
"2" = 0;
"3" = 0;
"4" = 0;
"5" = 0;
"6" = 0;
"7" = 0;
"8" = 0;
"9" = 0;
};
};
width = 543;
},
{
anchors = (
{
name = bottom;
pos = (278,0);
},
{
name = ogonek;
pos = (393,10);
},
{
name = top;
pos = (278,505);
}
);
layerId = m01;
shapes = (
{
closed = 1;
nodes = (
(85,228,l),
(509,228,l),
(509,253,ls),
(509,449,o),
(399,515,o),
(283,515,cs),
(132,515,o),
(47,422,o),
(47,253,cs),
(47,89,o),
(130,-10,o),
(290,-10,cs),
(402,-10,o),
(477,47,o),
(499,129,c),
(415,129,l),
(399,85,o),
(369,58,o),
(290,58,cs),
(172,58,o),
(127,138,o),
(127,254,cs),
(127,370,o),
(176,447,o),
(283,447,cs),
(379,447,o),
(429,402,o),
(429,290,c),
(86,290,l)
);
}
);
userData = {
com.hugojourdan.ColorFlow = {
"0" = 0;
"1" = 0;
"10" = 0;
"11" = 0;
"2" = 0;
"3" = 0;
"4" = 0;
"5" = 0;
"6" = 0;
"7" = 0;
"8" = 0;
"9" = 0;
};
};
width = 555;
},
{
anchors = (
{
name = bottom;
pos = (279,0);
},
{
name = ogonek;
pos = (401,10);
},
{
name = top;
pos = (279,505);
}
);
layerId = "54FF0D0B-6EB9-4889-908D-B8898FFCE7DE";
shapes = (
{
closed = 1;
nodes = (
(92,225,l),
(515,225,l),
(515,256,ls),
(515,445,o),
(411,518,o),
(284,518,cs),
(131,518,o),
(43,425,o),
(43,254,cs),
(43,87,o),
(128,-10,o),
(291,-10,cs),
(414,-10,o),
(488,49,o),
(507,134,c),
(408,134,l),
(395,92,o),
(367,68,o),
(291,68,cs),
(179,68,o),
(138,131,o),
(138,257,cs),
(138,379,o),
(183,440,o),
(284,440,cs),
(373,440,o),
(420,396,o),
(421,295,c),
(93,295,l)
);
}
);
userData = {
com.hugojourdan.ColorFlow = {
"0" = 0;
"1" = 0;
"10" = 0;
"11" = 0;
"2" = 0;
"3" = 0;
"4" = 0;
"5" = 0;
"6" = 0;
"7" = 0;
"8" = 0;
"9" = 0;
};
};
width = 557;
},
{
anchors = (
{
name = bottom;
pos = (283,0);
},
{
name = ogonek;
pos = (415,10);
},
{
name = top;
pos = (283,505);
}
);
layerId = "E7059794-B319-4C6D-9648-9B840A1B2BBD";
shapes = (
{
closed = 1;
nodes = (
(106,220,l),
(529,220,l),
(529,258,ls),
(529,436,o),
(434,525,o),
(288,525,cs),
(130,525,o),
(38,429,o),
(38,256,cs),
(38,84,o),
(127,-10,o),
(295,-10,cs),
(438,-10,o),
(511,53,o),
(524,143,c),
(398,143,l),
(390,105,o),
(366,85,o),
(295,85,cs),
(194,85,o),
(159,130,o),
(159,258,cs),
(159,383,o),
(198,430,o),
(288,430,cs),
(363,430,o),
(404,383,o),
(407,304,c),
(107,304,l)
);
}
);
userData = {
com.hugojourdan.ColorFlow = {
"0" = 0;
"1" = 0;
"10" = 0;
"11" = 0;
"2" = 0;
"3" = 0;
"4" = 0;
"5" = 0;
"6" = 0;
"7" = 0;
"8" = 0;
"9" = 0;
};
};
width = 566;
},
{
anchors = (
{
name = bottom;
pos = (286,0);
},
{
name = ogonek;
pos = (425,10);
},
{
name = top;
pos = (286,505);
}
);
layerId = m005;
shapes = (
{
closed = 1;
nodes = (
(113,217,l),
(536,217,l),
(536,257,ls),
(536,431,o),
(446,529,o),
(291,529,cs),
(131,529,o),
(37,431,o),
(37,257,cs),
(37,83,o),
(128,-10,o),
(298,-10,cs),
(450,-10,o),
(522,54,o),
(532,147,c),
(394,147,l),
(389,111,o),
(366,92,o),
(298,92,cs),
(202,92,o),
(170,135,o),
(170,257,cs),
(170,379,o),
(206,427,o),
(291,427,cs),
(360,427,o),
(398,377,o),
(402,308,c),
(114,308,l)
);
}
);
userData = {
com.hugojourdan.ColorFlow = {
"0" = 0;
"1" = 0;
"10" = 0;
"11" = 0;
"2" = 0;
"3" = 0;
"4" = 0;
"5" = 0;
"6" = 0;
"7" = 0;
"8" = 0;
"9" = 0;
};
};
width = 572;
},
{
anchors = (
{
name = bottom;
pos = (281,0);
},
{
name = ogonek;
pos = (408,10);
},
{
name = top;
pos = (281,505);
}
);
layerId = "1E3F0FE2-7EB2-4B39-B562-A9E797F546FD";
shapes = (
{
closed = 1;
nodes = (
(99,223,l),
(522,223,l),
(522,257,ls),
(522,441,o),
(423,522,o),
(286,522,cs),
(131,522,o),
(41,427,o),
(41,255,cs),
(41,86,o),
(128,-10,o),
(293,-10,cs),
(426,-10,o),
(500,51,o),
(516,139,c),
(403,139,l),
(392,98,o),
(367,77,o),
(293,77,cs),
(187,77,o),
(149,131,o),
(149,258,cs),
(149,381,o),
(191,435,o),
(286,435,cs),
(368,435,o),
(412,390,o),
(414,300,c),
(100,300,l)
);
}
);
width = 562;
}
);
note = cid00489;
unicode = 101;
}
{
color = 0;
glyphname = f;
kernLeft = KO_f;
kernRight = KO_f;
layers = (
{
anchors = (
{
name = bottom;
pos = (146,0);
},
{
name = top;
pos = (207,707);
}
);
layerId = m003;
shapes = (
{
closed = 1;
nodes = (
(173,665,l),
(298,665,l),
(298,717,l),
(236,717,ls),
(148,717,o),
(116,686,o),
(116,614,cs),
(116,0,l),
(173,0,l)
);
},
{
closed = 1;
nodes = (
(294,451,l),
(294,501,l),
(28,501,l),
(28,451,l)
);
}
);
userData = {
com.hugojourdan.ColorFlow = {
"0" = 0;
"1" = 0;
"10" = 0;
"11" = 0;
"2" = 0;
"3" = 0;
"4" = 0;
"5" = 0;
"6" = 0;
"7" = 0;
"8" = 0;
"9" = 0;
};
};
width = 318;
},
{
anchors = (
{
name = bottom;
pos = (154,0);
},
{
name = top;
pos = (208,707);
}
);
layerId = m01;
shapes = (
{
closed = 1;
nodes = (
(194,647,l),
(321,647,l),
(321,717,l),
(244,717,ls),
(159,717,o),
(114,671,o),
(114,602,cs),
(114,0,l),
(194,0,l)
);
},
{
closed = 1;
nodes = (
(313,435,l),
(313,505,l),
(27,505,l),
(27,435,l)
);
}
);
userData = {
com.hugojourdan.ColorFlow = {
"0" = 0;
"1" = 0;
"10" = 0;
"11" = 0;
"2" = 0;
"3" = 0;
"4" = 0;
"5" = 0;
"6" = 0;
"7" = 0;
"8" = 0;
"9" = 0;
};
};
width = 340;
},
{
anchors = (
{
name = bottom;
pos = (160,0);
},
{
name = top;
pos = (218,707);
}
);
layerId = "54FF0D0B-6EB9-4889-908D-B8898FFCE7DE";
shapes = (
{
closed = 1;
nodes = (
(206,637,l),
(334,637,l),
(334,717,l),
(248,717,ls),
(159,717,o),
(112,668,o),
(112,594,cs),
(112,0,l),
(206,0,l)
);
},
{
closed = 1;
nodes = (
(323,427,l),
(323,507,l),
(26,507,l),
(26,427,l)
);
}
);
userData = {
com.hugojourdan.ColorFlow = {
"0" = 0;
"1" = 0;
"10" = 0;
"11" = 0;
"2" = 0;
"3" = 0;
"4" = 0;
"5" = 0;
"6" = 0;
"7" = 0;
"8" = 0;
"9" = 0;
};
};
width = 352;
},
{
anchors = (
{
name = bottom;
pos = (168,0);
},
{
name = top;
pos = (232,707);
}
);
layerId = "E7059794-B319-4C6D-9648-9B840A1B2BBD";
shapes = (
{
closed = 1;
nodes = (
(229,621,l),
(357,621,l),
(357,718,l),
(256,718,ls),
(160,718,o),
(107,659,o),
(107,584,cs),
(107,0,l),
(229,0,l)
);
},
{
closed = 1;
nodes = (
(342,417,l),
(342,514,l),
(25,514,l),
(25,417,l)
);
}
);
userData = {
com.hugojourdan.ColorFlow = {
"0" = 0;
"1" = 0;
"10" = 0;
"11" = 0;
"2" = 0;
"3" = 0;
"4" = 0;
"5" = 0;
"6" = 0;
"7" = 0;
"8" = 0;
"9" = 0;
};
};
width = 373;
},
{
anchors = (
{
name = bottom;
pos = (172,0);
},
{
name = top;
pos = (241,707);
}
);
layerId = m005;
shapes = (
{
closed = 1;
nodes = (
(239,614,l),
(367,614,l),
(367,719,l),
(259,719,ls),
(160,719,o),
(105,653,o),
(105,582,cs),
(105,0,l),
(239,0,l)
);
},
{
closed = 1;
nodes = (
(351,414,l),
(351,519,l),
(24,519,l),
(24,414,l)
);
}
);
userData = {
com.hugojourdan.ColorFlow = {
"0" = 0;
"1" = 0;
"10" = 0;
"11" = 0;
"2" = 0;
"3" = 0;
"4" = 0;
"5" = 0;
"6" = 0;
"7" = 0;
"8" = 0;
"9" = 0;
};
};
width = 383;
},
{
anchors = (
{
name = bottom;
pos = (164,0);
},
{
name = top;
pos = (225,707);
}
);
layerId = "1E3F0FE2-7EB2-4B39-B562-A9E797F546FD";
shapes = (
{
closed = 1;
nodes = (
(218,629,l),
(346,629,l),
(346,718,l),
(252,718,ls),
(160,718,o),
(110,664,o),
(110,589,cs),
(110,0,l),
(218,0,l)
);
},
{
closed = 1;
nodes = (
(333,422,l),
(333,511,l),
(26,511,l),
(26,422,l)
);
}
);
width = 363;
}
);
note = cid00532;
unicode = 102;
}
{
color = 0;
glyphname = h;
kernLeft = KO_h;
kernRight = KO_h;
layers = (
{
anchors = (
{
name = bottom;
pos = (284,0);
},
{
name = top;
pos = (112,707);
}
);
layerId = m003;
shapes = (
{
closed = 1;
nodes = (
(140,294,ls),
(140,417,o),
(206,461,o),
(294,461,cs),
(380,461,o),
(429,423,o),
(429,310,cs),
(429,0,l),
(486,0,l),
(486,313,ls),
(486,450,o),
(421,511,o),
(308,511,cs),
(218,511,o),
(170,474,o),
(140,417,c),
(140,717,l),
(83,717,l),
(83,0,l),
(140,0,l)
);
}
);
userData = {
com.hugojourdan.ColorFlow = {
"0" = 0;
"1" = 0;
"10" = 0;
"11" = 0;
"2" = 0;
"3" = 0;
"4" = 0;
"5" = 0;
"6" = 0;
"7" = 0;
"8" = 0;
"9" = 0;
};
};
width = 567;
},
{
anchors = (
{
name = bottom;
pos = (281,0);
},
{
name = top;
pos = (118,707);
}
);
layerId = m01;
shapes = (
{
closed = 1;
nodes = (
(158,309,ls),
(158,405,o),
(210,445,o),
(289,445,cs),
(365,445,o),
(407,412,o),
(407,324,cs),
(407,0,l),
(487,0,l),
(487,322,ls),
(487,456,o),
(432,515,o),
(314,515,cs),
(235,515,o),
(191,478,o),
(158,422,c),
(158,717,l),
(78,717,l),
(78,0,l),
(158,0,l)
);
}
);
userData = {
com.hugojourdan.ColorFlow = {
"0" = 0;
"1" = 0;
"10" = 0;
"11" = 0;
"2" = 0;
"3" = 0;
"4" = 0;
"5" = 0;
"6" = 0;
"7" = 0;
"8" = 0;
"9" = 0;
};
};
width = 562;
},
{
anchors = (
{
name = bottom;
pos = (285,0);
},
{
name = top;
pos = (123,707);
}
);
layerId = "54FF0D0B-6EB9-4889-908D-B8898FFCE7DE";
shapes = (
{
closed = 1;
nodes = (
(170,304,ls),
(170,396,o),
(215,437,o),
(294,437,cs),
(366,437,o),
(404,402,o),
(404,319,cs),
(404,0,l),
(499,0,l),
(499,320,ls),
(499,463,o),
(432,518,o),
(319,518,cs),
(242,518,o),
(202,483,o),
(170,434,c),
(170,717,l),
(75,717,l),
(75,0,l),
(170,0,l)
);
}
);
userData = {
com.hugojourdan.ColorFlow = {
"0" = 0;
"1" = 0;
"10" = 0;
"11" = 0;
"2" = 0;
"3" = 0;
"4" = 0;
"5" = 0;
"6" = 0;
"7" = 0;
"8" = 0;
"9" = 0;
};
};
width = 570;
},
{
anchors = (
{
name = bottom;
pos = (295,0);
},
{
name = top;
pos = (132,707);
}
);
layerId = "E7059794-B319-4C6D-9648-9B840A1B2BBD";
shapes = (
{
closed = 1;
nodes = (
(193,302,ls),
(193,388,o),
(229,426,o),
(304,426,cs),
(368,426,o),
(400,393,o),
(400,317,cs),
(400,0,l),
(522,0,l),
(522,318,ls),
(522,470,o),
(444,525,o),
(331,525,cs),
(261,525,o),
(223,497,o),
(192,452,c),
(193,718,l),
(71,718,l),
(71,0,l),
(193,0,l)
);
}
);
userData = {
com.hugojourdan.ColorFlow = {
"0" = 0;
"1" = 0;
"10" = 0;
"11" = 0;
"2" = 0;
"3" = 0;
"4" = 0;
"5" = 0;
"6" = 0;
"7" = 0;
"8" = 0;
"9" = 0;
};
};
width = 589;
},
{
anchors = (
{
name = bottom;
pos = (300,0);
},
{
name = top;
pos = (136,707);
}
);
layerId = m005;
shapes = (
{
closed = 1;
nodes = (
(204,305,ls),
(204,389,o),
(238,424,o),
(309,424,cs),
(369,424,o),
(399,394,o),
(399,319,cs),
(399,0,l),
(533,0,l),
(533,318,ls),
(533,469,o),
(455,529,o),
(338,529,cs),
(274,529,o),
(233,507,o),
(203,458,c),
(204,719,l),
(70,719,l),
(70,0,l),
(204,0,l)
);
}
);
userData = {
com.hugojourdan.ColorFlow = {
"0" = 0;
"1" = 0;
"10" = 0;
"11" = 0;
"2" = 0;
"3" = 0;
"4" = 0;
"5" = 0;
"6" = 0;
"7" = 0;
"8" = 0;
"9" = 0;
};
};
width = 599;
},
{
anchors = (
{
name = bottom;
pos = (290,0);
},
{
name = top;
pos = (128,707);
}
);
layerId = "1E3F0FE2-7EB2-4B39-B562-A9E797F546FD";
shapes = (
{
closed = 1;
nodes = (
(182,303,ls),
(182,392,o),
(222,432,o),
(299,432,cs),
(367,432,o),
(402,398,o),
(402,318,cs),
(402,0,l),
(511,0,l),
(511,319,ls),
(511,467,o),
(438,522,o),
(325,522,cs),
(252,522,o),
(213,491,o),
(181,443,c),
(182,718,l),
(73,718,l),
(73,0,l),
(182,0,l)
);
}
);
width = 580;
}
);
note = cid00555;
unicode = 104;
userData = {
KernOnName = h;
};
}
{
color = 0;
glyphname = k;
kernLeft = KO_k;
kernRight = KO_k;
layers = (
{
anchors = (
{
name = bottom;
pos = (260,0);
},
{
name = top;
pos = (112,707);
}
);
layerId = m003;
shapes = (
{
closed = 1;
nodes = (
(207,277,l),
(430,0,l),
(502,0,l),
(246,312,l)
);
},
{
closed = 1;
nodes = (
(140,717,l),
(83,717,l),
(83,0,l),
(140,0,l)
);
},
{
closed = 1;
nodes = (
(105,166,l),
(458,501,l),
(382,501,l),
(106,234,l)
);
}
);
userData = {
com.hugojourdan.ColorFlow = {
"0" = 0;
"1" = 0;
"10" = 0;
"11" = 0;
"2" = 0;
"3" = 0;
"4" = 0;
"5" = 0;
"6" = 0;
"7" = 0;
"8" = 0;
"9" = 0;
};
};
width = 520;
},
{
anchors = (
{
name = bottom;
pos = (270,0);
},
{
name = top;
pos = (118,707);
}
);
layerId = m01;
shapes = (
{
closed = 1;
nodes = (
(204,278,l),
(423,0,l),
(524,0,l),
(261,327,l)
);
},
{
closed = 1;
nodes = (
(158,717,l),
(78,717,l),
(78,0,l),
(158,0,l)
);
},
{
closed = 1;
nodes = (
(131,167,l),
(487,505,l),
(383,505,l),
(131,260,l)
);
}
);
userData = {
com.hugojourdan.ColorFlow = {
"0" = 0;
"1" = 0;
"10" = 0;
"11" = 0;
"2" = 0;
"3" = 0;
"4" = 0;
"5" = 0;
"6" = 0;
"7" = 0;
"8" = 0;
"9" = 0;
};
};
width = 540;
},
{
anchors = (
{
name = bottom;
pos = (276,0);
},
{
name = top;
pos = (123,707);
}
);
layerId = "54FF0D0B-6EB9-4889-908D-B8898FFCE7DE";
shapes = (
{
closed = 1;
nodes = (
(204,279,l),
(421,0,l),
(538,0,l),
(271,336,l)
);
},
{
closed = 1;
nodes = (
(170,717,l),
(75,717,l),
(75,0,l),
(170,0,l)
);
},
{
closed = 1;
nodes = (
(147,168,l),
(505,507,l),
(386,507,l),
(146,275,l)
);
}
);
userData = {
com.hugojourdan.ColorFlow = {
"0" = 0;
"1" = 0;
"10" = 0;
"11" = 0;
"2" = 0;
"3" = 0;
"4" = 0;
"5" = 0;
"6" = 0;
"7" = 0;
"8" = 0;
"9" = 0;
};
};
width = 552;
},
{
anchors = (
{
name = bottom;
pos = (288,0);
},
{
name = top;
pos = (132,707);
}
);
layerId = "E7059794-B319-4C6D-9648-9B840A1B2BBD";
shapes = (
{
closed = 1;
nodes = (
(206,280,l),
(419,0,l),
(565,0,l),
(291,351,l)
);
},
{
closed = 1;
nodes = (
(193,718,l),
(71,718,l),
(71,0,l),
(193,0,l)
);
},
{
closed = 1;
nodes = (
(178,168,l),
(538,514,l),
(392,514,l),
(176,300,l)
);
}
);
userData = {
com.hugojourdan.ColorFlow = {
"0" = 0;
"1" = 0;
"10" = 0;
"11" = 0;
"2" = 0;
"3" = 0;
"4" = 0;
"5" = 0;
"6" = 0;
"7" = 0;
"8" = 0;
"9" = 0;
};
};
width = 576;
},
{
anchors = (
{
name = bottom;
pos = (294,0);
},
{
name = top;
pos = (136,707);
}
);
layerId = m005;
shapes = (
{
closed = 1;
nodes = (
(208,280,l),
(419,0,l),
(578,0,l),
(301,357,l)
);
},
{
closed = 1;
nodes = (
(204,719,l),
(70,719,l),
(70,0,l),
(204,0,l)
);
},
{
closed = 1;
nodes = (
(192,168,l),
(554,519,l),
(395,519,l),
(190,311,l)
);
}
);
userData = {
com.hugojourdan.ColorFlow = {
"0" = 0;
"1" = 0;
"10" = 0;
"11" = 0;
"2" = 0;
"3" = 0;
"4" = 0;
"5" = 0;
"6" = 0;
"7" = 0;
"8" = 0;
"9" = 0;
};
};
width = 588;
},
{
anchors = (
{
name = bottom;
pos = (282,0);
},
{
name = top;
pos = (128,707);
}
);
layerId = "1E3F0FE2-7EB2-4B39-B562-A9E797F546FD";
shapes = (
{
closed = 1;
nodes = (
(205,280,l),
(420,0,l),
(552,0,l),
(281,344,l)
);
},
{
closed = 1;
nodes = (
(182,718,l),
(73,718,l),
(73,0,l),
(182,0,l)
);
},
{
closed = 1;
nodes = (
(163,168,l),
(522,511,l),
(389,511,l),
(161,288,l)
);
}
);
width = 564;
}
);
note = cid00596;
unicode = 107;
userData = {
KernOnName = k;
};
}
{
color = 0;
glyphname = l;
kernLeft = KO_l;
kernRight = KO_l;
layers = (
{
anchors = (
{
name = bottom;
pos = (112,0);
},
{
name = top;
pos = (112,707);
}
);
layerId = m003;
name = Regular;
shapes = (
{
closed = 1;
nodes = (
(140,717,l),
(83,717,l),
(83,0,l),
(140,0,l)
);
}
);
userData = {
com.hugojourdan.ColorFlow = {
"0" = 0;
"1" = 0;
"10" = 0;
"11" = 0;
"2" = 0;
"3" = 0;
"4" = 0;
"5" = 0;
"6" = 0;
"7" = 0;
"8" = 0;
"9" = 0;
};
};
width = 223;
},
{
anchors = (
{
name = bottom;
pos = (118,0);
},
{
name = top;
pos = (118,707);
}
);
layerId = m01;
name = Regular;
shapes = (
{
closed = 1;
nodes = (
(158,717,l),
(78,717,l),
(78,0,l),
(158,0,l)
);
}
);
userData = {
com.hugojourdan.ColorFlow = {
"0" = 0;
"1" = 0;
"10" = 0;
"11" = 0;
"2" = 0;
"3" = 0;
"4" = 0;
"5" = 0;
"6" = 0;
"7" = 0;
"8" = 0;
"9" = 0;
};
};
width = 236;
},
{
anchors = (
{
name = bottom;
pos = (123,0);
},
{
name = top;
pos = (123,707);
}
);
layerId = "54FF0D0B-6EB9-4889-908D-B8898FFCE7DE";
name = Regular;
shapes = (
{
closed = 1;
nodes = (
(170,717,l),
(75,717,l),
(75,0,l),
(170,0,l)
);
}
);
userData = {
com.hugojourdan.ColorFlow = {
"0" = 0;
"1" = 0;
"10" = 0;
"11" = 0;
"2" = 0;
"3" = 0;
"4" = 0;
"5" = 0;
"6" = 0;
"7" = 0;
"8" = 0;
"9" = 0;
};
};
width = 245;
},
{
anchors = (
{
name = bottom;
pos = (132,0);
},
{
name = top;
pos = (132,707);
}
);
layerId = "E7059794-B319-4C6D-9648-9B840A1B2BBD";
name = Regular;
shapes = (
{
closed = 1;
nodes = (
(193,718,l),
(71,718,l),
(71,0,l),
(193,0,l)
);
}
);
userData = {
com.hugojourdan.ColorFlow = {
"0" = 0;
"1" = 0;
"10" = 0;
"11" = 0;
"2" = 0;
"3" = 0;
"4" = 0;
"5" = 0;
"6" = 0;
"7" = 0;
"8" = 0;
"9" = 0;
};
};
width = 264;
},
{
anchors = (
{
name = bottom;
pos = (137,0);
},
{
name = top;
pos = (136,707);
}
);
layerId = m005;
name = Regular;
shapes = (
{
closed = 1;
nodes = (
(204,719,l),
(70,719,l),
(70,0,l),
(204,0,l)
);
}
);
userData = {
com.hugojourdan.ColorFlow = {
"0" = 0;
"1" = 0;
"10" = 0;
"11" = 0;
"2" = 0;
"3" = 0;
"4" = 0;
"5" = 0;
"6" = 0;
"7" = 0;
"8" = 0;
"9" = 0;
};
};
width = 274;
},
{
anchors = (
{
name = bottom;
pos = (128,0);
},
{
name = top;
pos = (128,707);
}
);
layerId = "1E3F0FE2-7EB2-4B39-B562-A9E797F546FD";
name = Regular;
shapes = (
{
closed = 1;
nodes = (
(182,718,l),
(73,718,l),
(73,0,l),
(182,0,l)
);
}
);
width = 255;
}
);
note = cid00605;
unicode = 108;
}
{
color = 0;
glyphname = q;
kernLeft = KO_a;
kernRight = KO_q;
layers = (
{
anchors = (
{
name = bottom;
pos = (278,0);
},
{
name = top;
pos = (278,505);
}
);
layerId = m003;
shapes = (
{
closed = 1;
nodes = (
(441,-202,l),
(498,-202,l),
(498,501,l),
(441,501,l)
);
},
{
closed = 1;
nodes = (
(395,-10,o),
(468,81,o),
(468,249,cs),
(468,417,o),
(395,511,o),
(263,511,cs),
(127,511,o),
(51,417,o),
(51,249,cs),
(51,82,o),
(127,-10,o),
(263,-10,cs)
);
},
{
closed = 1;
nodes = (
(170,41,o),
(108,115,o),
(108,249,cs),
(108,384,o),
(170,460,o),
(282,460,cs),
(384,460,o),
(441,384,o),
(441,249,cs),
(441,114,o),
(384,41,o),
(282,41,cs)
);
}
);
userData = {
com.hugojourdan.ColorFlow = {
"0" = 0;
"1" = 0;
"10" = 0;
"11" = 0;
"2" = 0;
"3" = 0;
"4" = 0;
"5" = 0;
"6" = 0;
"7" = 0;
"8" = 0;
"9" = 0;
};
};
width = 586;
},
{
anchors = (
{
name = bottom;
pos = (281,0);
},
{
name = top;
pos = (281,505);
}
);
layerId = m01;
shapes = (
{
closed = 1;
nodes = (
(429,-202,l),
(509,-202,l),
(509,505,l),
(429,505,l)
);
},
{
closed = 1;
nodes = (
(399,-10,o),
(456,102,o),
(456,252,cs),
(456,402,o),
(399,515,o),
(263,515,cs),
(123,515,o),
(47,422,o),
(47,252,cs),
(47,82,o),
(123,-10,o),
(263,-10,cs)
);
},
{
closed = 1;
nodes = (
(167,60,o),
(127,137,o),
(127,252,cs),
(127,367,o),
(167,445,o),
(280,445,cs),
(389,445,o),
(429,367,o),
(429,252,cs),
(429,137,o),
(389,60,o),
(280,60,cs)
);
}
);
userData = {
com.hugojourdan.ColorFlow = {
"0" = 0;
"1" = 0;
"10" = 0;
"11" = 0;
"2" = 0;
"3" = 0;
"4" = 0;
"5" = 0;
"6" = 0;
"7" = 0;
"8" = 0;
"9" = 0;
};
};
width = 592;
},
{
anchors = (
{
name = bottom;
pos = (285,0);
},
{
name = top;
pos = (285,505);
}
);
layerId = "54FF0D0B-6EB9-4889-908D-B8898FFCE7DE";
shapes = (
{
closed = 1;
nodes = (
(426,-202,l),
(521,-202,l),
(521,507,l),
(426,507,l)
);
},
{
closed = 1;
nodes = (
(400,-10,o),
(458,102,o),
(458,253,cs),
(458,404,o),
(400,517,o),
(263,517,cs),
(124,517,o),
(43,426,o),
(43,253,cs),
(43,79,o),
(125,-10,o),
(263,-10,cs)
);
},
{
closed = 1;
nodes = (
(181,71,o),
(138,137,o),
(138,253,cs),
(138,369,o),
(181,436,o),
(284,436,cs),
(384,436,o),
(426,369,o),
(426,253,cs),
(426,137,o),
(384,71,o),
(284,71,cs)
);
}
);
userData = {
com.hugojourdan.ColorFlow = {
"0" = 0;
"1" = 0;
"10" = 0;
"11" = 0;
"2" = 0;
"3" = 0;
"4" = 0;
"5" = 0;
"6" = 0;
"7" = 0;
"8" = 0;
"9" = 0;
};
};
width = 599;
},
{
anchors = (
{
name = bottom;
pos = (294,0);
},
{
name = top;
pos = (294,505);
}
);
layerId = "E7059794-B319-4C6D-9648-9B840A1B2BBD";
shapes = (
{
closed = 1;
nodes = (
(423,-202,l),
(544,-202,l),
(544,514,l),
(423,514,l)
);
},
{
closed = 1;
nodes = (
(406,-10,o),
(465,104,o),
(465,256,cs),
(465,408,o),
(406,524,o),
(260,524,cs),
(131,524,o),
(38,440,o),
(38,256,cs),
(38,79,o),
(127,-10,o),
(260,-10,cs)
);
},
{
closed = 1;
nodes = (
(204,88,o),
(160,142,o),
(160,256,cs),
(160,370,o),
(204,426,o),
(293,426,cs),
(380,426,o),
(423,370,o),
(423,256,cs),
(423,142,o),
(380,88,o),
(293,88,cs)
);
}
);
userData = {
com.hugojourdan.ColorFlow = {
"0" = 0;
"1" = 0;
"10" = 0;
"11" = 0;
"2" = 0;
"3" = 0;
"4" = 0;
"5" = 0;
"6" = 0;
"7" = 0;
"8" = 0;
"9" = 0;
};
};
width = 618;
},
{
anchors = (
{
name = bottom;
pos = (301,0);
},
{
name = top;
pos = (301,505);
}
);
layerId = m005;
shapes = (
{
closed = 1;
nodes = (
(422,-202,l),
(556,-202,l),
(556,519,l),
(422,519,l)
);
},
{
closed = 1;
nodes = (
(412,-10,o),
(471,106,o),
(471,258,cs),
(471,411,o),
(412,529,o),
(257,529,cs),
(138,529,o),
(37,450,o),
(37,258,cs),
(37,81,o),
(127,-10,o),
(257,-10,cs)
);
},
{
closed = 1;
nodes = (
(213,94,o),
(171,148,o),
(171,259,cs),
(171,370,o),
(213,425,o),
(298,425,cs),
(381,425,o),
(422,370,o),
(422,259,cs),
(422,148,o),
(381,94,o),
(298,94,cs)
);
}
);
userData = {
com.hugojourdan.ColorFlow = {
"0" = 0;
"1" = 0;
"10" = 0;
"11" = 0;
"2" = 0;
"3" = 0;
"4" = 0;
"5" = 0;
"6" = 0;
"7" = 0;
"8" = 0;
"9" = 0;
};
};
width = 631;
},
{
anchors = (
{
name = bottom;
pos = (290,0);
},
{
name = top;
pos = (290,505);
}
);
layerId = "1E3F0FE2-7EB2-4B39-B562-A9E797F546FD";
shapes = (
{
closed = 1;
nodes = (
(425,-202,l),
(533,-202,l),
(533,511,l),
(425,511,l)
);
},
{
closed = 1;
nodes = (
(403,-10,o),
(462,103,o),
(462,255,cs),
(462,406,o),
(403,521,o),
(262,521,cs),
(128,521,o),
(41,433,o),
(41,255,cs),
(41,79,o),
(126,-10,o),
(262,-10,cs)
);
},
{
closed = 1;
nodes = (
(193,80,o),
(149,140,o),
(149,255,cs),
(149,370,o),
(193,431,o),
(289,431,cs),
(382,431,o),
(425,370,o),
(425,255,cs),
(425,140,o),
(382,80,o),
(289,80,cs)
);
}
);
width = 609;
}
);
note = cid00689;
unicode = 113;
}
{
color = 0;
glyphname = r;
kernLeft = KO_r;
kernRight = KO_r;
layers = (
{
anchors = (
{
name = bottom;
pos = (112,0);
},
{
name = top;
pos = (201,501);
}
);
layerId = m003;
name = Regular;
shapes = (
{
closed = 1;
nodes = (
(140,298,ls),
(140,397,o),
(187,451,o),
(270,451,cs),
(319,451,l),
(319,501,l),
(271,501,ls),
(205,501,o),
(160,463,o),
(140,409,c),
(140,501,l),
(83,501,l),
(83,0,l),
(140,0,l)
);
}
);
userData = {
com.hugojourdan.ColorFlow = {
"0" = 0;
"1" = 0;
"10" = 0;
"11" = 0;
"2" = 0;
"3" = 0;
"4" = 0;
"5" = 0;
"6" = 0;
"7" = 0;
"8" = 0;
"9" = 0;
};
};
width = 351;
},
{
anchors = (
{
name = bottom;
pos = (118,0);
},
{
name = top;
pos = (212,505);
}
);
layerId = m01;
name = Regular;
shapes = (
{
closed = 1;
nodes = (
(158,303,ls),
(158,390,o),
(201,435,o),
(280,435,cs),
(335,435,l),
(335,505,l),
(290,505,ls),
(225,505,o),
(181,472,o),
(158,412,c),
(158,505,l),
(78,505,l),
(78,0,l),
(158,0,l)
);
}
);
userData = {
com.hugojourdan.ColorFlow = {
"0" = 0;
"1" = 0;
"10" = 0;
"11" = 0;
"2" = 0;
"3" = 0;
"4" = 0;
"5" = 0;
"6" = 0;
"7" = 0;
"8" = 0;
"9" = 0;
};
};
width = 364;
},
{
anchors = (
{
name = bottom;
pos = (123,0);
},
{
name = top;
pos = (216,505);
}
);
layerId = "54FF0D0B-6EB9-4889-908D-B8898FFCE7DE";
name = Regular;
shapes = (
{
closed = 1;
nodes = (
(170,299,ls),
(170,385,o),
(210,427,o),
(287,427,cs),
(346,427,l),
(346,507,l),
(302,507,ls),
(238,507,o),
(195,477,o),
(170,420,c),
(170,507,l),
(75,507,l),
(75,0,l),
(170,0,l)
);
}
);
userData = {
com.hugojourdan.ColorFlow = {
"0" = 0;
"1" = 0;
"10" = 0;
"11" = 0;
"2" = 0;
"3" = 0;
"4" = 0;
"5" = 0;
"6" = 0;
"7" = 0;
"8" = 0;
"9" = 0;
};
};
width = 372;
},
{
anchors = (
{
name = bottom;
pos = (136,0);
},
{
name = top;
pos = (214,505);
}
);
layerId = "E7059794-B319-4C6D-9648-9B840A1B2BBD";
name = Regular;
shapes = (
{
closed = 1;
nodes = (
(193,295,ls),
(193,380,o),
(229,417,o),
(302,417,cs),
(366,417,l),
(366,514,l),
(326,514,ls),
(262,514,o),
(221,490,o),
(192,438,c),
(193,514,l),
(71,514,l),
(71,0,l),
(193,0,l)
);
}
);
userData = {
com.hugojourdan.ColorFlow = {
"0" = 0;
"1" = 0;
"10" = 0;
"11" = 0;
"2" = 0;
"3" = 0;
"4" = 0;
"5" = 0;
"6" = 0;
"7" = 0;
"8" = 0;
"9" = 0;
};
};
width = 388;
},
{
anchors = (
{
name = bottom;
pos = (134,0);
},
{
name = top;
pos = (238,505);
}
);
layerId = m005;
name = Regular;
shapes = (
{
closed = 1;
nodes = (
(204,295,ls),
(204,379,o),
(238,414,o),
(309,414,cs),
(376,414,l),
(376,519,l),
(338,519,ls),
(274,519,o),
(233,497,o),
(203,448,c),
(204,519,l),
(70,519,l),
(70,0,l),
(204,0,l)
);
}
);
userData = {
com.hugojourdan.ColorFlow = {
"0" = 0;
"1" = 0;
"10" = 0;
"11" = 0;
"2" = 0;
"3" = 0;
"4" = 0;
"5" = 0;
"6" = 0;
"7" = 0;
"8" = 0;
"9" = 0;
};
};
width = 396;
},
{
anchors = (
{
name = bottom;
pos = (130,0);
},
{
name = top;
pos = (215,505);
}
);
layerId = "1E3F0FE2-7EB2-4B39-B562-A9E797F546FD";
name = Regular;
shapes = (
{
closed = 1;
nodes = (
(182,297,ls),
(182,383,o),
(220,422,o),
(295,422,cs),
(356,422,l),
(356,511,l),
(314,511,ls),
(250,511,o),
(208,484,o),
(181,429,c),
(182,511,l),
(73,511,l),
(73,0,l),
(182,0,l)
);
}
);
width = 380;
}
);
note = cid00692;
unicode = 114;
userData = {
KernOnName = r;
};
}
{
color = 0;
glyphname = t;
kernLeft = KO_t;
kernRight = KO_t;
layers = (
{
anchors = (
{
name = bottom;
pos = (144,0);
},
{
name = center;
pos = (159,253);
},
{
name = top;
pos = (141,651);
}
);
layerId = m003;
name = Light;
shapes = (
{
closed = 1;
nodes = (
(293,501,l),
(169,501,l),
(169,651,l),
(112,651,l),
(112,501,l),
(23,501,l),
(23,451,l),
(112,451,l),
(112,101,ls),
(112,19,o),
(143,0,o),
(224,0,cs),
(288,0,l),
(288,50,l),
(169,50,l),
(169,451,l),
(293,451,l)
);
}
);
userData = {
com.hugojourdan.ColorFlow = {
"0" = 0;
"1" = 0;
"10" = 0;
"11" = 0;
"2" = 0;
"3" = 0;
"4" = 0;
"5" = 0;
"6" = 0;
"7" = 0;
"8" = 0;
"9" = 0;
};
};
width = 318;
},
{
anchors = (
{
name = bottom;
pos = (145,0);
},
{
name = center;
pos = (160,253);
},
{
name = top;
pos = (145,656);
}
);
layerId = m01;
name = Regular;
shapes = (
{
closed = 1;
nodes = (
(301,505,l),
(185,505,l),
(185,656,l),
(105,656,l),
(105,505,l),
(17,505,l),
(17,435,l),
(105,435,l),
(105,115,ls),
(105,23,o),
(159,0,o),
(235,0,cs),
(301,0,l),
(301,70,l),
(185,70,l),
(185,435,l),
(301,435,l)
);
}
);
userData = {
com.hugojourdan.ColorFlow = {
"0" = 0;
"1" = 0;
"10" = 0;
"11" = 0;
"2" = 0;
"3" = 0;
"4" = 0;
"5" = 0;
"6" = 0;
"7" = 0;
"8" = 0;
"9" = 0;
};
};
width = 320;
},
{
anchors = (
{
name = bottom;
pos = (147,0);
},
{
name = center;
pos = (163,253);
},
{
name = top;
pos = (147,658);
}
);
layerId = "54FF0D0B-6EB9-4889-908D-B8898FFCE7DE";
name = Regular;
shapes = (
{
closed = 1;
nodes = (
(308,507,l),
(196,507,l),
(196,658,l),
(101,658,l),
(101,507,l),
(15,507,l),
(15,427,l),
(101,427,l),
(101,123,ls),
(101,31,o),
(157,0,o),
(237,0,cs),
(308,0,l),
(308,80,l),
(196,80,l),
(196,427,l),
(308,427,l)
);
}
);
userData = {
com.hugojourdan.ColorFlow = {
"0" = 0;
"1" = 0;
"10" = 0;
"11" = 0;
"2" = 0;
"3" = 0;
"4" = 0;
"5" = 0;
"6" = 0;
"7" = 0;
"8" = 0;
"9" = 0;
};
};
width = 325;
},
{
anchors = (
{
name = bottom;
pos = (155,0);
},
{
name = center;
pos = (168,253);
},
{
name = top;
pos = (155,662);
}
);
layerId = "E7059794-B319-4C6D-9648-9B840A1B2BBD";
name = Medium;
shapes = (
{
closed = 1;
nodes = (
(322,514,l),
(216,514,l),
(216,662,l),
(94,662,l),
(94,514,l),
(13,514,l),
(13,417,l),
(94,417,l),
(94,133,ls),
(94,40,o),
(155,0,o),
(242,0,cs),
(322,0,l),
(322,97,l),
(216,97,l),
(216,417,l),
(322,417,l)
);
}
);
userData = {
com.hugojourdan.ColorFlow = {
"0" = 0;
"1" = 0;
"10" = 0;
"11" = 0;
"2" = 0;
"3" = 0;
"4" = 0;
"5" = 0;
"6" = 0;
"7" = 0;
"8" = 0;
"9" = 0;
};
};
width = 335;
},
{
anchors = (
{
name = bottom;
pos = (159,0);
},
{
name = center;
pos = (170,253);
},
{
name = top;
pos = (159,664);
}
);
layerId = m005;
name = Semibold;
shapes = (
{
closed = 1;
nodes = (
(329,519,l),
(226,519,l),
(226,664,l),
(92,664,l),
(92,519,l),
(12,519,l),
(12,414,l),
(92,414,l),
(92,135,ls),
(92,42,o),
(155,0,o),
(245,0,cs),
(329,0,l),
(329,105,l),
(226,105,l),
(226,414,l),
(329,414,l)
);
}
);
userData = {
com.hugojourdan.ColorFlow = {
"0" = 0;
"1" = 0;
"10" = 0;
"11" = 0;
"2" = 0;
"3" = 0;
"4" = 0;
"5" = 0;
"6" = 0;
"7" = 0;
"8" = 0;
"9" = 0;
};
};
width = 339;
},
{
anchors = (
{
name = bottom;
pos = (151,0);
},
{
name = center;
pos = (166,253);
},
{
name = top;
pos = (151,660);
}
);
layerId = "1E3F0FE2-7EB2-4B39-B562-A9E797F546FD";
name = Regular;
shapes = (
{
closed = 1;
nodes = (
(315,511,l),
(206,511,l),
(206,660,l),
(98,660,l),
(98,511,l),
(14,511,l),
(14,422,l),
(98,422,l),
(98,128,ls),
(98,36,o),
(156,0,o),
(240,0,cs),
(315,0,l),
(315,89,l),
(206,89,l),
(206,422,l),
(315,422,l)
);
}
);
width = 330;
}
);
note = cid00723;
unicode = 116;
userData = {
KernOnName = t;
};
}
{
color = 0;
glyphname = u;
kernLeft = KO_u;
kernRight = KO_u;
layers = (
{
anchors = (
{
name = bottom;
pos = (284,0);
},
{
name = ogonek;
pos = (484,-1);
},
{
name = top;
pos = (284,505);
},
{
name = topright;
pos = (547,505);
}
);
layerId = m003;
shapes = (
{
closed = 1;
nodes = (
(427,207,ls),
(427,84,o),
(361,40,o),
(273,40,cs),
(187,40,o),
(137,78,o),
(137,191,cs),
(138,501,l),
(81,501,l),
(81,188,ls),
(81,51,o),
(146,-10,o),
(259,-10,cs),
(349,-10,o),
(397,27,o),
(427,84,c),
(427,-1,l),
(484,-1,l),
(484,500,l),
(427,500,l)
);
}
);
userData = {
com.hugojourdan.ColorFlow = {
"0" = 0;
"1" = 0;
"10" = 0;
"11" = 0;
"2" = 0;
"3" = 0;
"4" = 0;
"5" = 0;
"6" = 0;
"7" = 0;
"8" = 0;
"9" = 0;
};
};
width = 567;
},
{
anchors = (
{
name = bottom;
pos = (282,0);
},
{
name = ogonek;
pos = (475,0);
},
{
name = top;
pos = (282,505);
},
{
name = topright;
pos = (543,505);
}
);
layerId = m01;
shapes = (
{
closed = 1;
nodes = (
(405,207,ls),
(405,100,o),
(351,60,o),
(272,60,cs),
(196,60,o),
(155,94,o),
(155,191,cs),
(155,505,l),
(75,505,l),
(75,188,ls),
(75,50,o),
(138,-10,o),
(247,-10,cs),
(326,-10,o),
(372,28,o),
(405,83,c),
(405,0,l),
(485,0,l),
(485,505,l),
(405,505,l)
);
}
);
userData = {
com.hugojourdan.ColorFlow = {
"0" = 0;
"1" = 0;
"10" = 0;
"11" = 0;
"2" = 0;
"3" = 0;
"4" = 0;
"5" = 0;
"6" = 0;
"7" = 0;
"8" = 0;
"9" = 0;
};
};
width = 563;
},
{
anchors = (
{
name = bottom;
pos = (286,0);
},
{
name = ogonek;
pos = (474,0);
},
{
name = top;
pos = (286,505);
},
{
name = topright;
pos = (551,505);
}
);
layerId = "54FF0D0B-6EB9-4889-908D-B8898FFCE7DE";
shapes = (
{
closed = 1;
nodes = (
(401,209,ls),
(401,112,o),
(355,71,o),
(276,71,cs),
(204,71,o),
(166,107,o),
(166,194,cs),
(166,507,l),
(72,507,l),
(72,191,ls),
(72,45,o),
(142,-10,o),
(251,-10,cs),
(328,-10,o),
(369,26,o),
(401,74,c),
(401,0,l),
(496,0,l),
(496,507,l),
(401,507,l)
);
}
);
userData = {
com.hugojourdan.ColorFlow = {
"0" = 0;
"1" = 0;
"10" = 0;
"11" = 0;
"2" = 0;
"3" = 0;
"4" = 0;
"5" = 0;
"6" = 0;
"7" = 0;
"8" = 0;
"9" = 0;
};
};
width = 571;
},
{
anchors = (
{
name = bottom;
pos = (295,0);
},
{
name = ogonek;
pos = (478,0);
},
{
name = top;
pos = (295,505);
},
{
name = topright;
pos = (569,505);
}
);
layerId = "E7059794-B319-4C6D-9648-9B840A1B2BBD";
shapes = (
{
closed = 1;
nodes = (
(396,213,ls),
(396,127,o),
(360,89,o),
(285,89,cs),
(221,89,o),
(189,122,o),
(189,198,cs),
(189,514,l),
(67,514,l),
(67,197,ls),
(67,45,o),
(145,-10,o),
(258,-10,cs),
(328,-10,o),
(366,18,o),
(397,63,c),
(396,0,l),
(518,0,l),
(518,514,l),
(396,514,l)
);
}
);
userData = {
com.hugojourdan.ColorFlow = {
"0" = 0;
"1" = 0;
"10" = 0;
"11" = 0;
"2" = 0;
"3" = 0;
"4" = 0;
"5" = 0;
"6" = 0;
"7" = 0;
"8" = 0;
"9" = 0;
};
};
width = 589;
},
{
anchors = (
{
name = bottom;
pos = (300,0);
},
{
name = ogonek;
pos = (494,0);
},
{
name = top;
pos = (300,505);
},
{
name = topright;
pos = (579,505);
}
);
layerId = m005;
shapes = (
{
closed = 1;
nodes = (
(395,214,ls),
(395,130,o),
(361,95,o),
(290,95,cs),
(230,95,o),
(200,125,o),
(200,200,cs),
(200,519,l),
(66,519,l),
(66,201,ls),
(66,50,o),
(144,-10,o),
(261,-10,cs),
(325,-10,o),
(366,12,o),
(396,61,c),
(395,0,l),
(529,0,l),
(529,519,l),
(395,519,l)
);
}
);
userData = {
com.hugojourdan.ColorFlow = {
"0" = 0;
"1" = 0;
"10" = 0;
"11" = 0;
"2" = 0;
"3" = 0;
"4" = 0;
"5" = 0;
"6" = 0;
"7" = 0;
"8" = 0;
"9" = 0;
};
};
width = 599;
},
{
anchors = (
{
name = bottom;
pos = (291,0);
},
{
name = ogonek;
pos = (476,0);
},
{
name = top;
pos = (291,505);
},
{
name = topright;
pos = (560,505);
}
);
layerId = "1E3F0FE2-7EB2-4B39-B562-A9E797F546FD";
shapes = (
{
closed = 1;
nodes = (
(399,211,ls),
(399,120,o),
(358,80,o),
(281,80,cs),
(213,80,o),
(178,115,o),
(178,196,cs),
(178,511,l),
(70,511,l),
(70,194,ls),
(70,45,o),
(144,-10,o),
(255,-10,cs),
(328,-10,o),
(368,23,o),
(399,69,c),
(399,0,l),
(507,0,l),
(507,511,l),
(399,511,l)
);
}
);
width = 580;
}
);
note = cid00744;
unicode = 117;
}
{
color = 0;
glyphname = v;
kernLeft = KO_v;
kernRight = KO_v;
layers = (
{
anchors = (
{
name = bottom;
pos = (246,0);
},
{
name = top;
pos = (246,505);
}
);
layerId = m003;
shapes = (
{
closed = 1;
nodes = (
(469,501,l),
(410,501,l),
(249,60,l),
(242,60,l),
(83,501,l),
(22,501,l),
(213,0,l),
(278,0,l)
);
}
);
userData = {
com.hugojourdan.ColorFlow = {
"0" = 0;
"1" = 0;
"10" = 0;
"11" = 0;
"2" = 0;
"3" = 0;
"4" = 0;
"5" = 0;
"6" = 0;
"7" = 0;
"8" = 0;
"9" = 0;
};
};
width = 491;
},
{
anchors = (
{
name = bottom;
pos = (255,0);
},
{
name = top;
pos = (255,505);
}
);
layerId = m01;
shapes = (
{
closed = 1;
nodes = (
(490,505,l),
(410,505,l),
(258,83,l),
(252,83,l),
(103,505,l),
(20,505,l),
(213,0,l),
(297,0,l)
);
}
);
userData = {
com.hugojourdan.ColorFlow = {
"0" = 0;
"1" = 0;
"10" = 0;
"11" = 0;
"2" = 0;
"3" = 0;
"4" = 0;
"5" = 0;
"6" = 0;
"7" = 0;
"8" = 0;
"9" = 0;
};
};
width = 510;
},
{
anchors = (
{
name = bottom;
pos = (263,0);
},
{
name = top;
pos = (263,505);
}
);
layerId = "54FF0D0B-6EB9-4889-908D-B8898FFCE7DE";
shapes = (
{
closed = 1;
nodes = (
(506,507,l),
(409,507,l),
(265,101,l),
(260,101,l),
(118,507,l),
(20,507,l),
(214,0,l),
(311,0,l)
);
}
);
userData = {
com.hugojourdan.ColorFlow = {
"0" = 0;
"1" = 0;
"10" = 0;
"11" = 0;
"2" = 0;
"3" = 0;
"4" = 0;
"5" = 0;
"6" = 0;
"7" = 0;
"8" = 0;
"9" = 0;
};
};
width = 525;
},
{
anchors = (
{
name = bottom;
pos = (276,0);
},
{
name = top;
pos = (276,505);
}
);
layerId = "E7059794-B319-4C6D-9648-9B840A1B2BBD";
shapes = (
{
closed = 1;
nodes = (
(533,514,l),
(407,514,l),
(278,134,l),
(274,134,l),
(145,514,l),
(19,514,l),
(216,0,l),
(336,0,l)
);
}
);
userData = {
com.hugojourdan.ColorFlow = {
"0" = 0;
"1" = 0;
"10" = 0;
"11" = 0;
"2" = 0;
"3" = 0;
"4" = 0;
"5" = 0;
"6" = 0;
"7" = 0;
"8" = 0;
"9" = 0;
};
};
width = 552;
},
{
anchors = (
{
name = bottom;
pos = (282,0);
},
{
name = top;
pos = (282,505);
}
);
layerId = m005;
shapes = (
{
closed = 1;
nodes = (
(545,519,l),
(406,519,l),
(283,149,l),
(280,149,l),
(157,519,l),
(18,519,l),
(216,0,l),
(347,0,l)
);
}
);
userData = {
com.hugojourdan.ColorFlow = {
"0" = 0;
"1" = 0;
"10" = 0;
"11" = 0;
"2" = 0;
"3" = 0;
"4" = 0;
"5" = 0;
"6" = 0;
"7" = 0;
"8" = 0;
"9" = 0;
};
};
width = 563;
},
{
anchors = (
{
name = bottom;
pos = (270,0);
},
{
name = top;
pos = (270,505);
}
);
layerId = "1E3F0FE2-7EB2-4B39-B562-A9E797F546FD";
shapes = (
{
closed = 1;
nodes = (
(520,511,l),
(408,511,l),
(272,118,l),
(267,118,l),
(132,511,l),
(20,511,l),
(215,0,l),
(324,0,l)
);
}
);
width = 539;
}
);
note = cid00808;
unicode = 118;
}
{
color = 0;
glyphname = w;
kernLeft = KO_w;
kernRight = KO_w;
layers = (
{
anchors = (
{
name = bottom;
pos = (391,0);
},
{
name = top;
pos = (391,505);
}
);
layerId = m003;
shapes = (
{
closed = 1;
nodes = (
(181,0,l),
(259,0,l),
(385,444,l),
(393,444,l),
(518,0,l),
(596,0,l),
(759,501,l),
(700,501,l),
(563,56,l),
(557,56,l),
(431,501,l),
(350,501,l),
(225,54,l),
(219,54,l),
(82,501,l),
(22,501,l)
);
}
);
userData = {
com.hugojourdan.ColorFlow = {
"0" = 0;
"1" = 0;
"10" = 0;
"11" = 0;
"2" = 0;
"3" = 0;
"4" = 0;
"5" = 0;
"6" = 0;
"7" = 0;
"8" = 0;
"9" = 0;
};
};
width = 781;
},
{
anchors = (
{
name = bottom;
pos = (393,0);
},
{
name = top;
pos = (393,505);
}
);
layerId = m01;
shapes = (
{
closed = 1;
nodes = (
(183,0,l),
(273,0,l),
(389,429,l),
(394,429,l),
(511,0,l),
(603,0,l),
(766,505,l),
(685,505,l),
(560,80,l),
(559,80,l),
(444,505,l),
(343,505,l),
(228,78,l),
(227,78,l),
(102,505,l),
(20,505,l)
);
}
);
userData = {
com.hugojourdan.ColorFlow = {
"0" = 0;
"1" = 0;
"10" = 0;
"11" = 0;
"2" = 0;
"3" = 0;
"4" = 0;
"5" = 0;
"6" = 0;
"7" = 0;
"8" = 0;
"9" = 0;
};
};
width = 786;
},
{
anchors = (
{
name = bottom;
pos = (395,0);
},
{
name = top;
pos = (395,505);
}
);
layerId = "54FF0D0B-6EB9-4889-908D-B8898FFCE7DE";
shapes = (
{
closed = 1;
nodes = (
(183,0,l),
(282,0,l),
(392,408,l),
(397,408,l),
(508,0,l),
(608,0,l),
(771,507,l),
(677,507,l),
(558,104,l),
(556,104,l),
(448,507,l),
(344,507,l),
(236,102,l),
(234,102,l),
(115,507,l),
(20,507,l)
);
}
);
userData = {
com.hugojourdan.ColorFlow = {
"0" = 0;
"1" = 0;
"10" = 0;
"11" = 0;
"2" = 0;
"3" = 0;
"4" = 0;
"5" = 0;
"6" = 0;
"7" = 0;
"8" = 0;
"9" = 0;
};
};
width = 790;
},
{
anchors = (
{
name = bottom;
pos = (399,0);
},
{
name = top;
pos = (399,505);
}
);
layerId = "E7059794-B319-4C6D-9648-9B840A1B2BBD";
shapes = (
{
closed = 1;
nodes = (
(183,0,l),
(297,0,l),
(397,370,l),
(401,370,l),
(503,0,l),
(616,0,l),
(779,514,l),
(661,514,l),
(553,148,l),
(551,148,l),
(454,514,l),
(346,514,l),
(249,146,l),
(247,146,l),
(139,514,l),
(19,514,l)
);
}
);
userData = {
com.hugojourdan.ColorFlow = {
"0" = 0;
"1" = 0;
"10" = 0;
"11" = 0;
"2" = 0;
"3" = 0;
"4" = 0;
"5" = 0;
"6" = 0;
"7" = 0;
"8" = 0;
"9" = 0;
};
};
width = 798;
},
{
anchors = (
{
name = bottom;
pos = (401,0);
},
{
name = top;
pos = (401,505);
}
);
layerId = m005;
shapes = (
{
closed = 1;
nodes = (
(183,0,l),
(303,0,l),
(399,353,l),
(402,353,l),
(500,0,l),
(619,0,l),
(783,519,l),
(653,519,l),
(551,168,l),
(548,168,l),
(456,519,l),
(346,519,l),
(255,166,l),
(252,166,l),
(149,519,l),
(18,519,l)
);
}
);
userData = {
com.hugojourdan.ColorFlow = {
"0" = 0;
"1" = 0;
"10" = 0;
"11" = 0;
"2" = 0;
"3" = 0;
"4" = 0;
"5" = 0;
"6" = 0;
"7" = 0;
"8" = 0;
"9" = 0;
};
};
width = 801;
},
{
anchors = (
{
name = bottom;
pos = (397,0);
},
{
name = top;
pos = (397,505);
}
);
layerId = "1E3F0FE2-7EB2-4B39-B562-A9E797F546FD";
shapes = (
{
closed = 1;
nodes = (
(183,0,l),
(290,0,l),
(395,389,l),
(399,389,l),
(506,0,l),
(612,0,l),
(775,511,l),
(669,511,l),
(556,126,l),
(554,126,l),
(451,511,l),
(345,511,l),
(243,124,l),
(241,124,l),
(127,511,l),
(20,511,l)
);
}
);
width = 794;
}
);
note = cid00813;
unicode = 119;
}
{
color = 0;
glyphname = x;
kernLeft = KO_x;
kernRight = KO_x;
layers = (
{
anchors = (
{
name = bottom;
pos = (247,0);
},
{
name = top;
pos = (247,505);
}
);
layerId = m003;
shapes = (
{
closed = 1;
nodes = (
(390,501,l),
(239,277,l),
(274,240,l),
(452,501,l)
);
},
{
closed = 1;
nodes = (
(98,0,l),
(249,214,l),
(212,248,l),
(34,0,l)
);
},
{
closed = 1;
nodes = (
(36,501,l),
(210,242,l),
(241,212,l),
(387,0,l),
(458,0,l),
(278,250,l),
(248,282,l),
(106,501,l)
);
}
);
userData = {
com.hugojourdan.ColorFlow = {
"0" = 0;
"1" = 0;
"10" = 0;
"11" = 0;
"2" = 0;
"3" = 0;
"4" = 0;
"5" = 0;
"6" = 0;
"7" = 0;
"8" = 0;
"9" = 0;
};
};
width = 493;
},
{
anchors = (
{
name = bottom;
pos = (258,0);
},
{
name = top;
pos = (258,505);
}
);
layerId = m01;
shapes = (
{
closed = 1;
nodes = (
(391,505,l),
(246,282,l),
(293,232,l),
(481,505,l)
);
},
{
closed = 1;
nodes = (
(121,0,l),
(267,212,l),
(217,265,l),
(31,0,l)
);
},
{
closed = 1;
nodes = (
(31,505,l),
(206,246,l),
(252,203,l),
(389,0,l),
(482,0,l),
(304,251,l),
(258,295,l),
(125,505,l)
);
}
);
userData = {
com.hugojourdan.ColorFlow = {
"0" = 0;
"1" = 0;
"10" = 0;
"11" = 0;
"2" = 0;
"3" = 0;
"4" = 0;
"5" = 0;
"6" = 0;
"7" = 0;
"8" = 0;
"9" = 0;
};
};
width = 515;
},
{
anchors = (
{
name = bottom;
pos = (265,0);
},
{
name = top;
pos = (265,505);
}
);
layerId = "54FF0D0B-6EB9-4889-908D-B8898FFCE7DE";
shapes = (
{
closed = 1;
nodes = (
(393,507,l),
(250,285,l),
(304,228,l),
(498,507,l)
);
},
{
closed = 1;
nodes = (
(134,0,l),
(278,211,l),
(221,275,l),
(29,0,l)
);
},
{
closed = 1;
nodes = (
(30,507,l),
(208,245,l),
(257,201,l),
(392,0,l),
(499,0,l),
(317,258,l),
(269,299,l),
(137,507,l)
);
}
);
userData = {
com.hugojourdan.ColorFlow = {
"0" = 0;
"1" = 0;
"10" = 0;
"11" = 0;
"2" = 0;
"3" = 0;
"4" = 0;
"5" = 0;
"6" = 0;
"7" = 0;
"8" = 0;
"9" = 0;
};
};
width = 530;
},
{
anchors = (
{
name = bottom;
pos = (278,0);
},
{
name = top;
pos = (278,505);
}
);
layerId = "E7059794-B319-4C6D-9648-9B840A1B2BBD";
shapes = (
{
closed = 1;
nodes = (
(396,514,l),
(256,291,l),
(325,221,l),
(528,514,l)
);
},
{
closed = 1;
nodes = (
(158,0,l),
(297,209,l),
(230,296,l),
(25,0,l)
);
},
{
closed = 1;
nodes = (
(26,514,l),
(210,241,l),
(264,197,l),
(396,0,l),
(529,0,l),
(338,270,l),
(288,305,l),
(159,514,l)
);
}
);
userData = {
com.hugojourdan.ColorFlow = {
"0" = 0;
"1" = 0;
"10" = 0;
"11" = 0;
"2" = 0;
"3" = 0;
"4" = 0;
"5" = 0;
"6" = 0;
"7" = 0;
"8" = 0;
"9" = 0;
};
};
width = 556;
},
{
anchors = (
{
name = bottom;
pos = (284,0);
},
{
name = top;
pos = (284,505);
}
);
layerId = m005;
shapes = (
{
closed = 1;
nodes = (
(397,519,l),
(258,293,l),
(334,217,l),
(541,519,l)
);
},
{
closed = 1;
nodes = (
(169,0,l),
(305,208,l),
(236,308,l),
(23,0,l)
);
},
{
closed = 1;
nodes = (
(24,519,l),
(211,239,l),
(267,195,l),
(396,0,l),
(542,0,l),
(346,275,l),
(296,308,l),
(168,519,l)
);
}
);
userData = {
com.hugojourdan.ColorFlow = {
"0" = 0;
"1" = 0;
"10" = 0;
"11" = 0;
"2" = 0;
"3" = 0;
"4" = 0;
"5" = 0;
"6" = 0;
"7" = 0;
"8" = 0;
"9" = 0;
};
};
width = 567;
},
{
anchors = (
{
name = bottom;
pos = (272,0);
},
{
name = top;
pos = (272,505);
}
);
layerId = "1E3F0FE2-7EB2-4B39-B562-A9E797F546FD";
shapes = (
{
closed = 1;
nodes = (
(395,511,l),
(253,288,l),
(315,225,l),
(513,511,l)
);
},
{
closed = 1;
nodes = (
(146,0,l),
(288,210,l),
(226,286,l),
(27,0,l)
);
},
{
closed = 1;
nodes = (
(28,511,l),
(209,243,l),
(261,199,l),
(394,0,l),
(514,0,l),
(328,264,l),
(279,302,l),
(148,511,l)
);
}
);
width = 543;
}
);
note = cid00823;
unicode = 120;
}
